<svg viewBox="0 0 332 332" xmlns="http://www.w3.org/2000/svg" xmlns:xlink="http://www.w3.org/1999/xlink"><defs><path d="M23.0646973 29.2558594H10.6281738V42H2.91577149V10.0078125H24.3171387v5.9545898H10.6281738v7.3608399h12.4365235v5.9326172zm29.5532226-19.2480469v20.9399414c0 2.3730587-.505366 4.4274816-1.5161133 6.1633301-1.0107472 1.7358485-2.460928 3.0578568-4.3505859 3.9660644-1.8896579.9082077-4.1235223 1.3623047-6.7016601 1.3623047-3.8965039 0-6.9653209-1.0107321-9.206543-3.0322265-2.2412222-2.0214945-3.3837889-4.7900215-3.4277344-8.3056641v-21.09375h7.7563477v21.2475586c.087891 3.5009941 1.7138513 5.2514648 4.8779297 5.2514648 1.5966876 0 2.8051716-.4394487 3.6254882-1.3183593.8203166-.8789107 1.2304688-2.3071191 1.2304688-4.284668V10.0078125h7.7124023zM65.142334 36.0673828h13.425293V42H57.4299316V10.0078125h7.7124024v26.0595703zm24.3896484 0h13.4252926V42H81.8195801V10.0078125h7.7124023v26.0595703zm44.3847656-2.5708008c0-1.1279353-.399166-2.0068328-1.19751-2.6367187-.798344-.629886-2.200917-1.2817349-4.207763-1.9555664-2.006846-.6738315-3.647455-1.3256805-4.921875-1.9555664-4.145529-2.036143-6.218262-4.8339666-6.218262-8.3935547 0-1.7724698.516352-3.3361749 1.549072-4.6911621 1.03272-1.3549873 2.493887-2.4096642 4.383545-3.1640625 1.889658-.75439833 4.01366-1.13159182 6.37207-1.13159182 2.299817 0 4.361564.41015214 6.185303 1.23046872 1.82374.8203166 3.240962 1.9885178 4.251709 3.5046387 1.010747 1.5161209 1.516113 3.2482813 1.516113 5.1965332h-7.690429c0-1.3037175-.399166-2.3144495-1.19751-3.0322266-.798344-.717777-1.878655-1.0766601-3.240967-1.0766601-1.37696 0-2.464595.303952-3.262939.9118652-.798344.6079132-1.19751 1.3806106-1.19751 2.3181153 0 .8203166.439449 1.5637173 1.318359 2.2302246.878911.6665072 2.424306 1.3549769 4.636231 2.0654296 2.211925.7104528 4.028313 1.475826 5.449219 2.2961426 3.457048 1.9921975 5.185546 4.7387521 5.185546 8.2397461 0 2.7978656-1.054677 4.9951092-3.164062 6.5917969-2.109386 1.5966877-5.002423 2.3950195-8.679199 2.3950195-2.592787 0-4.940175-.4650832-7.042237-1.3952636-2.102061-.9301805-3.684076-2.2045818-4.746093-3.8232422-1.062017-1.6186605-1.593018-3.4826555-1.593018-5.5920411h7.734375c0 1.7138758.443111 2.9772909 1.329346 3.7902833.886235.8129923 2.325429 1.2194824 4.317627 1.2194824 1.27442 0 2.28149-.2746555 3.02124-.8239746.73975-.5493192 1.109619-1.3220165 1.109619-2.3181153zm36.782227-17.5341797h-9.602051V42h-7.712403V15.9624023h-9.426269v-5.9545898h26.740723v5.9545898zm18.786621 20.0610352h-10.568848L177.071045 42h-8.239746l11.733398-31.9921875h7.250977L199.636963 42h-8.283692l-1.867675-5.9765625zm-8.723145-5.9545898h6.877442l-3.449707-11.0961915-3.427735 11.0961915zm46.625977 1.0986328c-.10254 2.2265736-.70312 4.1931067-1.801758 5.8996582-1.098638 1.7065515-2.640371 3.0285597-4.625244 3.9660644-1.984873.9375047-4.251696 1.40625-6.800537 1.40625-4.204123 0-7.514637-1.3696152-9.931641-4.1088867-2.417004-2.7392715-3.625488-6.6064203-3.625488-11.6015625v-1.5820312c0-3.1347813.545649-5.8776738 1.636963-8.2287598 1.091314-2.351086 2.662343-4.1674741 4.713134-5.4492188 2.050792-1.2817446 4.423815-1.92260738 7.119141-1.92260738 3.881855 0 7.001941 1.02171828 9.360352 3.06518558 2.35841 2.0434672 3.698728 4.8596012 4.020996 8.4484863h-7.69043c-.058594-1.9482519-.549312-3.3471637-1.472168-4.1967774-.922856-.8496136-2.329092-1.274414-4.21875-1.274414-1.918955 0-3.325191.7177662-4.21875 2.1533203-.893559 1.4355541-1.362304 3.7280116-1.40625 6.8774414v2.2631836c0 3.413103.428463 5.8520435 1.2854 7.3168945.856938 1.4648511 2.332754 2.1972657 4.427491 2.1972657 1.772469 0 3.127436-.4174763 4.064941-1.2524415.937505-.8349651 1.435547-2.1606354 1.494141-3.9770507h7.668457zm14.523926-1.0766602L238.748291 33.5625V42h-7.712402V10.0078125h7.712402v14.1064453l2.680664-4.0649414 6.899414-10.0415039h9.536133l-10.810547 14.1503906L257.864502 42h-9.140625l-6.811523-11.9091797z" id="a"/></defs><g fill="none" fill-rule="evenodd"><path d="M166 328C76.529871 328 4 255.470129 4 166 4 76.5298705 76.529871 4 166 4s162 72.5298705 162 162c0 89.470129-72.529871 162-162 162z" fill="#FFF" fill-rule="nonzero"/><path d="M167 290c67.707167 0 123-55.292833 123-123 0-68.5615108-55.148045-124-123-124C98.292833 43 43 98.2928334 43 167c0 67.851955 55.438489 123 124 123zm0 8c-73.125445 0-132-58.874555-132-131C35 93.8745554 93.874555 35 167 35c72.125445 0 131 58.8745554 131 132 0 72.125445-58.874555 131-131 131z" fill="#3097C0" fill-rule="nonzero"/><g fill-rule="nonzero"><path d="M4 174h325c-.168635 10.261932-1.835302 21.5952654-5 34-3.274247 11.9356018-7.940914 23.9356018-14 36H23c-6.5600202-11.6818988-11.22668691-23.3485655-14-35-3.05055703-11.6514345-4.7172237-23.3181012-5-35z" fill="#3097C0"/><path fill="#000" d="M23 245v-4h287v4zM6 178v-4h321v4z"/><g transform="translate(36 183)"><use fill="#000" xlink:href="#a"/><use fill="#FFF" xlink:href="#a"/></g></g><path d="M167 324c86.484848 0 157-70.515152 157-157C324 79.5151519 253.484848 9 167 9 79.515152 9 9 79.5151519 9 167c0 86.484848 70.515152 157 158 157zm-1 8C74.320731 332 0 257.679268 0 166 0 74.3207315 74.320731 0 166 0c91.679268 0 166 74.3207315 166 166 0 91.679268-74.320732 166-166 166z" fill="#000" fill-rule="nonzero"/><path d="M108.331031 273.35539c17.802301 9.874354 36.931568 14.787812 57.462375 14.787812 19.668872 0 38.281659-4.510536 55.89576-13.573888 4.071504 11.838068 0 0 4.071504 11.389481-18.866221 9.44307-38.873232 14.184407-59.967264 14.184407-22.015088 0-42.618261-5.165419-61.740125-15.452114l4.27775-11.335698z" fill="#FFF" fill-rule="nonzero"/><path d="M75.886731 265.85039484C103.2955773 288.6167983 133.6666671 300 167.0000004 300 200.333334 300 230 288.6167983 256 265.85039484"/><path d="M129.486812 291.8526824c-.8030853.5002589-1.7934936.7674249-2.9712546.801506-1.177761.0340811-2.4066827-.1595234-3.6868019-.5808193-1.3441253-.4423606-2.4263386-1.1236543-3.2466724-2.0439015-.8203338-.9202472-1.3223426-2.0293241-1.5060415-3.3272638-.1836989-1.2979397-.0345659-2.7030771.4474035-4.2154542l.3475673-1.0560931c.5102361-1.5503667 1.2133587-2.8066805 2.109389-3.7689793.8960303-.9622988 1.9354077-1.5818294 3.1181634-1.8586106 1.1827556-.2767811 2.4355096-.1975033 3.7582995.2378357 1.8419494.6061979 3.1375363 1.5192941 3.8867995 2.7393159.7492632 1.2200218.943718 2.700797.5833702 4.4423699l-3.1149413-1.0251481c.1503311-.9357823.0497953-1.6900669-.3016103-2.2628762-.3514056-.5728094-.9538058-.9996396-1.8072186-1.2805035-1.0881014-.3581015-2.0511892-.2218486-2.8892924.4087628-.8381031.6306114-1.5263507 1.7519163-2.0647633 3.3639484l-.3265027.9920875c-.5359819 1.6285962-.6315304 2.9607262-.2866484 3.9964301.344882 1.0357038 1.1147004 1.7501497 2.3094784 2.1433592 1.2018898.39555 2.1431036.4215599 2.8236696.0780305l.8812061-2.6775694-2.9122568-.9584432.7758827-2.3575412 6.1125389 2.0116776-2.0397639 6.1978798zm22.7492318 6.8812021l-3.3369351-.4647288.9666359-6.940825-6.5070234-.9062211-.9666359 6.9408249-3.3369351-.4647288 2.2554838-16.1952582 3.3369351.4647288-.9139667 6.562639 6.5070234.9062211.9139667-6.5626389 3.336935.4647288-2.2554837 16.1952582zm20.5042251-6.0188418l-6.4671612.1433617.0970679 4.3788071 7.5899323-.168251.0599829 2.7058782-10.9582453.2429186-.3623868-16.3475464 10.93579-.2424208.0604807 2.7283337-7.5674768.1677532.0863655 3.8960155 6.4671612-.1433618.0584896 2.638512zm24.2754681 4.0847418l-3.308981.6338398-8.465545-9.3328048 2.024062 10.5666796-3.308981.6338398-3.076236-16.0595881 3.308981-.6338398 8.480801 9.3527518-2.028288-10.5887394 3.297951-.631727 3.076236 16.0595881zm17.694437-19.2276038l-4.720957 1.6734789 4.551413 12.8397332-3.175532 1.1256584-4.551413-12.8397331-4.657446 1.6509658-.911783-2.5721807L213.798391 275l.911783 2.5721807z" fill="#000" fill-rule="nonzero"/><g transform="translate(-207 74)"><path d="M287.897059 100.121739v-3.5130433c.04016-.5855073.329376-.8782609.867647-.8782609.538271 0 .827486.2927536.867647.8782609v3.5130433h-1.735294zM290.484778 100.121739v-3.5130433c.040161-.5855073.329376-.8782609.867647-.8782609.538271 0 .827487.2927536.867647.8782609v3.5130433h-1.735294z" stroke="#000" stroke-width=".88" fill="#D8D8D8" fill-rule="nonzero"/><path stroke="#000" stroke-width="1.76" fill="#FFF" fill-rule="nonzero" d="M261 101v-3.5130435l.867647-.8782608V37.7652174h4.338235V40.4h15.589698V10.5391304h16.549633V40.4h15.678601v-2.6347826h4.240892l.871033 58.6780088.7466.8973535V101z"/><path d="M261.867647 37.7652174H261c2.02451-4.0798891 3.036765-7.300179 3.036765-9.6608696 0 2.3606906 1.012255 5.5809805 3.036764 9.6608696h-5.205882zM277.485294 45.6695652h-.867647c2.313726-4.6653964 3.470588-8.1784398 3.470588-10.5391304 0 2.3606906 1.156863 5.873734 3.470589 10.5391304h-6.07353zM297.487406 45.6695652h-.867648c2.313726-4.6653964 3.470589-8.1784398 3.470589-10.5391304 0 2.3606906 1.156862 5.873734 3.470588 10.5391304h-6.073529z" stroke="#000" stroke-width=".88" fill="#D8D8D8" fill-rule="nonzero"/><path d="M313.926471 40.4v30.7391304" stroke="#000" stroke-width="1.76" stroke-linecap="square"/><path d="M313.926471 37.7652174h-.867647c2.024509-4.0798891 3.036764-7.300179 3.036764-9.6608696 0 2.3606906 1.012255 5.5809805 3.036765 9.6608696h-5.205882z" stroke="#000" stroke-width=".88" fill="#D8D8D8" fill-rule="nonzero"/><path stroke="#000" stroke-width="1.76" fill="#FFF" fill-rule="nonzero" d="M285.294118 9.77065217l4.338235-5.37934782H290.5l4.338235 5.37934782v.76847823h-9.544117z"/><path d="M290.066176 4.39130435V.43913043M289.198529 1.3173913h1.735294" stroke="#000" stroke-width=".88" stroke-linecap="square"/><path stroke="#000" stroke-width=".88" fill="#FFF" fill-rule="nonzero" d="M281.823529 10.091585l1.735294-4.82201978 1.735295 4.82201978zM294.838235 10.091585l1.735294-4.82201978 1.735295 4.82201978z"/><path d="M266.205882 40.4v31.6173913M265.338235 96.4432262h11.279412M308.720588 96.4432262l8.676471.0190926" stroke="#000" stroke-width="1.76" stroke-linecap="square"/><path stroke="#000" stroke-width="1.76" d="M261.867647 70.2608696l1.735294-2.6347826 1.735294 2.6347826v26.1823566h-3.470588zM314.794118 70.2608696l1.735294-2.6347826 2.155971 2.6538752v26.1823566l-3.891265-.0190926z"/><path d="M278.352941 76.8478261v3.9902665" stroke="#D8D8D8" stroke-width=".88" stroke-linecap="round"/><path d="M282.691176 55.3304348v-6.1478261c-.020295-.5855073-.314585-.8782609-.882868-.8782609-.568284 0-.852426.2927536-.852426.8782609v6.1478261h1.735294zM302.647059 55.3304348v-6.1478261c-.020296-.5855073-.314586-.8782609-.882869-.8782609-.568284 0-.852425.2927536-.852425.8782609v6.1478261h1.735294zM282.691176 64.1130435v-6.1478261c-.020295-.5855073-.314585-.8782609-.882868-.8782609-.568284 0-.852426.2927536-.852426.8782609v6.1478261h1.735294zM302.647059 64.1130435v-6.1478261c-.020296-.5855073-.314586-.8782609-.882869-.8782609-.568284 0-.852425.2927536-.852425.8782609v6.1478261h1.735294zM282.691176 74.4867045v-7.5399969c-.020295-.7180949-.314585-1.0771424-.882868-1.0771424-.568284 0-.852426.3590475-.852426 1.0771424v7.5399969h1.735294zM302.647059 74.4867045v-7.5399969c-.020296-.7180949-.314586-1.0771424-.882869-1.0771424-.568284 0-.852425.3590475-.852425 1.0771424v7.5399969h1.735294zM279.220588 55.3304348v-6.1478261c-.020296-.5855073-.314585-.8782609-.882869-.8782609-.568283 0-.852425.2927536-.852425.8782609v6.1478261h1.735294zM299.176471 55.3304348v-6.1478261c-.020296-.5855073-.314586-.8782609-.882869-.8782609-.568284 0-.852426.2927536-.852426.8782609v6.1478261h1.735295zM279.220588 64.1130435v-6.1478261c-.020296-.5855073-.314585-.8782609-.882869-.8782609-.568283 0-.852425.2927536-.852425.8782609v6.1478261h1.735294zM299.176471 64.1130435v-6.1478261c-.020296-.5855073-.314586-.8782609-.882869-.8782609-.568284 0-.852426.2927536-.852426.8782609v6.1478261h1.735295zM279.220588 74.4867045v-7.5399969c-.020296-.7180949-.314585-1.0771424-.882869-1.0771424-.568283 0-.852425.3590475-.852425 1.0771424v7.5399969h1.735294zM299.176471 74.4867045v-7.5399969c-.020296-.7180949-.314586-1.0771424-.882869-1.0771424-.568284 0-.852426.3590475-.852426 1.0771424v7.5399969h1.735295zM282.691176 97.969118v-8.1066739c-.020295-.7720642-.314585-1.1580963-.882868-1.1580963-.568284 0-.852426.3860321-.852426 1.1580963v8.1066739h1.735294zM302.631837 97.969118v-8.1066739c-.020296-.7720642-.314586-1.1580963-.882869-1.1580963-.568283 0-.852425.3860321-.852425 1.1580963v8.1066739h1.735294zM279.220588 97.969118v-8.1066739c-.020296-.7720642-.314585-1.1580963-.882869-1.1580963-.568283 0-.852425.3860321-.852425 1.1580963v8.1066739h1.735294zM299.161249 97.969118v-8.1066739c-.020296-.7720642-.314586-1.1580963-.882869-1.1580963-.568284 0-.852425.3860321-.852425 1.1580963v8.1066739h1.735294z" stroke="#D8D8D8" stroke-width=".88" fill="#D8D8D8" fill-rule="nonzero"/><path stroke="#000" stroke-width="1.76" d="M276.617647 101V46.5478261h6.941177V101z"/><path d="M278.786765 82.9956522v2.9559363M280.522059 82.9956522v2.9559363M282.257353 82.9956522v2.9559363M277.500516 82.9956522h5.19066M277.500516 86.5086957h5.19066" stroke="#000" stroke-width=".88" stroke-linecap="square"/><path d="M303.440171 79.9598318c1.900301-2.3674241 3.113375-3.5511361 3.639222-3.5511361.525847 0 1.656417 1.183712 3.391711 3.5511361" stroke="#D8D8D8" stroke-width=".88"/><ellipse stroke="#D8D8D8" stroke-width=".88" cx="307.000516" cy="79.0434783" rx="1.73529412" ry="1.75652174"/><circle stroke="#D8D8D8" stroke-width=".88" cx="305.265222" cy="81.6782609" r="1"/><circle stroke="#D8D8D8" stroke-width=".88" cx="308.73581" cy="81.6782609" r="1"/><path d="M307.000516 82.1173913v11.4173913M308.73581 83.873913v9.6608696M305.265222 83.873913v9.6608696" stroke="#D8D8D8" stroke-width=".88" stroke-linecap="square"/><path d="M304.397575 94.4130435h5.639706" stroke="#000" stroke-width=".88" stroke-linecap="square"/><path d="M269.676471 79.9598318c1.787878-2.3674241 2.944741-3.5511361 3.470588-3.5511361.525847 0 1.682709 1.4130129 3.470588 4.2390389" stroke="#D8D8D8" stroke-width=".88"/><ellipse stroke="#D8D8D8" stroke-width=".88" transform="matrix(-1 0 0 1 546.443188 0)" cx="273.221594" cy="79.0434783" rx="1.73529412" ry="1.75652174"/><circle stroke="#D8D8D8" stroke-width=".88" transform="matrix(-1 0 0 1 542.972598 0)" cx="271.486299" cy="81.6782609" r="1"/><circle stroke="#D8D8D8" stroke-width=".88" transform="matrix(-1 0 0 1 549.764706 0)" cx="274.882353" cy="81.6782609" r="1"/><path d="M273.147059 82.1173913v11.4173913M274.882353 83.873913v9.6608696M271.411765 83.873913v9.6608696" stroke="#D8D8D8" stroke-width=".88" stroke-linecap="square"/><path d="M275.749998 94.4130435h-5.639705" stroke="#000" stroke-width=".88" stroke-linecap="square"/><path d="M301.779412 76.8478261v3.9902665" stroke="#D8D8D8" stroke-width=".88" stroke-linecap="round"/><path stroke="#000" stroke-width="1.76" d="M303.514706 101V46.5478261h-6.941177V101z"/><path d="M301.345588 82.9956522v2.9559363M299.610294 82.9956522v2.9559363M297.875 82.9956522v2.9559363M302.631836 82.9956522h-5.190661M302.631836 86.5086957h-5.190661" stroke="#000" stroke-width=".88" stroke-linecap="square"/><path d="M283.558824 101v-9.6608696c0-1.635376 2.29292-4.0684912 6.073529-4.3913043H290.5c4.292088 0 6.073529 2.6347826 6.073529 4.3913043" stroke="#000" stroke-width="1.76"/><path d="M286.161765 93.5347826h7.677548M283.558824 84.7521739h12.580882M283.558824 82.9956522h12.580882" stroke="#000" stroke-width=".88" stroke-linecap="square"/><path d="M288.764706 82.9383743V60.6c0-.8782609.015222-.8782609.867647-.8782609h.852425c.882869 0 .882869 0 .882869.8782609v22.3383743h-2.602941zM288.764706 82.9383743V60.6c-.578432-1.1710145-1.156863-1.7565217-1.735294-1.7565217-.578432 0-1.156863.5855072-1.735294 1.7565217v22.3383743h3.470588zM294.838235 82.9383743V60.6c-.578431-1.1710145-1.156862-1.7565217-1.735294-1.7565217-.578431 0-1.156863.5855072-1.735294 1.7565217v22.3383743h3.470588z" stroke="#000" stroke-width=".88"/><path d="M287.029412 61.0391304v1.7565218M293.087719 61.0391304v1.7565218M286.595588 61.9173913h.867647M292.653896 61.9173913h.867647" stroke="#D8D8D8" stroke-width=".88" stroke-linecap="square"/><ellipse stroke="#000" stroke-width=".88" fill="#D8D8D8" fill-rule="nonzero" cx="290.066176" cy="54.8913043" rx="3.03676471" ry="3.07391304"/><path d="M283.558824 56.2086957c2.612914-4.0985508 4.782031-6.1478261 6.507353-6.1478261 1.725321 0 3.894438 2.0492753 6.507352 6.1478261" stroke="#000" stroke-width=".88"/><path d="M283.558824 48.7434783h12.384086" stroke="#000" stroke-width=".88" stroke-linecap="square"/><path d="M288.764706 48.7434783v-3.952174c.618148-1.1710144 1.051972-1.7565217 1.301471-1.7565217.249498 0 .683322.5855073 1.30147 1.7565217v3.952174h-2.602941z" stroke="#000" stroke-width=".88" fill="#D8D8D8" fill-rule="nonzero"/><path d="M266.205882 58.8434783h10.411765M266.205882 49.1826087h10.411765M303.529928 58.8434783h10.396543M303.529928 49.1826087h10.396543" stroke="#000" stroke-width="1.76" stroke-linecap="square"/><path stroke="#000" stroke-width="1.76" fill="#D8D8D8" fill-rule="nonzero" d="M303.514706 64.9625532l9.544118 7.0548381h-9.544118z"/><path stroke="#000" stroke-width="1.76" d="M311.338751 96.4623188h-7.89858v-16.502487l3.639222-9.6989622 4.259358 11.3904047z"/><path stroke="#000" stroke-width="1.76" fill="#D8D8D8" fill-rule="nonzero" d="M276.617647 72.0173913h-9.544118l9.544118-7.0548381z"/><path stroke="#000" stroke-width="1.76" d="M268.719067 96.4623188h7.89858v-16.502487l-3.639222-9.6989622-4.259358 11.3904047z"/><path d="M268.808824 57.9652174v-3.5130435c0-.5855072.289215-.8782609.867647-.8782609.578431 0 .867647.2927537.867647.8782609v3.5130435h-1.735294zM306.117647 57.9652174v-3.5130435c0-.5855072.289216-.8782609.867647-.8782609.578431 0 .867647.2927537.867647.8782609v3.5130435h-1.735294zM272.279412 57.9652174v-3.5130435c0-.5855072.289215-.8782609.867647-.8782609.578431 0 .867647.2927537.867647.8782609v3.5130435h-1.735294zM309.588235 57.9652174v-3.5130435c0-.5855072.289216-.8782609.867647-.8782609.578432 0 .867647.2927537.867647.8782609v3.5130435h-1.735294z" stroke="#D8D8D8" stroke-width=".88" fill="#D8D8D8" fill-rule="nonzero"/><path d="M270.544118 57.9652174v-4.2156522c0-.7026087.289215-1.053913.867647-1.053913.578431 0 .867647.3513043.867647 1.053913v4.2156522h-1.735294zM307.852941 57.9652174v-4.2156522c0-.7026087.289216-1.053913.867647-1.053913.578432 0 .867647.3513043.867647 1.053913v4.2156522h-1.735294z" stroke="#D8D8D8" stroke-width=".88" fill="#D8D8D8" fill-rule="nonzero"/><path d="M267.941176 58.4743541V53.573913c0-.8782608.867648-2.6347826 3.470589-2.6347826s3.470588 1.7565218 3.470588 2.6347826v4.9004411h-6.941177zM305.25 58.4743541V53.573913c0-.8782608.867647-2.6347826 3.470588-2.6347826s3.470588 1.7565218 3.470588 2.6347826v4.9004411H305.25z" stroke="#000" stroke-width=".88"/><path d="M285.294118 25.4716576h3.470588V15.810788c-.578432-1.8074354-1.156863-2.6856963-1.735294-2.6347826-.578432.0509137-1.156863.9291745-1.735294 2.6347826v9.6608696zM285.294118 39.5238315h3.470588v-9.6608696c-.578432-1.8074354-1.156863-2.6856963-1.735294-2.6347826-.578432.0509137-1.156863.9291745-1.735294 2.6347826v9.6608696zM291.367647 25.4716576h3.470588V15.810788c-.578431-1.8074354-1.156862-2.6856963-1.735294-2.6347826-.578431.0509137-1.156863.9291745-1.735294 2.6347826v9.6608696zM291.367647 39.5238315h3.470588v-9.6608696c-.578431-1.8074354-1.156862-2.6856963-1.735294-2.6347826-.578431.0509137-1.156863.9291745-1.735294 2.6347826v9.6608696z" stroke="#D8D8D8" stroke-width=".88" fill="#D8D8D8" fill-rule="nonzero"/><path stroke="#000" stroke-width=".88" d="M284.426471 48.7434783L289.96146 40.4l5.790651 8.3434783z"/><path stroke="#D8D8D8" stroke-width=".88" fill="#D8D8D8" fill-rule="nonzero" d="M286.161765 93.171738h7.808823v-.9543467l-3.036764-2.6347826h-1.735295l-3.036764 2.6347826z"/><path d="M286.161765 101v-8.7826087c0-1.7565217 1.735294-2.6347826 3.470588-2.6347826H290.5c1.735294 0 3.470588.8782609 3.470588 2.6347826V101h-7.808823z" stroke="#000" stroke-width=".88"/></g><g transform="translate(120 51)"><ellipse stroke="#000" stroke-width="1.8" fill="#D8D8D8" fill-rule="nonzero" cx="45.2606838" cy="45.1449275" rx="3.26068376" ry="3.14492754"/><path d="M104.807692 87.1594203h3.260684" stroke="#020202" stroke-width="1.8" stroke-linecap="square"/><path stroke="#D8D8D8" stroke-width="1.8" fill="#FFF" fill-rule="nonzero" d="M6.52136752 97.2070826v-6.4534594H101.547009v6.4534594z"/><path stroke="#000" stroke-width="1.8" fill="#FFF" fill-rule="nonzero" d="M4.65811966 97.0434783h98.7521368V124H4.65811966zM101.547009 77.2753623h4.65811966v19.7681159H101.547009z"/><path d="M4.65811966 102.434783H106.67094" stroke="#000" stroke-width="1.8" stroke-linecap="square"/><path d="M9.78205128 121.304348v-2.471015M19.0982906 121.304348v-2.471015M28.4145299 121.304348v-2.471015M37.7307692 121.304348v-2.471015M47.0470085 121.304348v-2.471015M56.3632479 121.304348v-2.471015M65.6794872 121.304348v-2.471015M74.9957265 121.304348v-2.471015M84.3119658 121.304348v-2.471015M93.6282051 121.304348v-2.471015M12.5769231 121.304348v-2.471015M21.8931624 121.304348v-2.471015M31.2094017 121.304348v-2.471015M40.525641 121.304348v-2.471015M49.8418803 121.304348v-2.471015M59.1581197 121.304348v-2.471015M68.474359 121.304348v-2.471015M77.7905983 121.304348v-2.471015M87.1068376 121.304348v-2.471015M96.4230769 121.304348v-2.471015" stroke="#D8D8D8" stroke-width="1.8" stroke-linecap="square"/><path d="M9.31623932 113.96163H13.042735v-6.169835c-.3105413-1.175206-.9316239-1.762809-1.8632478-1.762809-.931624 0-1.55270657.587603-1.86324788 1.762809v6.169835zM18.6324786 113.96163h3.7264958v-6.169835c-.3105414-1.175206-.931624-1.762809-1.8632479-1.762809s-1.5527066.587603-1.8632479 1.762809v6.169835zM27.9487179 113.96163h3.7264958v-6.169835c-.3105413-1.175206-.931624-1.762809-1.8632479-1.762809s-1.5527065.587603-1.8632479 1.762809v6.169835zM37.2649573 113.96163h3.7264957v-6.169835c-.3105413-1.175206-.9316239-1.762809-1.8632479-1.762809-.9316239 0-1.5527065.587603-1.8632478 1.762809v6.169835zM46.5811966 113.96163h3.7264957v-6.169835c-.3105413-1.175206-.9316239-1.762809-1.8632479-1.762809-.9316239 0-1.5527065.587603-1.8632478 1.762809v6.169835zM55.8974359 113.96163h3.7264957v-6.169835c-.3105413-1.175206-.9316239-1.762809-1.8632478-1.762809-.931624 0-1.5527066.587603-1.8632479 1.762809v6.169835zM65.2136752 113.96163h3.7264957v-6.169835c-.3105413-1.175206-.9316239-1.762809-1.8632478-1.762809-.931624 0-1.5527066.587603-1.8632479 1.762809v6.169835z" stroke="#D8D8D8" stroke-width="1.8" fill="#D8D8D8" fill-rule="nonzero"/><path fill="#FFF" fill-rule="nonzero" d="M31 75h27V55H31z"/><path d="M31 67.8985507h27.017094" stroke="#000" stroke-width="1.8" stroke-linecap="square"/><path d="M74.5299145 113.96163h3.7264958v-6.169835c-.3105414-1.175206-.931624-1.762809-1.8632479-1.762809s-1.5527066.587603-1.8632479 1.762809v6.169835zM83.8461538 113.96163h3.7264958v-6.169835c-.3105413-1.175206-.931624-1.762809-1.8632479-1.762809s-1.5527065.587603-1.8632479 1.762809v6.169835zM93.1623932 113.96163h3.7264957v-6.169835c-.3105413-1.175206-.9316239-1.762809-1.8632479-1.762809-.9316239 0-1.5527065.587603-1.8632478 1.762809v6.169835z" stroke="#D8D8D8" stroke-width="1.8" fill="#D8D8D8" fill-rule="nonzero"/><path d="M4.65811966 115.463768H106.67094" stroke="#000" stroke-width="1.8" stroke-linecap="square"/><path stroke="#000" stroke-width="1.8" fill="#D8D8D8" fill-rule="nonzero" d="M101.136408 77.2753623h5.534532l-2.561966-8.9855072z"/><path d="M.46581197 87.1594203h3.26068376" stroke="#020202" stroke-width="1.8" stroke-linecap="square"/><path stroke="#000" stroke-width="1.8" fill="#FFF" fill-rule="nonzero" d="M1.86324786 77.2753623h4.65811966v19.7681159H1.86324786z"/><path stroke="#000" stroke-width="1.8" fill="#D8D8D8" fill-rule="nonzero" d="M1.45264745 77.2753623h5.53453204l-2.56196581-8.9855072zM101.547009 83.9435545l-3.7264962-9.3638444H10.2478632L6.52136752 83.092296v7.6613272H101.547009z"/><path stroke="#000" stroke-width="1.8" d="M6.5213675 84.4637681l3.7264958-9.884058h46.1153846M10.2478632 90.7536232v-4.4927536l1.8632479-2.6956522 1.8632479 2.6956522v4.4927536zM18.6324786 90.7536232v-4.4927536l1.8632479-2.6956522 1.8632479 2.6956522v4.4927536zM27.9487179 90.7536232v-4.4927536l1.8632479-2.6956522 1.8632479 2.6956522v4.4927536zM37.2649573 90.7536232v-4.4927536l1.8632478-2.6956522 1.8632479 2.6956522v4.4927536zM46.5811966 90.7536232v-4.4927536l1.8632478-2.6956522 1.8632479 2.6956522v4.4927536zM55.8974359 90.7536232v-4.4927536l1.8632479-2.6956522 1.8632478 2.6956522v4.4927536zM65.2136752 90.7536232v-4.4927536l1.8632479-2.6956522 1.8632478 2.6956522v4.4927536zM74.5299145 90.7536232v-4.4927536l1.8632479-2.6956522 1.8632479 2.6956522v4.4927536zM83.8461538 90.7536232v-4.4927536l1.8632479-2.6956522 1.8632479 2.6956522v4.4927536zM93.1623932 90.7536232v-4.4927536l1.8632478-2.6956522 1.8632479 2.6956522v4.4927536z"/><path stroke="#000" stroke-width="1.8" fill="#FFF" fill-rule="nonzero" d="M58.5213675 74.0805991V31H52v23.3124832h6.5213675zM31 74.1304348V31.0498357L37.5213675 31v23.3623188H31z"/><path d="M31 54.4492754h27.017094" stroke="#000" stroke-width="1.8" stroke-linecap="square"/><path d="M42 55.0725123V41.5942514c0-.8985507.0002481-3.6074597 3.2606838-3.5942029 3.2604356.0132567 3.2606837 2.6956522 3.2606837 3.5942029v13.4782609H42z" stroke="#000" stroke-width="1.8"/><path d="M39 65.1884058h2.7948718v-5.3913044c0-.8985507-.465812-1.7971014-1.3974359-1.7971014C39.465812 58 39 58.8985507 39 59.7971014v5.3913044zM48 65.1884058h2.7948718v-5.3913044c0-.8985507-.465812-1.7971014-1.3974359-1.7971014C48.465812 58 48 58.8985507 48 59.7971014v5.3913044z" stroke="#D8D8D8" stroke-width="1.8" fill="#D8D8D8" fill-rule="nonzero"/><path stroke="#000" stroke-width="1.8" fill="#D8D8D8" fill-rule="nonzero" d="M31 31.7826087h8.3846154L35.1923077 21zM51 31.7826087h7.9188034L54.9594017 21z"/><path stroke="#000" stroke-width="1.8" fill="#FFF" fill-rule="nonzero" d="M38 34.6347108h13.974359L48.2478632 14h-6.5213675z"/><path stroke="#000" stroke-width="1.8" fill="#D8D8D8" fill-rule="nonzero" d="M42 14.4087675v-2.6956522L45.2606838 0l3.2606837 11.7131153v2.6956522z"/></g><g><path stroke="#000" stroke-width="1.584" fill="#FFF" fill-rule="nonzero" d="M234.821429 174.210145v-5.528986h.821428v-11.8478257H234v-2.3695652h1.642857v-6.3188406l1.642857-9.4782608v2.3695652h7.392857l.821429-.7898551V120.5h.821429v-18.1666667H245.5v-2.3695652h1.642857V83.3768116h-.821428v-2.3695652h1.642857v-3.1594203L249.607143 66 251.25 76.2681159h11.5L264.392857 66l1.642857 10.2681159v4.7391305h1.642857v2.3695652h-.821428v16.5869565H268.5v2.3695652h-.821429V120.5H268.5v19.7463768l.821429.7898551h7.392857v-2.3695652l1.642857 9.4782608v6.3188406H280v2.3695652h-1.642857v11.8478257h.821428v5.528986z"/><path fill="#D8D8D8" fill-rule="nonzero" d="M238.928571 154.4637681v-6.3188406l-1.642857-7.1086956h39.428572l-1.642857 7.1086956v6.3188406H268.5v3.6393289l-23.410714.3099465v-3.9492754z"/><path fill="#FFF" fill-rule="nonzero" d="M245.5 141.0362319v15.7971014l-.821429 1.5797102h24.642858L268.5 156.8333333v-15.7971014z"/><path d="M238.928571 154.4637681h6.160715M269.321429 154.4637681h6.160714" stroke="#000" stroke-width="1.584" stroke-linecap="square"/><path stroke="#000" stroke-width="1.584" fill="#FFF" fill-rule="nonzero" d="M255.357143 81.0072464v-3.1594203L257 75.47826087l1.642857 2.36956523v3.1594203z"/><path d="M245.089286 158.4130435v15.7057985M268.910714 158.4130435v15.7057985" stroke="#000" stroke-width="1.584" stroke-linecap="square"/><path d="M255.357143 97.5942029V87.2273551c0-.9873189.547619-1.4809783 1.642857-1.4809783 1.095238 0 1.642857.4936594 1.642857 1.4809783v10.3668478h-3.285714zM252.071429 117.3405797v-10.3668478c0-.9873189.547619-1.4809783 1.642857-1.4809783 1.095238 0 1.642857.4936594 1.642857 1.4809783v10.3668478h-3.285714zM252.071429 137.8768116v-11.057971c0-1.0531401.547619-1.5797102 1.642857-1.5797102 1.095238 0 1.642857.5265701 1.642857 1.5797102v11.057971h-3.285714z" stroke="#D8D8D8" stroke-width="1.584" fill="#D8D8D8" fill-rule="nonzero"/><path d="M238.928571 168.681159v-8.984601c0-.8556764.547619-1.2835145 1.642858-1.2835145 1.095238 0 1.642857.4278381 1.642857 1.2835145v8.984601h-3.285715zM271.785714 168.681159v-8.984601c0-.8556764.547619-1.2835145 1.642857-1.2835145 1.095238 0 1.642858.4278381 1.642858 1.2835145v8.984601h-3.285715z" stroke="#D8D8D8" stroke-width=".792" fill="#D8D8D8" fill-rule="nonzero"/><path d="M252.071429 158.4130435v-8.3214033c0-1.7492489 3.285714-5.106133 4.928571-5.106133 1.642857 0 4.928571 3.3568841 4.928571 5.106133v8.3214033h-9.857142zM252.071429 174.210145v-7.831909c0-1.6463519 3.285714-4.8057722 4.928571-4.8057722 1.642857 0 4.928571 3.1594203 4.928571 4.8057722v7.831909h-9.857142z" stroke="#000" stroke-width="1.584" fill="#D8D8D8" fill-rule="nonzero"/><path d="M252.071429 150.1195652h9.857142M252.071429 166.706522h9.857142" stroke="#000" stroke-width="1.584" stroke-linecap="square"/><path d="M258.642857 117.3405797v-10.3668478c0-.9873189.547619-1.4809783 1.642857-1.4809783 1.095238 0 1.642857.4936594 1.642857 1.4809783v10.3668478h-3.285714zM258.642857 137.8768116v-11.057971c0-1.0531401.547619-1.5797102 1.642857-1.5797102 1.095238 0 1.642857.5265701 1.642857 1.5797102v11.057971h-3.285714z" stroke="#D8D8D8" stroke-width="1.584" fill="#D8D8D8" fill-rule="nonzero"/><path stroke="#000" stroke-width="1.584" d="M237.285714 138.6666667l1.642857 9.4782608v6.3188406h-3.285714v-6.3188406zM276.714286 138.6666667l1.642857 9.4782608v6.3188406h-3.285714v-6.3188406zM245.5 141.0362319v15.7971014l-.821429 1.5797102h24.642858L268.5 156.8333333v-15.7971014z"/><path d="M246.321429 120.2038043l21.357142-.1974637M246.321429 102.7282609h21.357142M246.321429 100.3586957h21.357142M247.142857 82.8831522l20.535714.1974637M247.142857 81.0072464h20.535714" stroke="#000" stroke-width="1.584" stroke-linecap="square"/><path stroke="#000" stroke-width="1.584" d="M249.607143 68.36956522l1.848214 9.47826088v3.1594203M264.392857 67.57971014c0-.49411396-.547619 2.92859136-1.642857 10.26811596v3.1594203"/></g></g></svg>
