<svg xmlns="http://www.w3.org/2000/svg" viewBox="0 0 475.704 93.083"><g data-name="Group 4456"><path data-name="Path 206" d="M20.899 62.037a22.081 22.081 0 01-5.56-14.965v-.192c0-11.458 8.12-20.807 19.386-20.807 6.112 0 11.029 2.4 15.788 6.394l10.15-10.15c-6.112-5.83-13.533-9.8-25.814-9.8C14.324 12.517.002 28.08.002 47.071v.192a34.329 34.329 0 0010.567 25.149z" fill="#1e1e1c"/><path data-name="Path 207" d="M175.015 47.072v-.192c0-18.811-14.514-33.223-35.512-33.223h-26.062v66.83h26.062c20.998-.012 35.512-14.616 35.512-33.415zM128.131 26.93h11.368c12.033 0 20.141 8.3 20.141 20.141v.192c0 11.841-8.12 19.95-20.141 19.95h-11.368z" fill="#1e1e1c"/><path data-name="Path 208" d="M233.962 67.405h-36.279v-14.04h31.509V40.283h-31.509V26.728h35.806V13.646h-50.41v66.83h50.884z" fill="#1e1e1c"/><path data-name="Path 209" d="M355.104 40.396l-15.292 15.292c3.654 14.92 16.916 25.938 34.407 25.938 20.615 0 35.6-15.563 35.6-34.554v-.192a33.832 33.832 0 00-27.618-33.6l-13.529 13.538a20.548 20.548 0 015.537-.756c11.841 0 20.231 9.552 20.231 21v.192c0 11.458-8.21 20.807-20.051 20.807s-20.243-9.552-20.243-21v-.18a22.823 22.823 0 01.959-6.484z" fill="#1e1e1c"/><path data-name="Path 210" d="M473.674 35.907v-.2c0-6.3-2.008-11.548-5.729-15.27-4.4-4.4-10.984-6.766-19.476-6.766h-30.55v66.83h14.661v-21.43h11.616l14.323 21.427h17.187l-16.33-23.863c8.502-3.169 14.298-9.947 14.298-20.728zm-14.9.767c0 5.639-4.116 9.45-11.278 9.45h-14.872V26.953h14.661c7.161 0 11.559 3.248 11.559 9.552v.192z" fill="#1e1e1c"/><path data-name="Path 211" d="M307.469 66.525a23.957 23.957 0 01-5.729.688h-11.357V26.93h11.368c12.022 0 20.141 8.3 20.141 20.141v.192a23.186 23.186 0 01-.654 5.5l14.852-14.846c-3.846-14.232-16.826-24.258-34.34-24.258h-26.061v66.83h17.82z" fill="#1e1e1c"/><path data-name="Path 212" d="M90.018 47.075v.192c0 11.458-8.21 20.807-20.051 20.807s-20.243-9.552-20.243-21v-.192a22.979 22.979 0 01.891-6.485L35.368 55.688c3.654 14.92 16.916 25.938 34.407 25.938 20.615 0 35.6-15.563 35.6-34.554v-.192a33.832 33.832 0 00-27.618-33.6l-13.53 13.538a20.592 20.592 0 015.537-.756c11.852 0 20.254 9.552 20.254 21.013z" fill="#1e1e1c"/><path data-name="Path 213" d="M289.425 93.083h6.09L388.891 0h-6.1z" fill="#25fdca"/></g></svg>