<?xml version="1.0" encoding="UTF-8"?>
<svg width="332px" height="332px" viewBox="0 0 332 332" version="1.1" xmlns="http://www.w3.org/2000/svg" xmlns:xlink="http://www.w3.org/1999/xlink">
    <!-- Generator: Sketch 52.5 (67469) - http://www.bohemiancoding.com/sketch -->
    <title>Brussels Copy</title>
    <desc>Created with Sketch.</desc>
    <g id="Page-1" stroke="none" stroke-width="1" fill="none" fill-rule="evenodd">
        <g id="Brussels-Copy">
            <path d="M166,328 C76.5298705,328 4,255.470129 4,166 C4,76.5298705 76.5298705,4 166,4 C255.470129,4 328,76.5298705 328,166 C328,255.470129 255.470129,328 166,328 Z" id="White-fill" fill="#FFFFFF"></path>
            <path d="M167,290 C234.707167,290 290,234.707167 290,167 C290,98.4384892 234.851955,43 167,43 C98.2928334,43 43,98.2928334 43,167 C43,234.851955 98.4384892,290 167,290 Z M167,298 C93.8745554,298 35,239.125445 35,167 C35,93.8745554 93.8745554,35 167,35 C239.125445,35 298,93.8745554 298,167 C298,239.125445 239.125445,298 167,298 Z" id="Inner" fill="#5E59A6" fill-rule="nonzero"></path>
            <g id="Label" transform="translate(4.000000, 174.000000)">
                <path d="M0,0 L325,0 C324.831365,10.261932 323.164698,21.5952654 320,34 C316.725753,45.9356018 312.059086,57.9356018 306,70 L19,70 C12.4399798,58.3181012 7.77331309,46.6514345 5,35 C1.94944297,23.3485655 0.282776305,11.6818988 0,0 Z" id="Rectangle-5" fill="#5E59A6"></path>
                <polygon id="Line-3" fill="#000000" fill-rule="nonzero" points="19 71 19 67 306 67 306 71"></polygon>
                <polygon id="Line-3-Copy-4" fill="#000000" fill-rule="nonzero" points="2 4 2 0 323 0 323 4"></polygon>
                <text id="FULL-STACK" font-family="Roboto-Black, Roboto" font-size="45" font-weight="700" fill="#FFFFFF">
                    <tspan x="32.4987793" y="51">FULL STACK</tspan>
                </text>
            </g>
            <path d="M167,324 C253.484848,324 324,253.484848 324,167 C324,79.5151519 253.484848,9 167,9 C79.5151519,9 9,79.5151519 9,167 C9,253.484848 79.5151519,324 167,324 Z M166,332 C74.3207315,332 0,257.679268 0,166 C0,74.3207315 74.3207315,0 166,0 C257.679268,0 332,74.3207315 332,166 C332,257.679268 257.679268,332 166,332 Z" id="Outer" fill="#000000" fill-rule="nonzero"></path>
            <g id="Brussels" transform="translate(75.589365, 255.702200)">
                <path d="M0.297365424,9.19370602 L8.23513493,0.194160737 C32.6662399,21.7428583 59.9093425,32.4410023 90.2040413,32.4410023 C120.531738,32.4410023 148.348597,21.7172159 173.865035,0.11465386 L181.618796,9.2732129 C153.986909,32.6667427 123.445185,44.4410023 90.2040413,44.4410023 C56.9298996,44.4410023 26.8811414,32.6411003 0.297365424,9.19370602 Z" id="Path-5" fill="#FFFFFF" fill-rule="nonzero"></path>
                <path d="M4.87432013,15.6103961 L14.9413472,2.72518905 L19.4547096,6.2514142 C21.0181697,7.47292314 21.9700947,8.69882512 22.3105132,9.92915693 C22.6509316,11.1594887 22.3694172,12.352822 21.4659615,13.5091925 C20.9727485,14.1404764 20.3760692,14.5697704 19.6759059,14.7970875 C18.9757426,15.0244045 18.2489993,15.0242962 17.4956542,14.7967627 C18.0273723,15.4782188 18.2875952,16.2183348 18.2763307,17.0171327 C18.2650663,17.8159305 17.9759561,18.5781588 17.4089916,19.3038403 C16.4410034,20.5428087 15.312825,21.172041 14.0244227,21.1915561 C12.7360203,21.2110712 11.355649,20.6551629 9.88326739,19.5238146 L4.87432013,15.6103961 Z M11.7644262,11.6642703 L9.04715859,15.1422142 L11.3215392,16.9191551 C11.9469233,17.4077587 12.5515158,17.6402175 13.135335,17.6165384 C13.7191542,17.5928593 14.2161776,17.3184806 14.6264202,16.793394 C15.5483138,15.613424 15.4055425,14.5375255 14.198102,13.5656662 L11.7644262,11.6642703 Z M13.5365573,9.39604595 L15.5011974,10.930991 C16.8589011,11.9537408 17.9456745,11.9429791 18.7615503,10.8987058 C19.2178876,10.3146206 19.3766891,9.76174246 19.2379596,9.24005461 C19.0992301,8.71836676 18.6640812,8.17174404 17.9324999,7.60017005 L16.0740565,6.14819499 L13.5365573,9.39604595 Z M32.4752548,27.0721738 L30.0628179,25.8955497 L27.4387984,31.2755869 L24.4106349,29.7986529 L31.5786881,15.1019658 L37.0394763,17.7653702 C38.7756321,18.61215 39.9260224,19.6522046 40.4906819,20.8855654 C41.0553413,22.1189262 40.9930523,23.4421617 40.303813,24.8553118 C39.8147813,25.8579754 39.1899712,26.5882307 38.4293641,27.0460998 C37.668757,27.5039688 36.7508773,27.716437 35.6756974,27.6835108 L35.9260166,35.2401492 L35.857093,35.3814635 L32.6068642,33.796221 L32.4752548,27.0721738 Z M31.3572246,23.2755645 L33.7999432,24.466958 C34.5603525,24.8378344 35.243515,24.9315491 35.849451,24.7481048 C36.455387,24.5646606 36.9240936,24.133116 37.2555849,23.4534581 C37.5936404,22.7603417 37.6626572,22.119278 37.4626374,21.5302477 C37.2626176,20.9412174 36.7554935,20.4481431 35.9412499,20.05101 L33.5086252,18.8645397 L31.3572246,23.2755645 Z M62.8070084,26.3353565 L60.0195223,36.7383965 C59.5563922,38.4668212 58.6495802,39.6887833 57.299059,40.4043192 C55.9485378,41.1198552 54.33677,41.2266788 52.4637072,40.7247931 C50.619572,40.2306586 49.285932,39.3501174 48.4627472,38.0831432 C47.6395625,36.816169 47.4457835,35.326433 47.8814044,33.6138906 L50.7008638,23.0915248 L53.9552038,23.9635225 L51.1619043,34.3882582 C50.8848014,35.4224202 50.9304796,36.2427029 51.2989401,36.8491306 C51.6674007,37.4555583 52.2891518,37.8760017 53.164212,38.1104734 C54.9938834,38.6007324 56.1808902,37.887905 56.7252679,35.97197 L59.5418207,25.460452 L62.8070084,26.3353565 Z M79.4035073,40.5954801 C79.5030616,39.9669188 79.3576412,39.4492764 78.9672417,39.0425376 C78.5768422,38.6357988 77.8344297,38.1543612 76.7399818,37.5982103 C75.6455339,37.0420595 74.7905527,36.5295274 74.1750125,36.0605985 C72.4980369,34.7792257 71.792494,33.2992473 72.0583626,31.6206188 C72.1965674,30.7480278 72.565712,30.0086754 73.1658073,29.4025394 C73.7659026,28.7964034 74.5567191,28.3739849 75.5382804,28.1352711 C76.5198416,27.8965573 77.5837063,27.8679709 78.7299064,28.0495112 C79.8835013,28.2322226 80.8782818,28.6039219 81.7142778,29.16462 C82.5502738,29.7253182 83.1575203,30.4260199 83.5360355,31.2667462 C83.9145507,32.1074724 84.0270912,33.0121839 83.8736605,33.9809079 L80.5459995,33.4538581 C80.6631223,32.7143742 80.5212499,32.102541 80.1203782,31.6183401 C79.7195064,31.1341392 79.0975741,30.8252835 78.2545624,30.6917635 C77.4411302,30.5629285 76.7816503,30.6347175 76.276103,30.9071326 C75.7705558,31.1795478 75.4732799,31.596753 75.3842667,32.1587607 C75.3011095,32.6837943 75.4957841,33.1656514 75.9682961,33.6043464 C76.4408082,34.0430414 77.1663989,34.499074 78.14509,34.9724579 C79.9479842,35.8416947 81.2152505,36.7663219 81.9469267,37.7463672 C82.6786029,38.7264124 82.9448827,39.8449796 82.7457741,41.1021022 C82.5244121,42.4997268 81.8220572,43.5122537 80.6386882,44.1397134 C79.4553193,44.767173 77.9688816,44.9391818 76.1793306,44.6557447 C74.9369976,44.4589785 73.8416189,44.0523955 72.8931616,43.4359835 C71.9447044,42.8195716 71.2650837,42.0732959 70.8542792,41.1971341 C70.4434747,40.3209724 70.3206458,39.3615697 70.4857889,38.3188974 L73.824542,38.847704 C73.5422762,40.6298602 74.4659862,41.6895791 76.5956999,42.0268926 C77.3869476,42.152214 78.0298812,42.0891746 78.52452,41.8377728 C79.0191587,41.5863709 79.3121516,41.1722775 79.4035073,40.5954801 Z M105.195413,39.837249 C105.106843,39.207046 104.816433,38.754539 104.324173,38.4797145 C103.831913,38.20489 102.981182,37.9615494 101.771954,37.7496853 C100.562725,37.5378211 99.5952526,37.2976565 98.869507,37.0291842 C96.8911701,36.2941015 95.7837523,35.0850719 95.5472202,33.402059 C95.4242653,32.5271889 95.5611142,31.7122153 95.9577712,30.9571137 C96.3544282,30.202012 96.9871865,29.5668388 97.8560651,29.0515749 C98.7249437,28.536311 99.7339647,28.1979298 100.883158,28.0364212 C102.039766,27.8738705 103.099754,27.9384826 104.063153,28.2302593 C105.026553,28.522036 105.812131,29.0145787 106.419911,29.7079021 C107.027692,30.4012255 107.399827,31.2335018 107.536328,32.2047559 L104.199975,32.6736496 C104.095776,31.9322343 103.78122,31.3886147 103.256298,31.0427747 C102.731376,30.6969346 102.046318,30.5834098 101.201105,30.7021968 C100.385548,30.8168158 99.7758731,31.0782812 99.3720623,31.4866008 C98.9682515,31.8949204 98.8059443,32.3808108 98.8851356,32.9442865 C98.959117,33.4706914 99.2861665,33.8745762 99.8662941,34.1559532 C100.446422,34.4373302 101.273639,34.6612942 102.347969,34.8278518 C104.326226,35.1319919 105.808454,35.6457044 106.794697,36.3690049 C107.78094,37.0923055 108.362622,38.0841439 108.53976,39.34455 C108.736696,40.745825 108.361065,41.919458 107.412855,42.8654843 C106.464646,43.8115105 105.093449,44.4105956 103.299224,44.6627575 C102.053646,44.837812 100.887257,44.7692525 99.8000209,44.4570769 C98.7127852,44.1449013 97.8446708,43.6299361 97.1956516,42.9121661 C96.5466324,42.194396 96.1486684,41.3128264 96.0017477,40.2674308 L99.3492212,39.796974 C99.6003411,41.583785 100.793521,42.3271326 102.928797,42.0270391 C103.722112,41.9155461 104.318521,41.6672857 104.718044,41.2822505 C105.117567,40.8972154 105.276688,40.415553 105.195413,39.837249 Z M131.33106,32.18201 L125.252424,34.3944529 L126.750432,38.5101964 L133.884387,35.913649 L134.810079,38.4569674 L124.510167,42.2058288 L118.917604,26.8403862 L129.196409,23.0992069 L130.129784,25.6636317 L123.016934,28.2524971 L124.349778,31.9144535 L130.428414,29.7020107 L131.33106,32.18201 Z M150.870102,28.8943448 L157.065482,25.3174405 L158.418754,27.6613754 L149.305612,32.92285 L141.129831,18.7619815 L144.047593,17.0774112 L150.870102,28.8943448 Z M171.222648,14.4753289 C170.848583,13.9604734 170.379727,13.6972728 169.816065,13.6857191 C169.252403,13.6741655 168.387011,13.8587026 167.219861,14.2393361 C166.052711,14.6199696 165.085733,14.8621177 164.318898,14.9657876 C162.22703,15.245521 160.681633,14.6979124 159.682661,13.3229453 C159.163371,12.6082047 158.901595,11.824379 158.897323,10.9714446 C158.893052,10.1185103 159.153549,9.26062359 159.678821,8.3977588 C160.204094,7.534894 160.936146,6.76241445 161.875,6.08029697 C162.819911,5.39377873 163.786159,4.95319373 164.77377,4.75852875 C165.761382,4.56386377 166.686241,4.62994658 167.548375,4.95677915 C168.410509,5.28361173 169.129815,5.84376121 169.706314,6.63724442 L166.980622,8.61757559 C166.540547,8.01186322 166.007596,7.67955072 165.381755,7.6206281 C164.755915,7.56170549 164.097748,7.78308406 163.407236,8.28477047 C162.740952,8.76885384 162.325392,9.28593902 162.160543,9.8360415 C161.995693,10.386144 162.080496,10.8913584 162.414954,11.3516997 C162.727408,11.7817555 163.205788,11.9848242 163.850109,11.960912 C164.494429,11.9369997 165.329963,11.7463934 166.356735,11.3890872 C168.246217,10.7288917 169.79612,10.4866093 171.00649,10.6622327 C172.21686,10.8378561 173.196094,11.4405143 173.944223,12.4702253 C174.775966,13.6150217 174.995291,14.8276263 174.602204,16.1080755 C174.209117,17.3885247 173.279675,18.5612234 171.813851,19.6262068 C170.796254,20.3655341 169.734207,20.8525862 168.627677,21.0873777 C167.521148,21.3221692 166.512887,21.275037 165.602864,20.9459797 C164.692842,20.6169225 163.927588,20.0253755 163.307081,19.171321 L166.041859,17.1843888 C167.102442,18.6441556 168.504938,18.7403284 170.249389,17.4729101 C170.897502,17.002029 171.307549,16.5028308 171.479543,15.9753004 C171.651538,15.44777 171.565907,14.9477845 171.222648,14.4753289 Z" id="BRUSSELS" fill="#000000"></path>
            </g>
            <g id="Kerk" transform="translate(216.000000, 96.000000)">
                <polyline id="Fill-61" fill="#FFFFFF" points="28 27 29.5 18 31 27 28 27"></polyline>
                <polygon id="Stroke-62" stroke="#000000" stroke-width="0.924" points="28 27 29.5 18 31 27"></polygon>
                <polyline id="Fill-63" fill="#FFFFFF" points="36 27 37.5 18 39 27 36 27"></polyline>
                <polygon id="Stroke-64" stroke="#000000" stroke-width="0.924" points="36 27 37.5 18 39 27"></polygon>
                <polyline id="Fill-65" fill="#FFFFFF" points="36.1281937 21.3893118 36.1281937 14 31.8718063 14 31.8718063 21.3893118 24 28.5448163 24 79 44 79 44 28.5448163 36.1281937 21.3893118"></polyline>
                <polygon id="Stroke-66" stroke="#000000" stroke-width="1.848" points="36.1281937 21.3893118 36.1281937 14 31.8718063 14 31.8718063 21.3893118 24 28.5448163 24 79 44 79 44 28.5448163"></polygon>
                <path d="M29,30 C29,30 28,30.7357538 28,32.6669873 L28,38 L30,38 L30,32.6669873 C30,30.7357538 29,30 29,30" id="Fill-68" fill="#D8D8D8"></path>
                <path d="M32.0001585,30 C32.0001585,30 31,30.7357538 31,32.6669873 L31,38 L33,38 L33,32.6669873 C33,30.7357538 32.0001585,30 32.0001585,30" id="Fill-70" fill="#D8D8D8"></path>
                <path d="M36.0001585,30 C36.0001585,30 35,30.7357538 35,32.6669873 L35,38 L37,38 L37,32.6669873 C37,30.7357538 36.0001585,30 36.0001585,30" id="Fill-72" fill="#D8D8D8"></path>
                <path d="M39,30 C39,30 38,30.7357538 38,32.6669873 L38,38 L40,38 L40,32.6669873 C40,30.7357538 39,30 39,30" id="Fill-74" fill="#D8D8D8"></path>
                <g id="Group-2" transform="translate(28.000000, 40.000000)">
                    <path d="M6.11250732,0.52928929 C6.11250732,0.52928929 0.254583333,1.92832298 0.254583333,5.60013288 L0.254583333,18.9750672 L11.9708333,18.9750672 L11.9708333,5.60013288 C11.9708333,1.92832298 6.11250732,0.52928929 6.11250732,0.52928929" id="Fill-76" fill="#D8D8D8"></path>
                    <path d="M6.11250732,0.52928929 C6.11250732,0.52928929 0.254583333,1.92832298 0.254583333,5.60013288 L0.254583333,18.9750672 L11.9708333,18.9750672 L11.9708333,5.60013288 C11.9708333,1.92832298 6.11250732,0.52928929 6.11250732,0.52928929 Z" id="Stroke-77" stroke="#FFFFFF" stroke-width="0.924"></path>
                    <path d="M0.396146373,6.31917899 L11.9708333,6.31917899" id="Stroke-92" stroke="#FFFFFF" stroke-width="0.924"></path>
                    <path d="M2.71770725,2.34689516 L5.57085924,6.31917899" id="Stroke-94" stroke="#FFFFFF" stroke-width="0.924"></path>
                    <path d="M9.50734456,2.07410051 L6.65419257,6.04607679" id="Stroke-96" stroke="#FFFFFF" stroke-width="0.924"></path>
                </g>
                <path d="M33.9998332,63 C33.9998332,63 28,64.4711611 28,68.3332301 L28,79 L40,79 L40,68.3332301 C40,64.4711611 33.9998332,63 33.9998332,63" id="Fill-78" fill="#FFFFFF"></path>
                <path d="M33.9998332,63 C33.9998332,63 28,64.4711611 28,68.3332301 L28,79 L40,79 L40,68.3332301 C40,64.4711611 33.9998332,63 33.9998332,63 Z" id="Stroke-79" stroke="#000000" stroke-width="1.848"></path>
                <polygon id="Fill-81" fill="#D8D8D8" points="35 77 37 77 37 72 35 72"></polygon>
                <polygon id="Stroke-82" stroke="#D8D8D8" stroke-width="0.924" points="35 77 37 77 37 72 35 72"></polygon>
                <polygon id="Fill-84" fill="#D8D8D8" points="31 77 33 77 33 72 31 72"></polygon>
                <polygon id="Stroke-85" stroke="#D8D8D8" stroke-width="0.924" points="31 77 33 77 33 72 31 72"></polygon>
                <polyline id="Fill-87" fill="#FFFFFF" points="32 14 33.5 5 35 14 32 14"></polyline>
                <polygon id="Stroke-88" stroke="#000000" stroke-width="1.848" points="32 14 34.0488675 5 36 14"></polygon>
                <polyline id="Fill-89" fill="#FFFFFF" points="31 64 34.4998394 53 38 64 31 64"></polyline>
                <polygon id="Stroke-90" stroke="#000000" stroke-width="1.848" points="31 64 34.4998394 53 38 64"></polygon>
                <path d="M31,42 L34,46" id="Fill-93" fill="#FFFFFF"></path>
                <polygon id="Fill-97" fill="#FFFFFF" points="6 2 21 2 21 0 6 0"></polygon>
                <polygon id="Stroke-98" stroke="#000000" stroke-width="1.848" points="6 2 21 2 21 0 6 0"></polygon>
                <polygon id="Fill-99" fill="#FFFFFF" points="4 5 22 5 22 2 4 2"></polygon>
                <polygon id="Stroke-100" stroke="#000000" stroke-width="1.848" points="4 5 22 5 22 2 4 2"></polygon>
                <polyline id="Fill-101" fill="#FFFFFF" points="24.4336961 61.2836807 24.4336961 29.8029093 23.4938423 29.8029093 23.4938423 7.4308887 20.6749962 5 5.32536155 5 2.50615772 7.4308887 2.50615772 29.8029093 1.56630385 29.8029093 1.56630385 61.2836807 0 61.2836807 0 79 26 79 26 61.2836807 24.4336961 61.2836807"></polyline>
                <polygon id="Stroke-102" stroke="#000000" stroke-width="1.848" points="24.4336961 61.2836807 24.4336961 29.8029093 23.4938423 29.8029093 23.4938423 7.4308887 20.6749962 5 5.32536155 5 2.50615772 7.4308887 2.50615772 29.8029093 1.56630385 29.8029093 1.56630385 61.2836807 0 61.2836807 0 79 26 79 26 61.2836807"></polygon>
                <path d="M9.49984425,7 C9.49984425,7 8,8.10333963 8,11 L8,19 L11,19 L11,11 C11,8.10333963 9.49984425,7 9.49984425,7" id="Fill-104" fill="#D8D8D8"></path>
                <path d="M9.49984425,7 C9.49984425,7 8,8.10333963 8,11 L8,19 L11,19 L11,11 C11,8.10333963 9.49984425,7 9.49984425,7 Z" id="Stroke-105" stroke="#D8D8D8" stroke-width="0.924"></path>
                <path d="M16.5,7 C16.5,7 15,8.10333963 15,11 L15,19 L18,19 L18,11 C18,8.10333963 16.5,7 16.5,7" id="Fill-106" fill="#D8D8D8"></path>
                <path d="M16.5,7 C16.5,7 15,8.10333963 15,11 L15,19 L18,19 L18,11 C18,8.10333963 16.5,7 16.5,7 Z" id="Stroke-107" stroke="#D8D8D8" stroke-width="0.924"></path>
                <path d="M13.0001599,42 C13.0001599,42 11,43.3795997 11,47.0004044 L11,57 L15,57 L15,47.0004044 C15,43.3795997 13.0001599,42 13.0001599,42" id="Fill-108" fill="#D8D8D8"></path>
                <path d="M13.0001599,42 C13.0001599,42 11,43.3795997 11,47.0004044 L11,57 L15,57 L15,47.0004044 C15,43.3795997 13.0001599,42 13.0001599,42 Z" id="Stroke-109" stroke="#D8D8D8" stroke-width="0.924"></path>
                <path d="M13.500174,65 C13.500174,65 8,66.2874409 8,69.6667733 L8,79 L19,79 L19,69.6667733 C19,66.2874409 13.500174,65 13.500174,65 Z" id="Stroke-111" stroke="#000000" stroke-width="1.848"></path>
                <polygon id="Fill-113" fill="#D8D8D8" points="14 77 16 77 16 72 14 72"></polygon>
                <polygon id="Stroke-114" stroke="#D8D8D8" stroke-width="0.924" points="14 77 16 77 16 72 14 72"></polygon>
                <polygon id="Fill-116" fill="#D8D8D8" points="10 77 12 77 12 72 10 72"></polygon>
                <polygon id="Stroke-117" stroke="#D8D8D8" stroke-width="0.924" points="10 77 12 77 12 72 10 72"></polygon>
                <path d="M3,30 L24,30" id="Fill-119" fill="#FFFFFF"></path>
                <path d="M2,61 L25,61" id="Fill-121" fill="#FFFFFF"></path>
                <path d="M2,61 L25,61" id="Stroke-122" stroke="#000000" stroke-width="1.848"></path>
                <path d="M9.49984425,26 C9.49984425,26 8,27.1033686 8,30.000105 L8,38 L11,38 L11,30.000105 C11,27.1033686 9.49984425,26 9.49984425,26" id="Fill-123" fill="#D8D8D8"></path>
                <path d="M9.49984425,26 C9.49984425,26 8,27.1033686 8,30.000105 L8,38 L11,38 L11,30.000105 C11,27.1033686 9.49984425,26 9.49984425,26 Z" id="Stroke-124" stroke="#D8D8D8" stroke-width="0.924"></path>
                <path d="M16.5,26 C16.5,26 15,27.1033686 15,30.000105 L15,38 L18,38 L18,30.000105 C18,27.1033686 16.5,26 16.5,26" id="Fill-125" fill="#D8D8D8"></path>
                <path d="M16.5,26 C16.5,26 15,27.1033686 15,30.000105 L15,38 L18,38 L18,30.000105 C18,27.1033686 16.5,26 16.5,26 Z" id="Stroke-126" stroke="#D8D8D8" stroke-width="0.924"></path>
                <polygon id="Fill-127" fill="#FFFFFF" points="48 2 63 2 63 0 48 0"></polygon>
                <polygon id="Stroke-128" stroke="#000000" stroke-width="1.848" points="48 2 63 2 63 0 48 0"></polygon>
                <polygon id="Fill-129" fill="#FFFFFF" points="46 5 64 5 64 2 46 2"></polygon>
                <polygon id="Stroke-130" stroke="#000000" stroke-width="1.848" points="46 5 64 5 64 2 46 2"></polygon>
                <polyline id="Fill-131" fill="#FFFFFF" points="66.4340324 61.2836807 66.4340324 29.8029093 65.4941656 29.8029093 65.4941656 7.4308887 62.6749229 5 47.3250771 5 44.5061922 7.4308887 44.5061922 29.8029093 43.5663254 29.8029093 43.5663254 61.2836807 42 61.2836807 42 79 68 79 68 61.2836807 66.4340324 61.2836807"></polyline>
                <polygon id="Stroke-132" stroke="#000000" stroke-width="1.848" points="66.4340324 61.2836807 66.4340324 29.8029093 65.4941656 29.8029093 65.4941656 7.4308887 62.6749229 5 47.3250771 5 44.5061922 7.4308887 44.5061922 29.8029093 43.5663254 29.8029093 43.5663254 61.2836807 42 61.2836807 42 79 68 79 68 61.2836807"></polygon>
                <path d="M51.5,7 C51.5,7 50,8.10333963 50,11 L50,19 L53,19 L53,11 C53,8.10333963 51.5,7 51.5,7" id="Fill-134" fill="#D8D8D8"></path>
                <path d="M51.5,7 C51.5,7 50,8.10333963 50,11 L50,19 L53,19 L53,11 C53,8.10333963 51.5,7 51.5,7 Z" id="Stroke-135" stroke="#D8D8D8" stroke-width="0.924"></path>
                <path d="M58.5001557,7 C58.5001557,7 57,8.10333963 57,11 L57,19 L60,19 L60,11 C60,8.10333963 58.5001557,7 58.5001557,7" id="Fill-136" fill="#D8D8D8"></path>
                <path d="M58.5001557,7 C58.5001557,7 57,8.10333963 57,11 L57,19 L60,19 L60,11 C60,8.10333963 58.5001557,7 58.5001557,7 Z" id="Stroke-137" stroke="#D8D8D8" stroke-width="0.924"></path>
                <path d="M55.0003198,42 C55.0003198,42 53,43.3795997 53,47.0004044 L53,57 L57,57 L57,47.0004044 C57,43.3795997 55.0003198,42 55.0003198,42" id="Fill-138" fill="#D8D8D8"></path>
                <path d="M55.0003198,42 C55.0003198,42 53,43.3795997 53,47.0004044 L53,57 L57,57 L57,47.0004044 C57,43.3795997 55.0003198,42 55.0003198,42 Z" id="Stroke-139" stroke="#D8D8D8" stroke-width="0.924"></path>
                <path d="M55.5003481,65 C55.5003481,65 50,66.2874409 50,69.6667733 L50,79 L61,79 L61,69.6667733 C61,66.2874409 55.5003481,65 55.5003481,65" id="Fill-140" fill="#FFFFFF"></path>
                <path d="M55.5003481,65 C55.5003481,65 50,66.2874409 50,69.6667733 L50,79 L61,79 L61,69.6667733 C61,66.2874409 55.5003481,65 55.5003481,65 Z" id="Stroke-141" stroke="#000000" stroke-width="1.848"></path>
                <polygon id="Fill-143" fill="#D8D8D8" points="56 77 58 77 58 72 56 72"></polygon>
                <polygon id="Stroke-144" stroke="#D8D8D8" stroke-width="0.924" points="56 77 58 77 58 72 56 72"></polygon>
                <polygon id="Fill-146" fill="#D8D8D8" points="52 77 54 77 54 72 52 72"></polygon>
                <polygon id="Stroke-147" stroke="#D8D8D8" stroke-width="0.924" points="52 77 54 77 54 72 52 72"></polygon>
                <path d="M45,30 L66,30" id="Fill-149" fill="#FFFFFF"></path>
                <path d="M44,61 L67,61" id="Fill-151" fill="#FFFFFF"></path>
                <path d="M44,61 L67,61" id="Stroke-152" stroke="#000000" stroke-width="1.848"></path>
                <path d="M51.5,26 C51.5,26 50,27.1033686 50,30.000105 L50,38 L53,38 L53,30.000105 C53,27.1033686 51.5,26 51.5,26" id="Fill-153" fill="#D8D8D8"></path>
                <path d="M51.5,26 C51.5,26 50,27.1033686 50,30.000105 L50,38 L53,38 L53,30.000105 C53,27.1033686 51.5,26 51.5,26 Z" id="Stroke-154" stroke="#D8D8D8" stroke-width="0.924"></path>
                <path d="M58.5001557,26 C58.5001557,26 57,27.1033686 57,30.000105 L57,38 L60,38 L60,30.000105 C60,27.1033686 58.5001557,26 58.5001557,26" id="Fill-155" fill="#D8D8D8"></path>
                <path d="M58.5001557,26 C58.5001557,26 57,27.1033686 57,30.000105 L57,38 L60,38 L60,30.000105 C60,27.1033686 58.5001557,26 58.5001557,26 Z" id="Path" stroke="#D8D8D8" stroke-width="0.924"></path>
            </g>
            <g id="Mosque" transform="translate(39.000000, 90.000000)">
                <polygon id="Fill-286" fill="#FFFFFF" points="24.2260244 80.6875349 54.8179073 80.6875349 54.8179073 21.7366744 24.2260244 21.7366744"></polygon>
                <polygon id="Fill-286" fill="#D8D8D8" points="24.2260244 80.6875349 54.8179073 80.6875349 54.8179073 46.9218596 24.2260244 46.9218596"></polygon>
                <polygon id="Stroke-287" stroke="#000000" stroke-width="1.547" points="24.2260244 80.6875349 54.8179073 80.6875349 54.8179073 21.7366744 24.2260244 21.7366744"></polygon>
                <path d="M39.5219659,7.8872093 C32.0836341,7.8872093 26.0538146,14.4725349 26.0538146,22.5957674 L52.9905024,22.5957674 C52.9905024,14.4725349 46.9602976,7.8872093 39.5219659,7.8872093" id="Fill-289" fill="#D8D8D8"></path>
                <path d="M39.5219659,7.8872093 C32.0836341,7.8872093 26.0538146,14.4725349 26.0538146,22.5957674 L52.9905024,22.5957674 C52.9905024,14.4725349 46.9602976,7.8872093 39.5219659,7.8872093 Z" id="Stroke-290" stroke="#000000" stroke-width="1.547"></path>
                <path d="M39.5219659,0.309953488 C37.4934,0.309953488 35.8486585,2.10602326 35.8486585,4.32116279 L43.1952732,4.32116279 C43.1952732,2.10602326 41.5505317,0.309953488 39.5219659,0.309953488" id="Fill-291" fill="#D8D8D8"></path>
                <path d="M39.5219659,0.309953488 C37.4934,0.309953488 35.8486585,2.10602326 35.8486585,4.32116279 L43.1952732,4.32116279 C43.1952732,2.10602326 41.5505317,0.309953488 39.5219659,0.309953488 Z" id="Stroke-292" stroke="#000000" stroke-width="1.547"></path>
                <polygon id="Fill-293" fill="#FFFFFF" points="35.9014537 7.8872093 43.142478 7.8872093 43.142478 4.32116279 35.9014537 4.32116279"></polygon>
                <polygon id="Stroke-294" stroke="#000000" stroke-width="1.547" points="35.9014537 7.8872093 43.142478 7.8872093 43.142478 4.32116279 35.9014537 4.32116279"></polygon>
                <path d="M39.5219659,70.7184186 C38.2155756,70.7184186 37.1565902,71.8744186 37.1565902,73.3012326 L37.1565902,84.7145581 L41.8873415,84.7145581 L41.8873415,73.3012326 C41.8873415,71.8744186 40.8283561,70.7184186 39.5219659,70.7184186" id="Fill-295" fill="#FFFFFF"></path>
                <path d="M39.5219659,70.7184186 C38.2155756,70.7184186 37.1565902,71.8744186 37.1565902,73.3012326 L37.1565902,84.7145581 L41.8873415,84.7145581 L41.8873415,73.3012326 C41.8873415,71.8744186 40.8283561,70.7184186 39.5219659,70.7184186 Z" id="Stroke-296" stroke="#000000" stroke-width="1.547"></path>
                <path d="M33.1977268,70.7184186 C32.2478,70.7184186 31.477839,71.8744186 31.477839,73.3012326 L31.477839,84.7145581 L34.918,84.7145581 L34.918,73.3012326 C34.918,71.8744186 34.148039,70.7184186 33.1977268,70.7184186" id="Fill-298" fill="#FFFFFF"></path>
                <path d="M33.1977268,70.7184186 C32.2478,70.7184186 31.477839,71.8744186 31.477839,73.3012326 L31.477839,84.7145581 L34.918,84.7145581 L34.918,73.3012326 C34.918,71.8744186 34.148039,70.7184186 33.1977268,70.7184186 Z" id="Stroke-299" stroke="#000000" stroke-width="1.547"></path>
                <path d="M45.8462049,70.7184186 C44.8958927,70.7184186 44.1259317,71.8744186 44.1259317,73.3012326 L44.1259317,84.7145581 L47.566478,84.7145581 L47.566478,73.3012326 C47.566478,71.8744186 46.7961317,70.7184186 45.8462049,70.7184186" id="Fill-301" fill="#FFFFFF"></path>
                <path d="M45.8462049,70.7184186 C44.8958927,70.7184186 44.1259317,71.8744186 44.1259317,73.3012326 L44.1259317,84.7145581 L47.566478,84.7145581 L47.566478,73.3012326 C47.566478,71.8744186 46.7961317,70.7184186 45.8462049,70.7184186 Z" id="Stroke-302" stroke="#000000" stroke-width="1.547"></path>
                <path d="M29.3402146,25.5525814 L29.3402146,29.7274651 L31.4905561,29.7274651 L31.4905561,25.5525814 C31.4905561,24.9042093 31.0092341,24.3787907 30.4153854,24.3787907 C29.8215366,24.3787907 29.3402146,24.9042093 29.3402146,25.5525814 Z" id="Fill-304" fill="#D8D8D8"></path>
                <path d="M30.4153854,24.3787907 C29.8215366,24.3787907 29.3402146,24.9042093 29.3402146,25.5525814 L29.3402146,29.7274651 L31.4905561,29.7274651 L31.4905561,25.5525814 C31.4905561,24.9042093 31.0092341,24.3787907 30.4153854,24.3787907 Z" id="Stroke-305" stroke="#D8D8D8" stroke-width="0.7735"></path>
                <path d="M34.0578634,24.3787907 C33.4644,24.3787907 32.983078,24.9042093 32.983078,25.5525814 L32.983078,29.7274651 L35.1330341,29.7274651 L35.1330341,25.5525814 C35.1330341,24.9042093 34.6517122,24.3787907 34.0578634,24.3787907" id="Fill-306" fill="#D8D8D8"></path>
                <path d="M34.0578634,24.3787907 C33.4644,24.3787907 32.983078,24.9042093 32.983078,25.5525814 L32.983078,29.7274651 L35.1330341,29.7274651 L35.1330341,25.5525814 C35.1330341,24.9042093 34.6517122,24.3787907 34.0578634,24.3787907 Z" id="Stroke-307" stroke="#D8D8D8" stroke-width="0.7735"></path>
                <path d="M37.7007268,24.3787907 C37.106878,24.3787907 36.6255561,24.9042093 36.6255561,25.5525814 L36.6255561,29.7274651 L38.7758976,29.7274651 L38.7758976,25.5525814 C38.7758976,24.9042093 38.2945756,24.3787907 37.7007268,24.3787907" id="Fill-308" fill="#D8D8D8"></path>
                <path d="M37.7007268,24.3787907 C37.106878,24.3787907 36.6255561,24.9042093 36.6255561,25.5525814 L36.6255561,29.7274651 L38.7758976,29.7274651 L38.7758976,25.5525814 C38.7758976,24.9042093 38.2945756,24.3787907 37.7007268,24.3787907 Z" id="Stroke-309" stroke="#D8D8D8" stroke-width="0.7735"></path>
                <path d="M41.3435902,24.3787907 C40.7497415,24.3787907 40.2684195,24.9042093 40.2684195,25.5525814 L40.2684195,29.7274651 L42.4183756,29.7274651 L42.4183756,25.5525814 C42.4183756,24.9042093 41.9370537,24.3787907 41.3435902,24.3787907" id="Fill-310" fill="#D8D8D8"></path>
                <path d="M41.3435902,24.3787907 C40.7497415,24.3787907 40.2684195,24.9042093 40.2684195,25.5525814 L40.2684195,29.7274651 L42.4183756,29.7274651 L42.4183756,25.5525814 C42.4183756,24.9042093 41.9370537,24.3787907 41.3435902,24.3787907 Z" id="Stroke-311" stroke="#D8D8D8" stroke-width="0.7735"></path>
                <path d="M44.9860683,24.3787907 C44.3922195,24.3787907 43.9108976,24.9042093 43.9108976,25.5525814 L43.9108976,29.7274651 L46.061239,29.7274651 L46.061239,25.5525814 C46.061239,24.9042093 45.5799171,24.3787907 44.9860683,24.3787907" id="Fill-312" fill="#D8D8D8"></path>
                <path d="M44.9860683,24.3787907 C44.3922195,24.3787907 43.9108976,24.9042093 43.9108976,25.5525814 L43.9108976,29.7274651 L46.061239,29.7274651 L46.061239,25.5525814 C46.061239,24.9042093 45.5799171,24.3787907 44.9860683,24.3787907 Z" id="Stroke-313" stroke="#D8D8D8" stroke-width="0.7735"></path>
                <path d="M48.6285463,24.3787907 C48.0346976,24.3787907 47.553761,24.9042093 47.553761,25.5525814 L47.553761,29.7274651 L49.7041024,29.7274651 L49.7041024,25.5525814 C49.7041024,24.9042093 49.2223951,24.3787907 48.6285463,24.3787907" id="Fill-314" fill="#D8D8D8"></path>
                <path d="M48.6285463,24.3787907 C48.0346976,24.3787907 47.553761,24.9042093 47.553761,25.5525814 L47.553761,29.7274651 L49.7041024,29.7274651 L49.7041024,25.5525814 C49.7041024,24.9042093 49.2223951,24.3787907 48.6285463,24.3787907 Z" id="Stroke-315" stroke="#D8D8D8" stroke-width="0.7735"></path>
                <path d="M30.4153854,32.5502558 C29.8215366,32.5502558 29.3402146,33.0760698 29.3402146,33.7240465 L29.3402146,37.8989302 L31.4905561,37.8989302 L31.4905561,33.7240465 C31.4905561,33.0760698 31.0092341,32.5502558 30.4153854,32.5502558" id="Fill-316" fill="#D8D8D8"></path>
                <path d="M30.4153854,32.5502558 C29.8215366,32.5502558 29.3402146,33.0760698 29.3402146,33.7240465 L29.3402146,37.8989302 L31.4905561,37.8989302 L31.4905561,33.7240465 C31.4905561,33.0760698 31.0092341,32.5502558 30.4153854,32.5502558 Z" id="Stroke-317" stroke="#D8D8D8" stroke-width="0.7735"></path>
                <path d="M34.0578634,32.5502558 C33.4644,32.5502558 32.983078,33.0760698 32.983078,33.7240465 L32.983078,37.8989302 L35.1330341,37.8989302 L35.1330341,33.7240465 C35.1330341,33.0760698 34.6517122,32.5502558 34.0578634,32.5502558" id="Fill-318" fill="#D8D8D8"></path>
                <path d="M34.0578634,32.5502558 C33.4644,32.5502558 32.983078,33.0760698 32.983078,33.7240465 L32.983078,37.8989302 L35.1330341,37.8989302 L35.1330341,33.7240465 C35.1330341,33.0760698 34.6517122,32.5502558 34.0578634,32.5502558 Z" id="Stroke-319" stroke="#D8D8D8" stroke-width="0.7735"></path>
                <path d="M37.7007268,32.5502558 C37.106878,32.5502558 36.6255561,33.0760698 36.6255561,33.7240465 L36.6255561,37.8989302 L38.7758976,37.8989302 L38.7758976,33.7240465 C38.7758976,33.0760698 38.2945756,32.5502558 37.7007268,32.5502558" id="Fill-320" fill="#D8D8D8"></path>
                <path d="M37.7007268,32.5502558 C37.106878,32.5502558 36.6255561,33.0760698 36.6255561,33.7240465 L36.6255561,37.8989302 L38.7758976,37.8989302 L38.7758976,33.7240465 C38.7758976,33.0760698 38.2945756,32.5502558 37.7007268,32.5502558 Z" id="Stroke-321" stroke="#D8D8D8" stroke-width="0.7735"></path>
                <path d="M41.3435902,32.5502558 C40.7497415,32.5502558 40.2684195,33.0760698 40.2684195,33.7240465 L40.2684195,37.8989302 L42.4183756,37.8989302 L42.4183756,33.7240465 C42.4183756,33.0760698 41.9370537,32.5502558 41.3435902,32.5502558" id="Fill-322" fill="#D8D8D8"></path>
                <path d="M41.3435902,32.5502558 C40.7497415,32.5502558 40.2684195,33.0760698 40.2684195,33.7240465 L40.2684195,37.8989302 L42.4183756,37.8989302 L42.4183756,33.7240465 C42.4183756,33.0760698 41.9370537,32.5502558 41.3435902,32.5502558 Z" id="Stroke-323" stroke="#D8D8D8" stroke-width="0.7735"></path>
                <path d="M44.9860683,32.5502558 C44.3922195,32.5502558 43.9108976,33.0760698 43.9108976,33.7240465 L43.9108976,37.8989302 L46.061239,37.8989302 L46.061239,33.7240465 C46.061239,33.0760698 45.5799171,32.5502558 44.9860683,32.5502558" id="Fill-324" fill="#D8D8D8"></path>
                <path d="M44.9860683,32.5502558 C44.3922195,32.5502558 43.9108976,33.0760698 43.9108976,33.7240465 L43.9108976,37.8989302 L46.061239,37.8989302 L46.061239,33.7240465 C46.061239,33.0760698 45.5799171,32.5502558 44.9860683,32.5502558 Z" id="Stroke-325" stroke="#D8D8D8" stroke-width="0.7735"></path>
                <path d="M48.6285463,32.5502558 C48.0346976,32.5502558 47.553761,33.0760698 47.553761,33.7240465 L47.553761,37.8989302 L49.7041024,37.8989302 L49.7041024,33.7240465 C49.7041024,33.0760698 49.2223951,32.5502558 48.6285463,32.5502558" id="Fill-326" fill="#D8D8D8"></path>
                <path d="M48.6285463,32.5502558 C48.0346976,32.5502558 47.553761,33.0760698 47.553761,33.7240465 L47.553761,37.8989302 L49.7041024,37.8989302 L49.7041024,33.7240465 C49.7041024,33.0760698 49.2223951,32.5502558 48.6285463,32.5502558 Z" id="Stroke-327" stroke="#D8D8D8" stroke-width="0.7735"></path>
                <polyline id="Fill-328" fill="#D8D8D8" points="39.5219659 34.8163953 49.3187366 46.6725116 29.7255805 46.6725116 39.5219659 34.8163953"></polyline>
                <polygon id="Stroke-329" stroke="#000000" stroke-width="1.547" points="39.5219659 34.8163953 49.3187366 46.6725116 29.7255805 46.6725116"></polygon>
                <path d="M10.0746195,60.036093 C9.88810244,57.3793488 7.73352195,55.2820233 5.09646341,55.2820233 C2.45901951,55.2820233 0.304439024,57.3793488 0.118307317,60.036093 L10.0746195,60.036093" id="Fill-330" fill="#D8D8D8"></path>
                <path d="M10.0746195,60.036093 C9.88810244,57.3793488 7.73352195,55.2820233 5.09646341,55.2820233 C2.45901951,55.2820233 0.304439024,57.3793488 0.118307317,60.036093 L10.0746195,60.036093 Z" id="Stroke-331" stroke="#000000" stroke-width="1.547"></path>
                <polygon id="Fill-332" fill="#FFFFFF" points="0.118307317 84.9964419 6.61673171 84.9964419 6.61673171 60.036093 0.118307317 60.036093"></polygon>
                <polygon id="Stroke-333" stroke="#000000" stroke-width="1.547" points="0.118307317 84.9964419 6.61673171 84.9964419 6.61673171 60.036093 0.118307317 60.036093"></polygon>
                <polygon id="Fill-335" fill="#FFFFFF" points="6.61673171 84.9964419 15.1610634 84.9964419 15.1610634 48.0020698 6.61673171 48.0020698"></polygon>
                <polygon id="Stroke-336" stroke="#000000" stroke-width="1.547" points="6.61673171 84.9964419 15.1610634 84.9964419 15.1610634 48.0020698 6.61673171 48.0020698"></polygon>
                <path d="M11.9270732,60.6682558 C10.6206829,60.6682558 9.56169756,61.8246512 9.56169756,63.2514651 L9.56169756,67.6663256 L14.2924488,67.6663256 L14.2924488,63.2514651 C14.2924488,61.8246512 13.2334634,60.6682558 11.9270732,60.6682558" id="Fill-338" fill="#D8D8D8"></path>
                <path d="M11.9270732,60.6682558 C10.6206829,60.6682558 9.56169756,61.8246512 9.56169756,63.2514651 L9.56169756,67.6663256 L14.2924488,67.6663256 L14.2924488,63.2514651 C14.2924488,61.8246512 13.2334634,60.6682558 11.9270732,60.6682558 Z" id="Stroke-339" stroke="#000000" stroke-width="1.547"></path>
                <path d="M11.9270732,70.7334419 C10.6206829,70.7334419 9.56169756,71.8902326 9.56169756,73.3166512 L9.56169756,77.7315116 L14.2924488,77.7315116 L14.2924488,73.3166512 C14.2924488,71.8902326 13.2334634,70.7334419 11.9270732,70.7334419" id="Fill-340" fill="#D8D8D8"></path>
                <path d="M11.9270732,70.7334419 C10.6206829,70.7334419 9.56169756,71.8902326 9.56169756,73.3166512 L9.56169756,77.7315116 L14.2924488,77.7315116 L14.2924488,73.3166512 C14.2924488,71.8902326 13.2334634,70.7334419 11.9270732,70.7334419 Z" id="Stroke-341" stroke="#000000" stroke-width="1.547"></path>
                <path d="M21.9677805,6.99569767 C19.9392146,6.99569767 18.2948585,8.79176744 18.2948585,11.006907 L25.6410878,11.006907 C25.6410878,8.79176744 23.9967317,6.99569767 21.9677805,6.99569767" id="Fill-342" fill="#D8D8D8"></path>
                <path d="M21.9677805,6.99569767 C19.9392146,6.99569767 18.2948585,8.79176744 18.2948585,11.006907 L25.6410878,11.006907 C25.6410878,8.79176744 23.9967317,6.99569767 21.9677805,6.99569767 Z" id="Stroke-343" stroke="#000000" stroke-width="1.547"></path>
                <polygon id="Fill-344" fill="#FFFFFF" points="18.2948585 25.2703023 25.6410878 25.2703023 25.6410878 11.006907 18.2948585 11.006907"></polygon>
                <polygon id="Stroke-345" stroke="#000000" stroke-width="1.547" points="18.2948585 25.2703023 25.6410878 25.2703023 25.6410878 11.006907 18.2948585 11.006907"></polygon>
                <polygon id="Fill-346" fill="#FFFFFF" points="16.7545512 32.5502558 27.1817805 32.5502558 27.1817805 25.2703023 16.7545512 25.2703023"></polygon>
                <polygon id="Stroke-347" stroke="#000000" stroke-width="1.547" points="16.7545512 32.5502558 27.1817805 32.5502558 27.1817805 25.2703023 16.7545512 25.2703023"></polygon>
                <polygon id="Fill-348" fill="#FFFFFF" points="15.1614488 80.6875349 28.7748829 80.6875349 28.7748829 32.5502558 15.1614488 32.5502558"></polygon>
                <polygon id="Stroke-349" stroke="#000000" stroke-width="1.547" points="15.1614488 80.6875349 28.7748829 80.6875349 28.7748829 32.5502558 15.1614488 32.5502558"></polygon>
                <polyline id="Fill-351" fill="#D8D8D8" points="18.7607659 42.7913721 21.9677805 46.6725116 15.5533659 46.6725116 18.7607659 42.7913721"></polyline>
                <polygon id="Stroke-352" stroke="#000000" stroke-width="1.547" points="18.7607659 42.7913721 21.9677805 46.6725116 15.5533659 46.6725116"></polygon>
                <polyline id="Fill-353" fill="#D8D8D8" points="25.1751805 42.7913721 28.3825805 46.6725116 21.9677805 46.6725116 25.1751805 42.7913721"></polyline>
                <polygon id="Stroke-354" stroke="#000000" stroke-width="1.547" points="25.1751805 42.7913721 28.3825805 46.6725116 21.9677805 46.6725116"></polygon>
                <polygon id="Fill-355" fill="#D8D8D8" points="14.7267561 36.4132093 29.2091902 36.4132093 29.2091902 32.5502558 14.7267561 32.5502558"></polygon>
                <polygon id="Stroke-356" stroke="#000000" stroke-width="1.547" points="14.7267561 36.4132093 29.2091902 36.4132093 29.2091902 32.5502558 14.7267561 32.5502558"></polygon>
                <polygon id="Fill-357" fill="#D8D8D8" points="20.2301659 60.036093 23.7057805 60.036093 23.7057805 56.4704419 20.2301659 56.4704419"></polygon>
                <polygon id="Stroke-358" stroke="#D8D8D8" stroke-width="0.7735" points="20.2301659 60.036093 23.7057805 60.036093 23.7057805 56.4704419 20.2301659 56.4704419"></polygon>
                <polygon id="Fill-359" fill="#D8D8D8" points="20.2301659 72.5160698 23.7057805 72.5160698 23.7057805 68.9504186 20.2301659 68.9504186"></polygon>
                <polygon id="Stroke-360" stroke="#D8D8D8" stroke-width="0.7735" points="20.2301659 72.5160698 23.7057805 72.5160698 23.7057805 68.9504186 20.2301659 68.9504186"></polygon>
                <polygon id="Fill-361" fill="#D8D8D8" points="20.2301659 78.608 23.7057805 78.608 23.7057805 75.0419535 20.2301659 75.0419535"></polygon>
                <polygon id="Stroke-362" stroke="#D8D8D8" stroke-width="0.7735" points="20.2301659 78.608 23.7057805 78.608 23.7057805 75.0419535 20.2301659 75.0419535"></polygon>
                <path d="M68.9696976,60.036093 C69.1558293,57.3793488 71.3104098,55.2820233 73.9478537,55.2820233 C76.5849122,55.2820233 78.7394927,57.3793488 78.9260098,60.036093 L68.9696976,60.036093" id="Fill-363" fill="#D8D8D8"></path>
                <path d="M68.9696976,60.036093 C69.1558293,57.3793488 71.3104098,55.2820233 73.9478537,55.2820233 C76.5849122,55.2820233 78.7394927,57.3793488 78.9260098,60.036093 L68.9696976,60.036093 Z" id="Stroke-364" stroke="#000000" stroke-width="1.547"></path>
                <polygon id="Fill-365" fill="#FFFFFF" points="72.4272 84.9964419 78.9260098 84.9964419 78.9260098 60.036093 72.4272 60.036093"></polygon>
                <polygon id="Stroke-366" stroke="#000000" stroke-width="1.547" points="72.4272 84.9964419 78.9260098 84.9964419 78.9260098 60.036093 72.4272 60.036093"></polygon>
                <polygon id="Fill-368" fill="#FFFFFF" points="63.8824829 84.9964419 72.4272 84.9964419 72.4272 48.0020698 63.8824829 48.0020698"></polygon>
                <polygon id="Stroke-369" stroke="#000000" stroke-width="1.547" points="63.8824829 84.9964419 72.4272 84.9964419 72.4272 48.0020698 63.8824829 48.0020698"></polygon>
                <path d="M67.1168585,60.6682558 C68.4232488,60.6682558 69.4822341,61.8246512 69.4822341,63.2514651 L69.4822341,67.6663256 L64.7514829,67.6663256 L64.7514829,63.2514651 C64.7514829,61.8246512 65.8104683,60.6682558 67.1168585,60.6682558" id="Fill-371" fill="#D8D8D8"></path>
                <path d="M67.1168585,60.6682558 C68.4232488,60.6682558 69.4822341,61.8246512 69.4822341,63.2514651 L69.4822341,67.6663256 L64.7514829,67.6663256 L64.7514829,63.2514651 C64.7514829,61.8246512 65.8104683,60.6682558 67.1168585,60.6682558 Z" id="Stroke-372" stroke="#000000" stroke-width="1.547"></path>
                <path d="M67.1168585,70.7334419 C68.4232488,70.7334419 69.4822341,71.8902326 69.4822341,73.3166512 L69.4822341,77.7315116 L64.7514829,77.7315116 L64.7514829,73.3166512 C64.7514829,71.8902326 65.8104683,70.7334419 67.1168585,70.7334419" id="Fill-373" fill="#D8D8D8"></path>
                <path d="M67.1168585,70.7334419 C68.4232488,70.7334419 69.4822341,71.8902326 69.4822341,73.3166512 L69.4822341,77.7315116 L64.7514829,77.7315116 L64.7514829,73.3166512 C64.7514829,71.8902326 65.8104683,70.7334419 67.1168585,70.7334419 Z" id="Stroke-374" stroke="#000000" stroke-width="1.547"></path>
                <path d="M57.0761512,6.99569767 C59.1047171,6.99569767 60.7494585,8.79176744 60.7494585,11.006907 L53.4028439,11.006907 C53.4028439,8.79176744 55.0475854,6.99569767 57.0761512,6.99569767" id="Fill-375" fill="#D8D8D8"></path>
                <path d="M57.0761512,6.99569767 C59.1047171,6.99569767 60.7494585,8.79176744 60.7494585,11.006907 L53.4028439,11.006907 C53.4028439,8.79176744 55.0475854,6.99569767 57.0761512,6.99569767 Z" id="Stroke-376" stroke="#000000" stroke-width="1.547"></path>
                <polygon id="Fill-377" fill="#FFFFFF" points="53.4028439 25.2703023 60.7494585 25.2703023 60.7494585 11.006907 53.4028439 11.006907"></polygon>
                <polygon id="Stroke-378" stroke="#000000" stroke-width="1.547" points="53.4028439 25.2703023 60.7494585 25.2703023 60.7494585 11.006907 53.4028439 11.006907"></polygon>
                <polygon id="Fill-379" fill="#FFFFFF" points="51.8625366 32.5502558 62.2897659 32.5502558 62.2897659 25.2703023 51.8625366 25.2703023"></polygon>
                <polygon id="Stroke-380" stroke="#000000" stroke-width="1.547" points="51.8625366 32.5502558 62.2897659 32.5502558 62.2897659 25.2703023 51.8625366 25.2703023"></polygon>
                <polygon id="Fill-381" fill="#FFFFFF" points="50.2694341 80.6875349 63.8824829 80.6875349 63.8824829 32.5502558 50.2694341 32.5502558"></polygon>
                <polygon id="Stroke-383" stroke="#000000" stroke-width="1.547" points="50.2694341 80.6875349 63.8824829 80.6875349 63.8824829 32.5502558 50.2694341 32.5502558"></polygon>
                <polyline id="Fill-385" fill="#D8D8D8" points="60.2835512 42.7913721 57.0761512 46.6725116 63.4905659 46.6725116 60.2835512 42.7913721"></polyline>
                <polygon id="Stroke-386" stroke="#000000" stroke-width="1.547" points="60.2835512 42.7913721 57.0761512 46.6725116 63.4905659 46.6725116"></polygon>
                <polyline id="Fill-387" fill="#D8D8D8" points="53.8687512 42.7913721 50.6617366 46.6725116 57.0761512 46.6725116 53.8687512 42.7913721"></polyline>
                <polygon id="Stroke-388" stroke="#000000" stroke-width="1.547" points="53.8687512 42.7913721 50.6617366 46.6725116 57.0761512 46.6725116"></polygon>
                <polygon id="Fill-389" fill="#D8D8D8" points="49.8351268 36.4132093 64.3171756 36.4132093 64.3171756 32.5502558 49.8351268 32.5502558"></polygon>
                <polygon id="Stroke-390" stroke="#000000" stroke-width="1.547" points="49.8351268 36.4132093 64.3171756 36.4132093 64.3171756 32.5502558 49.8351268 32.5502558"></polygon>
                <polygon id="Fill-391" fill="#D8D8D8" points="55.3381512 60.036093 58.8141512 60.036093 58.8141512 56.4704419 55.3381512 56.4704419"></polygon>
                <polygon id="Stroke-392" stroke="#D8D8D8" stroke-width="0.7735" points="55.3381512 60.036093 58.8141512 60.036093 58.8141512 56.4704419 55.3381512 56.4704419"></polygon>
                <polygon id="Fill-393" fill="#D8D8D8" points="55.3381512 72.5160698 58.8141512 72.5160698 58.8141512 68.9504186 55.3381512 68.9504186"></polygon>
                <polygon id="Stroke-394" stroke="#D8D8D8" stroke-width="0.7735" points="55.3381512 72.5160698 58.8141512 72.5160698 58.8141512 68.9504186 55.3381512 68.9504186"></polygon>
                <polygon id="Fill-395" fill="#D8D8D8" points="55.3381512 78.608 58.8141512 78.608 58.8141512 75.0419535 55.3381512 75.0419535"></polygon>
                <polygon id="Stroke-396" stroke="#D8D8D8" stroke-width="0.7735" points="55.3381512 78.608 58.8141512 78.608 58.8141512 75.0419535 55.3381512 75.0419535"></polygon>
                <polygon id="Fill-397" fill="#D8D8D8" points="13.6265366 84.9964419 65.4173951 84.9964419 65.4173951 80.6875349 13.6265366 80.6875349"></polygon>
                <polygon id="Stroke-398" stroke="#000000" stroke-width="1.547" points="13.6265366 84.9964419 65.4173951 84.9964419 65.4173951 80.6875349 13.6265366 80.6875349"></polygon>
                <polyline id="Fill-400" fill="#FFFFFF" points="39.5219659 53.0506744 32.5233366 56.619093 32.5233366 63.156186 46.5205951 63.156186 46.5205951 56.619093 39.5219659 53.0506744"></polyline>
                <polygon id="Stroke-401" stroke="#000000" stroke-width="1.547" points="39.5219659 53.0506744 32.5233366 56.619093 32.5233366 63.156186 46.5205951 63.156186 46.5205951 56.619093"></polygon>
            </g>
            <g id="Stadhuis" transform="translate(122.000000, 65.000000)">
                <polygon id="Fill-189" fill="#FFFFFF" points="7.27208791 98.2748736 44.2304762 98.2748736 44.2304762 77.0540072 7.27208791 77.0540072"></polygon>
                <polygon id="Stroke-190" stroke="#000000" stroke-width="1.61" points="1.50285714 98.2748736 38.4612454 98.2748736 38.4612454 77.0540072 1.50285714 77.0540072"></polygon>
                <polyline id="Fill-191" fill="#D8D8D8" points="3.05864469 59.9138628 4.68809524 48.5898195 6.31714286 59.9138628 3.05864469 59.9138628"></polyline>
                <polygon id="Stroke-192" stroke="#000000" stroke-width="1.61" points="3.05864469 59.9138628 4.68809524 48.5898195 6.31714286 59.9138628"></polygon>
                <polygon id="Fill-193" fill="#D8D8D8" points="4.37461538 77.0540072 44.2304762 77.0540072 44.2304762 64.8110469 4.37461538 64.8110469"></polygon>
                <polygon id="Stroke-194" stroke="#000000" stroke-width="1.61" points="4.37461538 77.0540072 44.2304762 77.0540072 44.2304762 64.8110469 4.37461538 64.8110469"></polygon>
                <polygon id="Fill-195" fill="#FFFFFF" points="0.0624542125 109.973394 44.2304762 109.973394 44.2304762 98.2748736 0.0624542125 98.2748736"></polygon>
                <polygon id="Stroke-196" stroke="#000000" stroke-width="1.61" points="0.0624542125 109.973394 44.2304762 109.973394 44.2304762 98.2748736 0.0624542125 98.2748736"></polygon>
                <path d="M5.96901099,104.559964 C5.96901099,103.685921 5.25018315,102.977473 4.36333333,102.977473 C3.47648352,102.977473 2.75805861,103.685921 2.75805861,104.559964 L2.75805861,109.973394 L6.00406593,109.973394 L6.00406593,104.559964 L5.96901099,104.559964" id="Fill-198" fill="#FFFFFF"></path>
                <path d="M5.96901099,104.559964 C5.96901099,103.685921 5.25018315,102.977473 4.36333333,102.977473 C3.47648352,102.977473 2.75805861,103.685921 2.75805861,104.559964 L2.75805861,109.973394 L6.00406593,109.973394 L6.00406593,104.559964 L5.96901099,104.559964 Z" id="Stroke-199" stroke="#000000" stroke-width="1.61"></path>
                <path d="M11.8521978,104.559964 C11.8521978,103.685921 11.1337729,102.977473 10.2469231,102.977473 C9.35967033,102.977473 8.64084249,103.685921 8.64084249,104.559964 L8.64084249,109.973394 L11.8872527,109.973394 L11.8872527,104.559964 L11.8521978,104.559964" id="Fill-201" fill="#FFFFFF"></path>
                <path d="M11.8521978,104.559964 C11.8521978,103.685921 11.1337729,102.977473 10.2469231,102.977473 C9.35967033,102.977473 8.64084249,103.685921 8.64084249,104.559964 L8.64084249,109.973394 L11.8872527,109.973394 L11.8872527,104.559964 L11.8521978,104.559964 Z" id="Stroke-202" stroke="#000000" stroke-width="1.61"></path>
                <path d="M17.7357875,104.559964 C17.7357875,103.685921 17.0165568,102.977473 16.1301099,102.977473 C15.2432601,102.977473 14.5244322,103.685921 14.5244322,104.559964 L14.5244322,109.973394 L17.7708425,109.973394 L17.7708425,104.559964 L17.7357875,104.559964" id="Fill-204" fill="#FFFFFF"></path>
                <path d="M17.7357875,104.559964 C17.7357875,103.685921 17.0165568,102.977473 16.1301099,102.977473 C15.2432601,102.977473 14.5244322,103.685921 14.5244322,104.559964 L14.5244322,109.973394 L17.7708425,109.973394 L17.7708425,104.559964 L17.7357875,104.559964 Z" id="Stroke-205" stroke="#000000" stroke-width="1.61"></path>
                <path d="M23.6189744,104.559964 C23.6189744,103.685921 22.9001465,102.977473 22.0136996,102.977473 C21.1268498,102.977473 20.407619,103.685921 20.407619,104.559964 L20.407619,109.973394 L23.6540293,109.973394 L23.6540293,104.559964 L23.6189744,104.559964" id="Fill-207" fill="#FFFFFF"></path>
                <path d="M23.6189744,104.559964 C23.6189744,103.685921 22.9001465,102.977473 22.0136996,102.977473 C21.1268498,102.977473 20.407619,103.685921 20.407619,104.559964 L20.407619,109.973394 L23.6540293,109.973394 L23.6540293,104.559964 L23.6189744,104.559964 Z" id="Stroke-208" stroke="#000000" stroke-width="1.61"></path>
                <path d="M29.5025641,104.559964 C29.5025641,103.685921 28.7837363,102.977473 27.8968864,102.977473 C27.0100366,102.977473 26.2912088,103.685921 26.2912088,104.559964 L26.2912088,109.973394 L29.537619,109.973394 L29.537619,104.559964 L29.5025641,104.559964" id="Fill-210" fill="#FFFFFF"></path>
                <path d="M29.5025641,104.559964 C29.5025641,103.685921 28.7837363,102.977473 27.8968864,102.977473 C27.0100366,102.977473 26.2912088,103.685921 26.2912088,104.559964 L26.2912088,109.973394 L29.537619,109.973394 L29.537619,104.559964 L29.5025641,104.559964 Z" id="Stroke-211" stroke="#000000" stroke-width="1.61"></path>
                <path d="M35.3857509,104.559964 C35.3857509,103.685921 34.6669231,102.977473 33.7804762,102.977473 C32.8936264,102.977473 32.1747985,103.685921 32.1747985,104.559964 L32.1747985,109.973394 L35.4208059,109.973394 L35.4208059,104.559964 L35.3857509,104.559964" id="Fill-213" fill="#FFFFFF"></path>
                <path d="M35.3857509,104.559964 C35.3857509,103.685921 34.6669231,102.977473 33.7804762,102.977473 C32.8936264,102.977473 32.1747985,103.685921 32.1747985,104.559964 L32.1747985,109.973394 L35.4208059,109.973394 L35.4208059,104.559964 L35.3857509,104.559964 Z" id="Stroke-214" stroke="#000000" stroke-width="1.61"></path>
                <polygon id="Fill-219" fill="#FFFFFF" points="1.22652015 98.2748736 8.1492674 98.2748736 8.1492674 77.0540072 1.22652015 77.0540072"></polygon>
                <polygon id="Stroke-220" stroke="#000000" stroke-width="1.61" points="1.22652015 98.2748736 8.1492674 98.2748736 8.1492674 77.0540072 1.22652015 77.0540072"></polygon>
                <polygon id="Fill-221" fill="#FFFFFF" points="3.05864469 77.0540072 6.31714286 77.0540072 6.31714286 59.9138628 3.05864469 59.9138628"></polygon>
                <polygon id="Path" stroke="#000000" stroke-width="1.61" points="3.05864469 77.0540072 6.31714286 77.0540072 6.31714286 59.9138628 3.05864469 59.9138628"></polygon>
                <path d="M11.8872527,80.1145487 L11.8872527,84.4144765 L11.8872527,80.1145487 Z" id="Path" stroke="#D8D8D8" stroke-width="1.61"></path>
                <path d="M16.1474359,80.1145487 L16.1474359,84.4144765 L16.1474359,80.1145487 Z" id="Path" stroke="#D8D8D8" stroke-width="1.61"></path>
                <path d="M20.407619,80.1145487 L20.407619,84.4144765 L20.407619,80.1145487 Z" id="Path" stroke="#D8D8D8" stroke-width="1.61"></path>
                <path d="M24.6682051,80.1145487 L24.6682051,84.4144765 L24.6682051,80.1145487 Z" id="Path" stroke="#D8D8D8" stroke-width="1.61"></path>
                <path d="M28.9283883,80.1145487 L28.9283883,84.4144765 L28.9283883,80.1145487 Z" id="Path" stroke="#D8D8D8" stroke-width="1.61"></path>
                <path d="M33.1885714,80.1145487 L33.1885714,84.4144765 L33.1885714,80.1145487 Z" id="Path" stroke="#D8D8D8" stroke-width="1.61"></path>
                <path d="M11.8872527,87.6644404 L11.8872527,91.9643682 L11.8872527,87.6644404 Z" id="Path" stroke="#D8D8D8" stroke-width="1.61"></path>
                <path d="M16.1474359,87.6644404 L16.1474359,91.9643682 L16.1474359,87.6644404 Z" id="Path" stroke="#D8D8D8" stroke-width="1.61"></path>
                <path d="M20.407619,87.6644404 L20.407619,91.9643682 L20.407619,87.6644404 Z" id="Path" stroke="#D8D8D8" stroke-width="1.61"></path>
                <path d="M24.6682051,87.6644404 L24.6682051,91.9643682 L24.6682051,87.6644404 Z" id="Path" stroke="#D8D8D8" stroke-width="1.61"></path>
                <path d="M28.9283883,87.6644404 L28.9283883,91.9643682 L28.9283883,87.6644404 Z" id="Path" stroke="#D8D8D8" stroke-width="1.61"></path>
                <path d="M33.1885714,87.6644404 L33.1885714,91.9643682 L33.1885714,87.6644404 Z" id="Path" stroke="#D8D8D8" stroke-width="1.61"></path>
                <path d="M4.68809524,82.2645126 L4.68809524,84.4144765 L4.68809524,82.2645126 Z" id="Path" stroke="#D8D8D8" stroke-width="1.61"></path>
                <path d="M4.68809524,89.8144043 L4.68809524,91.9643682 L4.68809524,89.8144043 Z" id="Path" stroke="#D8D8D8" stroke-width="1.61"></path>
                <path d="M0.958168498,68.483935 L8.41761905,68.483935 L0.958168498,68.483935 Z" id="Path" stroke="#000000" stroke-width="1.61"></path>
                <polygon id="Fill-223" fill="#FFFFFF" points="45.6667766 98.2748736 82.6251648 98.2748736 82.6251648 77.0540072 45.6667766 77.0540072"></polygon>
                <polygon id="Stroke-224" stroke="#000000" stroke-width="1.61" points="51.4360073 98.2748736 88.3943956 98.2748736 88.3943956 77.0540072 51.4360073 77.0540072"></polygon>
                <polyline id="Fill-225" fill="#D8D8D8" points="86.8386081 59.9138628 85.2091575 48.5898195 83.579707 59.9138628 86.8386081 59.9138628"></polyline>
                <polygon id="Stroke-226" stroke="#000000" stroke-width="1.61" points="86.8386081 59.9138628 85.2091575 48.5898195 83.579707 59.9138628"></polygon>
                <polygon id="Fill-228" fill="#D8D8D8" points="45.6667766 77.0540072 85.5226374 77.0540072 85.5226374 64.8110469 45.6667766 64.8110469"></polygon>
                <polygon id="Stroke-229" stroke="#000000" stroke-width="1.61" points="45.6667766 77.0540072 85.5226374 77.0540072 85.5226374 64.8110469 45.6667766 64.8110469"></polygon>
                <polygon id="Fill-230" fill="#FFFFFF" points="45.6667766 109.973394 89.8347985 109.973394 89.8347985 98.2748736 45.6667766 98.2748736"></polygon>
                <polygon id="Stroke-231" stroke="#000000" stroke-width="1.61" points="45.6667766 109.973394 89.8347985 109.973394 89.8347985 98.2748736 45.6667766 98.2748736"></polygon>
                <path d="M83.9282418,104.559964 C83.9282418,103.685921 84.6470696,102.977473 85.5335165,102.977473 C86.4203663,102.977473 87.1391941,103.685921 87.1391941,104.559964 L87.1391941,109.973394 L83.8931868,109.973394 L83.8931868,104.559964 L83.9282418,104.559964" id="Fill-233" fill="#FFFFFF"></path>
                <path d="M83.9282418,104.559964 C83.9282418,103.685921 84.6470696,102.977473 85.5335165,102.977473 C86.4203663,102.977473 87.1391941,103.685921 87.1391941,104.559964 L87.1391941,109.973394 L83.8931868,109.973394 L83.8931868,104.559964 L83.9282418,104.559964 Z" id="Stroke-234" stroke="#000000" stroke-width="1.61"></path>
                <path d="M78.044652,104.559964 C78.044652,103.685921 78.7634799,102.977473 79.6499267,102.977473 C80.5371795,102.977473 81.2560073,103.685921 81.2560073,104.559964 L81.2560073,109.973394 L78.0095971,109.973394 L78.0095971,104.559964 L78.044652,104.559964" id="Fill-236" fill="#FFFFFF"></path>
                <path d="M78.044652,104.559964 C78.044652,103.685921 78.7634799,102.977473 79.6499267,102.977473 C80.5371795,102.977473 81.2560073,103.685921 81.2560073,104.559964 L81.2560073,109.973394 L78.0095971,109.973394 L78.0095971,104.559964 L78.044652,104.559964 Z" id="Stroke-237" stroke="#000000" stroke-width="1.61"></path>
                <path d="M72.1614652,104.559964 C72.1614652,103.685921 72.880293,102.977473 73.7667399,102.977473 C74.6535897,102.977473 75.3724176,103.685921 75.3724176,104.559964 L75.3724176,109.973394 L72.1264103,109.973394 L72.1264103,104.559964 L72.1614652,104.559964" id="Fill-239" fill="#FFFFFF"></path>
                <path d="M72.1614652,104.559964 C72.1614652,103.685921 72.880293,102.977473 73.7667399,102.977473 C74.6535897,102.977473 75.3724176,103.685921 75.3724176,104.559964 L75.3724176,109.973394 L72.1264103,109.973394 L72.1264103,104.559964 L72.1614652,104.559964 Z" id="Stroke-240" stroke="#000000" stroke-width="1.61"></path>
                <path d="M66.2778755,104.559964 C66.2778755,103.685921 66.9967033,102.977473 67.8835531,102.977473 C68.7704029,102.977473 69.4892308,103.685921 69.4892308,104.559964 L69.4892308,109.973394 L66.2428205,109.973394 L66.2428205,104.559964 L66.2778755,104.559964" id="Fill-242" fill="#FFFFFF"></path>
                <path d="M66.2778755,104.559964 C66.2778755,103.685921 66.9967033,102.977473 67.8835531,102.977473 C68.7704029,102.977473 69.4892308,103.685921 69.4892308,104.559964 L69.4892308,109.973394 L66.2428205,109.973394 L66.2428205,104.559964 L66.2778755,104.559964 Z" id="Stroke-243" stroke="#000000" stroke-width="1.61"></path>
                <path d="M60.3942857,104.559964 C60.3942857,103.685921 61.1135165,102.977473 62.0003663,102.977473 C62.8868132,102.977473 63.605641,103.685921 63.605641,104.559964 L63.605641,109.973394 L60.3596337,109.973394 L60.3596337,104.559964 L60.3942857,104.559964" id="Fill-245" fill="#FFFFFF"></path>
                <path d="M60.3942857,104.559964 C60.3942857,103.685921 61.1135165,102.977473 62.0003663,102.977473 C62.8868132,102.977473 63.605641,103.685921 63.605641,104.559964 L63.605641,109.973394 L60.3596337,109.973394 L60.3596337,104.559964 L60.3942857,104.559964 Z" id="Stroke-246" stroke="#000000" stroke-width="1.61"></path>
                <path d="M54.5110989,104.559964 C54.5110989,103.685921 55.2299267,102.977473 56.1167766,102.977473 C57.0032234,102.977473 57.7224542,103.685921 57.7224542,104.559964 L57.7224542,109.973394 L54.476044,109.973394 L54.476044,104.559964 L54.5110989,104.559964" id="Fill-248" fill="#FFFFFF"></path>
                <path d="M54.5110989,104.559964 C54.5110989,103.685921 55.2299267,102.977473 56.1167766,102.977473 C57.0032234,102.977473 57.7224542,103.685921 57.7224542,104.559964 L57.7224542,109.973394 L54.476044,109.973394 L54.476044,104.559964 L54.5110989,104.559964 Z" id="Stroke-249" stroke="#000000" stroke-width="1.61"></path>
                <polygon id="Fill-254" fill="#FFFFFF" points="81.7479853 98.2748736 88.6703297 98.2748736 88.6703297 77.0540072 81.7479853 77.0540072"></polygon>
                <polygon id="Stroke-255" stroke="#000000" stroke-width="1.61" points="81.7479853 98.2748736 88.6703297 98.2748736 88.6703297 77.0540072 81.7479853 77.0540072"></polygon>
                <polygon id="Fill-257" fill="#FFFFFF" points="83.579707 77.0540072 86.8386081 77.0540072 86.8386081 59.9138628 83.579707 59.9138628"></polygon>
                <polygon id="Path" stroke="#000000" stroke-width="1.61" points="83.579707 77.0540072 86.8386081 77.0540072 86.8386081 59.9138628 83.579707 59.9138628"></polygon>
                <path d="M78.0095971,80.1145487 L78.0095971,84.4144765 L78.0095971,80.1145487 Z" id="Path" stroke="#D8D8D8" stroke-width="1.61"></path>
                <path d="M73.7494139,80.1145487 L73.7494139,84.4144765 L73.7494139,80.1145487 Z" id="Path" stroke="#D8D8D8" stroke-width="1.61"></path>
                <path d="M69.4892308,80.1145487 L69.4892308,84.4144765 L69.4892308,80.1145487 Z" id="Path" stroke="#D8D8D8" stroke-width="1.61"></path>
                <path d="M65.2286447,80.1145487 L65.2286447,84.4144765 L65.2286447,80.1145487 Z" id="Path" stroke="#D8D8D8" stroke-width="1.61"></path>
                <path d="M60.9684615,80.1145487 L60.9684615,84.4144765 L60.9684615,80.1145487 Z" id="Path" stroke="#D8D8D8" stroke-width="1.61"></path>
                <path d="M56.7082784,80.1145487 L56.7082784,84.4144765 L56.7082784,80.1145487 Z" id="Path" stroke="#D8D8D8" stroke-width="1.61"></path>
                <path d="M78.0095971,87.6644404 L78.0095971,91.9643682 L78.0095971,87.6644404 Z" id="Path" stroke="#D8D8D8" stroke-width="1.61"></path>
                <path d="M73.7494139,87.6644404 L73.7494139,91.9643682 L73.7494139,87.6644404 Z" id="Path" stroke="#D8D8D8" stroke-width="1.61"></path>
                <path d="M69.4892308,87.6644404 L69.4892308,91.9643682 L69.4892308,87.6644404 Z" id="Path" stroke="#D8D8D8" stroke-width="1.61"></path>
                <path d="M65.2286447,87.6644404 L65.2286447,91.9643682 L65.2286447,87.6644404 Z" id="Path" stroke="#D8D8D8" stroke-width="1.61"></path>
                <path d="M60.9684615,87.6644404 L60.9684615,91.9643682 L60.9684615,87.6644404 Z" id="Path" stroke="#D8D8D8" stroke-width="1.61"></path>
                <path d="M56.7082784,87.6644404 L56.7082784,91.9643682 L56.7082784,87.6644404 Z" id="Path" stroke="#D8D8D8" stroke-width="1.61"></path>
                <path d="M85.2091575,82.2645126 L85.2091575,84.4144765 L85.2091575,82.2645126 Z" id="Path" stroke="#D8D8D8" stroke-width="1.61"></path>
                <path d="M85.2091575,89.8144043 L85.2091575,91.9643682 L85.2091575,89.8144043 Z" id="Path" stroke="#D8D8D8" stroke-width="1.61"></path>
                <path d="M88.9386813,68.483935 L81.4796337,68.483935 L88.9386813,68.483935 Z" id="Path" stroke="#000000" stroke-width="1.61"></path>
                <polyline id="Fill-260" fill="#FFFFFF" points="49.2271429 41.9572563 40.669707 41.9572563 38.4612454 48.5898195 38.4612454 60.7299278 51.4360073 60.7299278 51.4360073 48.5898195 49.2271429 41.9572563"></polyline>
                <polygon id="Stroke-261" stroke="#000000" stroke-width="1.61" points="49.2271429 41.9572563 40.669707 41.9572563 38.4612454 48.5898195 38.4612454 60.7299278 51.4360073 60.7299278 51.4360073 48.5898195"></polygon>
                <polygon id="Fill-262" fill="#FFFFFF" points="40.3816117 26.449639 49.5152381 26.449639 49.5152381 18.2877978 40.3816117 18.2877978"></polygon>
                <path d="M43.2230769,18.2877978 L43.2230769,24.0010469 L43.2230769,18.2877978 Z" id="Path" stroke="#D8D8D8" stroke-width="1.61"></path>
                <path d="M46.6737729,18.2877978 L46.6737729,24.0010469 L46.6737729,18.2877978 Z" id="Path" stroke="#D8D8D8" stroke-width="1.61"></path>
                <polygon id="Stroke-263" stroke="#000000" stroke-width="1.61" points="40.3816117 26.449639 49.5152381 26.449639 49.5152381 18.2877978 40.3816117 18.2877978"></polygon>
                <polyline id="Fill-264" fill="#D8D8D8" points="42.3648352 18.2877978 44.9484249 0.331588448 47.5320147 18.2877978 42.3648352 18.2877978"></polyline>
                <polygon id="Stroke-265" stroke="#000000" stroke-width="1.61" points="42.3648352 18.2877978 44.9484249 0.331588448 47.5320147 18.2877978"></polygon>
                <polygon id="Fill-266" fill="#FFFFFF" points="40.3816117 60.7299278 49.5152381 60.7299278 49.5152381 24.0010469 40.3816117 24.0010469"></polygon>
                <polygon id="Stroke-267" stroke="#000000" stroke-width="1.61" points="40.3816117 60.7299278 49.5152381 60.7299278 49.5152381 24.0010469 40.3816117 24.0010469"></polygon>
                <polygon id="Fill-268" fill="#FFFFFF" points="40.3816117 39.7806859 49.5152381 39.7806859 49.5152381 31.6192419 40.3816117 31.6192419"></polygon>
                <path d="M43.2230769,31.8309025 L43.2230769,39.7806859 L43.2230769,31.8309025 Z" id="Path" stroke="#D8D8D8" stroke-width="1.61"></path>
                <path d="M46.6737729,31.8309025 L46.6737729,39.7806859 L46.6737729,31.8309025 Z" id="Path" stroke="#D8D8D8" stroke-width="1.61"></path>
                <polygon id="Stroke-269" stroke="#000000" stroke-width="1.61" points="40.3816117 39.7806859 49.5152381 39.7806859 49.5152381 31.6192419 40.3816117 31.6192419"></polygon>
                <polygon id="Fill-270" fill="#FFFFFF" points="40.3816117 56.6488087 49.5152381 56.6488087 49.5152381 45.2223105 40.3816117 45.2223105"></polygon>
                <path d="M43.2230769,45.2683755 L43.2230769,56.8906498 L43.2230769,45.2683755 Z" id="Path" stroke="#D8D8D8" stroke-width="1.61"></path>
                <path d="M46.6737729,45.2683755 L46.6737729,56.8906498 L46.6737729,45.2683755 Z" id="Path" stroke="#D8D8D8" stroke-width="1.61"></path>
                <polygon id="Stroke-271" stroke="#000000" stroke-width="1.61" points="40.3816117 56.6488087 49.5152381 56.6488087 49.5152381 45.2223105 40.3816117 45.2223105"></polygon>
                <polygon id="Fill-272" fill="#FFFFFF" points="38.4612454 109.973394 51.4360073 109.973394 51.4360073 60.7299278 38.4612454 60.7299278"></polygon>
                <polygon id="Stroke-273" stroke="#000000" stroke-width="1.61" points="38.4612454 109.973394 51.4360073 109.973394 51.4360073 60.7299278 38.4612454 60.7299278"></polygon>
                <path d="M42.3648352,64.8110469 L42.3648352,70.9325271" id="Fill-275" fill="#FFFFFF"></path>
                <path d="M42.3648352,64.8110469 L42.3648352,70.9325271" id="Stroke-276" stroke="#D8D8D8" stroke-width="1.61"></path>
                <path d="M47.5320147,64.8110469 L47.5320147,70.9325271" id="Fill-277" fill="#FFFFFF"></path>
                <path d="M47.5320147,64.8110469 L47.5320147,70.9325271" id="Stroke-278" stroke="#D8D8D8" stroke-width="1.61"></path>
                <path d="M42.3648352,73.9930686 L42.3648352,80.1145487" id="Fill-279" fill="#FFFFFF"></path>
                <path d="M42.3648352,73.9930686 L42.3648352,80.1145487" id="Stroke-280" stroke="#D8D8D8" stroke-width="1.61"></path>
                <path d="M47.5320147,73.9930686 L47.5320147,80.1145487" id="Fill-281" fill="#FFFFFF"></path>
                <path d="M47.5320147,73.9930686 L47.5320147,80.1145487" id="Stroke-282" stroke="#D8D8D8" stroke-width="1.61"></path>
                <path d="M44.9484249,96.9294585 C44.9484249,96.9294585 41.560989,98.5059928 41.560989,102.977473 L41.560989,109.973394 L48.3362637,109.973394 L48.3362637,102.977473 C48.3362637,98.5059928 44.9484249,96.9294585 44.9484249,96.9294585" id="Fill-283" fill="#FFFFFF"></path>
                <path d="M44.9484249,96.9294585 C44.9484249,96.9294585 41.560989,98.5059928 41.560989,102.977473 L41.560989,109.973394 L48.3362637,109.973394 L48.3362637,102.977473 C48.3362637,98.5059928 44.9484249,96.9294585 44.9484249,96.9294585 Z" id="Path" stroke="#000000" stroke-width="1.61"></path>
                <path d="M42.3648352,84.4144765 L42.3648352,87.6644404 L42.3648352,84.4144765 Z" id="Path" stroke="#D8D8D8" stroke-width="1.61"></path>
                <path d="M47.5320147,84.4144765 L47.5320147,87.6644404 L47.5320147,84.4144765 Z" id="Path" stroke="#D8D8D8" stroke-width="1.61"></path>
                <path d="M42.3648352,89.6511913 L42.3648352,92.9015523 L42.3648352,89.6511913 Z" id="Path" stroke="#D8D8D8" stroke-width="1.61"></path>
                <path d="M47.5320147,89.6511913 L47.5320147,92.9015523 L47.5320147,89.6511913 Z" id="Path" stroke="#D8D8D8" stroke-width="1.61"></path>
            </g>
        </g>
    </g>
</svg>