<?xml version="1.0" encoding="UTF-8"?>
<svg width="149px" height="44px" viewBox="0 0 149 44" version="1.1" xmlns="http://www.w3.org/2000/svg" xmlns:xlink="http://www.w3.org/1999/xlink">
    <!-- Generator: Sketch 49.2 (51160) - http://www.bohemiancoding.com/sketch -->
    <title>logo</title>
    <desc>Created with Sketch.</desc>
    <defs></defs>
    <g id="Symbols" stroke="none" stroke-width="1" fill="none" fill-rule="evenodd">
        <g id="logo-/-black" transform="translate(-10.000000, -10.000000)">
            <g id="logo">
                <polygon id="free-area" points="0 64 168.941746 64 168.941746 0 0 0"></polygon>
                <path d="M156.375764,25.550144 L156.375764,28.147264 C156.375764,29.344064 155.399533,30.350144 154.194128,30.389824 C154.171082,30.387904 154.151238,30.387264 154.128832,30.387264 L146.55584,30.387264 L146.55584,23.305664 L154.128832,23.305664 C155.368166,23.307584 156.375764,24.313664 156.375764,25.550144 M154.128832,21.338304 C156.450662,21.338304 158.340389,23.228224 158.340389,25.550144 L158.340389,28.227264 C158.340389,28.259904 158.339749,28.289984 158.336548,28.319424 C158.248207,30.579264 156.40009,32.355904 154.128832,32.355904 C154.104506,32.355904 154.0757,32.353984 154.046893,32.350784 L153.301116,32.351424 L158.084969,38.147264 C158.230283,38.327744 158.309662,38.549824 158.309662,38.773824 L158.309662,41.667904 C158.309662,42.209344 157.868597,42.650304 157.325749,42.650304 C156.783541,42.650304 156.341836,42.209344 156.341836,41.667904 L156.341836,39.126464 L151.336491,33.059264 L151.336491,33.060544 L150.751393,32.351424 L146.55584,32.351424 L146.55584,41.667904 C146.55584,42.210624 146.114775,42.651584 145.571927,42.651584 C145.030999,42.651584 144.590575,42.210624 144.590575,41.667904 L144.590575,22.321984 C144.590575,21.779264 145.030999,21.338304 145.571927,21.338304 L154.128832,21.338304 Z M141.837603,31.407104 L141.892656,31.684864 L141.906099,41.686144 C141.906099,42.229504 141.466315,42.671744 140.925387,42.671744 C140.384459,42.671744 139.941474,42.232064 139.938273,41.691904 L139.935073,37.500544 L130.62727,37.500544 L130.62727,41.689344 C130.62727,42.230784 130.185565,42.671744 129.643357,42.671744 C129.101148,42.671744 128.659444,42.230784 128.659444,41.689344 L128.659444,31.703424 L128.713217,31.423744 L132.565008,21.958784 C132.694959,21.634944 132.991349,21.403904 133.338311,21.355904 L133.50347,21.338624 L137.072955,21.337984 L137.30213,21.373184 C137.613243,21.445504 137.869304,21.665024 137.987732,21.960704 L141.837603,31.407104 Z M139.932512,35.536384 L139.929311,31.933824 L136.41488,23.305984 L134.137861,23.305984 L130.62727,31.930624 L130.62727,35.536384 L139.932512,35.536384 Z M125.90628,31.405824 L125.963894,31.683584 L125.977977,41.689344 C125.977977,42.230784 125.537553,42.671744 124.996625,42.671744 C124.454417,42.671744 124.012712,42.231424 124.012712,41.691264 L124.006951,37.500544 L114.692746,37.500544 L114.692746,41.689344 C114.692746,42.230784 114.252322,42.671744 113.711394,42.671744 C113.171106,42.671744 112.730682,42.230784 112.730682,41.689344 L112.730682,31.703424 L112.781254,31.426304 L116.633686,21.958784 C116.763636,21.634304 117.061947,21.403264 117.410189,21.355904 L117.574708,21.338624 L121.137792,21.337984 L121.38553,21.375744 C121.685121,21.448064 121.937341,21.665664 122.056409,21.956864 L125.90628,31.405824 Z M124.00375,35.536384 L123.997348,31.933824 L120.483557,23.305984 L118.209739,23.304704 L114.692746,31.933824 L114.692746,35.536384 L124.00375,35.536384 Z M100.507885,23.305792 C99.2711121,23.307072 98.2647939,24.313792 98.2647939,25.550272 L98.2647939,38.455232 C98.2647939,39.692352 99.2711121,40.699712 100.507885,40.699712 L105.822423,40.699712 C107.074559,40.699712 108.081517,39.692352 108.081517,38.455232 L108.084078,32.364992 L104.424972,32.364992 C103.884044,32.364992 103.44362,31.924672 103.44362,31.383232 C103.44362,30.841152 103.884044,30.400832 104.424972,30.400832 L109.06543,30.400832 C109.329173,30.400832 109.576271,30.503232 109.760635,30.688832 C109.946919,30.876992 110.049343,31.123392 110.049343,31.383232 L110.046783,38.478912 C110.024377,40.787392 108.13657,42.660672 105.837786,42.662592 L100.507885,42.662592 C98.1918167,42.659392 96.3033697,40.772672 96.296328,38.457152 L96.296328,25.550272 C96.3033697,23.232192 98.1918167,21.343552 100.507885,21.338432 L105.837786,21.338432 C108.153855,21.343552 110.042942,23.231552 110.049343,25.548352 C110.049343,26.090432 109.607639,26.530752 109.06543,26.530752 C108.524502,26.530752 108.084078,26.091072 108.084078,25.550272 C108.081517,24.312512 107.073919,23.305792 105.837786,23.305792 L100.507885,23.305792 Z M93.5400917,31.407104 L93.5951447,31.684864 L93.6117886,41.689344 C93.6117886,42.230784 93.1707242,42.671744 92.6278758,42.671744 C92.0869477,42.671744 91.6471636,42.231424 91.6471636,41.691264 L91.6407621,37.500544 L82.3329591,37.500544 L82.3329591,41.689344 C82.3329591,42.230784 81.8925348,42.671744 81.352247,42.671744 C80.8081182,42.671744 80.3651333,42.230784 80.3651333,41.689344 L80.3651333,31.703424 L80.4189061,31.425024 L84.2706977,21.958784 C84.4038492,21.634304 84.7015197,21.403264 85.0472015,21.355904 L85.2123606,21.338624 L88.7786447,21.337984 L89.0167811,21.375744 C89.3234136,21.448064 89.5781939,21.668224 89.6940614,21.962624 L93.5400917,31.407104 Z M91.6407621,35.536384 L91.6350008,31.933824 L88.1205689,23.305984 L85.84355,23.305984 L82.3329591,31.933824 L82.3329591,35.536384 L91.6407621,35.536384 Z M73.4718538,21.338368 C75.7911227,21.343488 77.6802098,23.231488 77.6834106,25.548928 L77.6834106,28.227328 C77.6834106,28.248448 77.6827705,28.270208 77.6782894,28.291968 C77.6418008,29.475968 77.0938311,30.596608 76.1713727,31.370368 C77.0995924,32.147328 77.6482023,33.274368 77.6802098,34.481408 C77.6834106,34.504448 77.6834106,34.535168 77.6834106,34.566528 L77.6834106,38.455168 C77.6770091,40.771968 75.7898424,42.659328 73.4750545,42.662528 L64.9181492,42.662528 C64.6499258,42.662528 64.401547,42.561408 64.2197439,42.377088 C64.0353803,42.191488 63.9342364,41.944448 63.9342364,41.682048 L63.9342364,22.322048 C63.9342364,21.961728 64.1307629,21.630208 64.448278,21.457408 C64.5935924,21.379328 64.7555508,21.338368 64.9181492,21.338368 L73.4718538,21.338368 Z M73.5633955,30.388608 C74.7431947,30.344448 75.6925394,29.379328 75.7155848,28.191488 L75.7155848,25.548928 C75.7155848,24.311168 74.7092667,23.304448 73.4718538,23.304448 L65.8988614,23.304448 L65.8988614,30.385408 L73.4750545,30.385408 C73.5045015,30.385408 73.5339485,30.387328 73.5633955,30.388608 Z M73.4750545,32.355968 C73.4385659,32.355968 73.4046379,32.354048 73.3707098,32.350848 L65.8988614,32.351488 L65.8988614,40.699648 L73.4718538,40.699648 C74.7092667,40.699648 75.7155848,39.692928 75.7155848,38.455168 L75.7187856,34.619008 C75.7168652,34.613888 75.7155848,34.603008 75.7155848,34.594048 C75.7155848,33.387008 74.7688008,32.403328 73.5601947,32.354048 L73.4750545,32.355968 Z" id="bagaar" fill="#212121"></path>
                <path d="M10.7366212,53.33312 L10.7366212,10.66624 L53.4136023,10.66624 L53.4136023,53.33312 L10.7366212,53.33312 Z M34.6651008,21.33856 L26.1075553,21.33856 C25.9449568,21.33856 25.7829985,21.37952 25.6370439,21.4576 C25.3201689,21.6304 25.1230023,21.96192 25.1230023,22.32288 L25.1230023,41.69056 C25.1230023,41.95296 25.2247864,42.20064 25.4085098,42.38624 C25.590953,42.57056 25.8393318,42.67168 26.1075553,42.67168 L34.6683015,42.67168 C36.9837295,42.66848 38.8721765,40.78048 38.878578,38.4624 L38.878578,34.57248 C38.878578,34.54112 38.8779379,34.50976 38.8753773,34.48672 C38.8433697,33.27904 38.2947598,32.152 37.3659,31.37504 C38.2889985,30.6 38.8369682,29.47936 38.8734568,28.29472 C38.8779379,28.27296 38.878578,28.2512 38.878578,28.23008 L38.878578,25.5504 C38.8753773,23.23232 36.9850098,21.34304 34.6651008,21.33856 Z M34.7566424,30.39264 C34.7271955,30.39072 34.6977485,30.38944 34.6683015,30.38944 L27.0882674,30.38944 L27.0882674,23.30528 L34.6651008,23.30528 C35.9031538,23.30528 36.909472,24.31264 36.909472,25.5504 L36.909472,28.19424 C36.8864265,29.38272 35.9370818,30.34784 34.7566424,30.39264 Z M34.6683015,32.36064 L34.7534417,32.35936 C35.9626879,32.408 36.909472,33.39232 36.909472,34.6 C36.909472,34.60896 36.9107523,34.6192 36.9126727,34.62432 L36.909472,38.4624 C36.909472,39.70016 35.9031538,40.70752 34.6651008,40.70752 L27.0882674,40.70752 L27.0882674,32.35616 L34.5639568,32.35552 C34.5978848,32.35872 34.6318129,32.36064 34.6683015,32.36064 Z" id="monogram" fill="#212121"></path>
            </g>
        </g>
    </g>
</svg>