<?xml version="1.0" encoding="UTF-8"?>
<svg width="332px" height="332px" viewBox="0 0 332 332" version="1.1" xmlns="http://www.w3.org/2000/svg" xmlns:xlink="http://www.w3.org/1999/xlink">
    <!-- Generator: Sketch 52.5 (67469) - http://www.bohemiancoding.com/sketch -->
    <title>Ghent Copy</title>
    <desc>Created with Sketch.</desc>
    <g id="Page-1" stroke="none" stroke-width="1" fill="none" fill-rule="evenodd">
        <g id="Ghent-Copy">
            <path d="M166,328 C76.5298705,328 4,255.470129 4,166 C4,76.5298705 76.5298705,4 166,4 C255.470129,4 328,76.5298705 328,166 C328,255.470129 255.470129,328 166,328 Z" id="White-fill" fill="#FFFFFF"></path>
            <path d="M167,290 C234.707167,290 290,234.707167 290,167 C290,98.4384892 234.851955,43 167,43 C98.2928334,43 43,98.2928334 43,167 C43,234.851955 98.4384892,290 167,290 Z M167,298 C93.8745554,298 35,239.125445 35,167 C35,93.8745554 93.8745554,35 167,35 C239.125445,35 298,93.8745554 298,167 C298,239.125445 239.125445,298 167,298 Z" id="Inner" fill="#3097C0" fill-rule="nonzero"></path>
            <g id="Label" transform="translate(4.000000, 174.000000)">
                <path d="M0,0 L325,0 C324.831365,10.261932 323.164698,21.5952654 320,34 C316.725753,45.9356018 312.059086,57.9356018 306,70 L19,70 C12.4399798,58.3181012 7.77331309,46.6514345 5,35 C1.94944297,23.3485655 0.282776305,11.6818988 0,0 Z" id="Rectangle-5" fill="#3097C0"></path>
                <polygon id="Line-3" fill="#000000" fill-rule="nonzero" points="19 71 19 67 306 67 306 71"></polygon>
                <polygon id="Line-3-Copy-4" fill="#000000" fill-rule="nonzero" points="2 4 2 0 323 0 323 4"></polygon>
                <text id="FULL-STACK" font-family="Roboto-Black, Roboto" font-size="45" font-weight="700" fill="#FFFFFF">
                    <tspan x="32.4987793" y="51">FULL STACK</tspan>
                </text>
            </g>
            <path d="M167,324 C253.484848,324 324,253.484848 324,167 C324,79.5151519 253.484848,9 167,9 C79.5151519,9 9,79.5151519 9,167 C9,253.484848 79.5151519,324 167,324 Z M166,332 C74.3207315,332 0,257.679268 0,166 C0,74.3207315 74.3207315,0 166,0 C257.679268,0 332,74.3207315 332,166 C332,257.679268 257.679268,332 166,332 Z" id="Outer" fill="#000000" fill-rule="nonzero"></path>
            <g id="Ghent" transform="translate(75.589365, 255.702200)"></g>
            <path d="M108.331031,273.35539 C126.133332,283.229744 145.262599,288.143202 165.793406,288.143202 C185.462278,288.143202 204.075065,283.632666 221.689166,274.569314 C225.76067,286.407382 221.689166,274.569314 225.76067,285.958795 C206.894449,295.401865 186.887438,300.143202 165.793406,300.143202 C143.778318,300.143202 123.175145,294.977783 104.053281,284.691088 C108.331031,273.35539 104.053281,284.691088 108.331031,273.35539 Z" id="Path-5" fill="#FFFFFF" fill-rule="nonzero"></path>
            <path d="M75.8867306,265.850395 C103.295577,288.616798 133.666667,300 167,300 C200.333333,300 230,288.616798 256,265.850395" id="Path-6" fill-rule="nonzero"></path>
            <text id="GHENT" font-family="Roboto-Bold, Roboto" font-size="23" font-weight="bold" letter-spacing="8" fill="#000000">
                <tspan x="116.338623" y="278">GHEN</tspan>
                <tspan x="209.432373" y="278">T</tspan>
            </text>
            <g id="Niklaas" transform="translate(54.000000, 74.000000)" fill-rule="nonzero">
                <path d="M26.8970588,100.121739 L26.8970588,96.6086957 C26.9372194,96.0231884 27.226435,95.7304348 27.7647059,95.7304348 C28.3029767,95.7304348 28.5921924,96.0231884 28.6323529,96.6086957 L28.6323529,100.121739 L26.8970588,100.121739 Z" id="Path-41" stroke="#000000" stroke-width="0.88" fill="#D8D8D8"></path>
                <path d="M29.4847781,100.121739 L29.4847781,96.6086957 C29.5249386,96.0231884 29.8141543,95.7304348 30.3524252,95.7304348 C30.890696,95.7304348 31.1799117,96.0231884 31.2200722,96.6086957 L31.2200722,100.121739 L29.4847781,100.121739 Z" id="Path-41-Copy" stroke="#000000" stroke-width="0.88" fill="#D8D8D8"></path>
                <polygon id="Path-28" stroke="#000000" stroke-width="1.76" fill="#FFFFFF" points="5.68434189e-14 101 5.68434189e-14 97.4869565 0.867647059 96.6086957 0.867647059 37.7652174 5.20588235 37.7652174 5.20588235 40.4 20.7955798 40.4 20.7955798 10.5391304 24.2797132 10.5391304 33.86108 10.5391304 37.3452134 10.5391304 37.3452134 40.4 53.0238136 40.4 53.0238136 37.7652174 57.2647059 37.7652174 58.1357392 96.4432262 58.8823392 97.3405797 58.8823392 101"></polygon>
                <path d="M0.867647059,37.7652174 L3.55271368e-15,37.7652174 C2.0245098,33.6853283 3.03676471,30.4650384 3.03676471,28.1043478 C3.03676471,30.4650384 4.04901961,33.6853283 6.07352941,37.7652174 L5.20588235,37.7652174 L0.867647059,37.7652174 Z" id="Path-29" stroke="#000000" stroke-width="0.88" fill="#D8D8D8"></path>
                <path d="M16.4852941,45.6695652 L15.6176471,45.6695652 C17.9313725,41.0041688 19.0882353,37.4911254 19.0882353,35.1304348 C19.0882353,37.4911254 20.245098,41.0041688 22.5588235,45.6695652 L21.6911765,45.6695652 L16.4852941,45.6695652 Z" id="Path-29-Copy-2" stroke="#000000" stroke-width="0.88" fill="#D8D8D8"></path>
                <path d="M36.4874055,45.6695652 L35.6197584,45.6695652 C37.9334839,41.0041688 39.0903467,37.4911254 39.0903467,35.1304348 C39.0903467,37.4911254 40.2472094,41.0041688 42.5609349,45.6695652 L41.6932878,45.6695652 L36.4874055,45.6695652 Z" id="Path-29-Copy-3" stroke="#000000" stroke-width="0.88" fill="#D8D8D8"></path>
                <path d="M52.9264706,40.4 L52.9264706,71.1391304" id="Line-30" stroke="#000000" stroke-width="1.76" stroke-linecap="square"></path>
                <path d="M52.9264706,37.7652174 L52.0588235,37.7652174 C54.0833333,33.6853283 55.0955882,30.4650384 55.0955882,28.1043478 C55.0955882,30.4650384 56.1078431,33.6853283 58.1323529,37.7652174 L57.2647059,37.7652174 L52.9264706,37.7652174 Z" id="Path-29-Copy" stroke="#000000" stroke-width="0.88" fill="#D8D8D8"></path>
                <polygon id="Path-30" stroke="#000000" stroke-width="1.76" fill="#FFFFFF" points="24.2941176 9.77065217 28.6323529 4.39130435 29.5 4.39130435 33.8382353 9.77065217 33.8382353 10.5391304 24.2941176 10.5391304"></polygon>
                <path d="M29.0661765,4.39130435 L29.0661765,0.439130435" id="Line-12" stroke="#000000" stroke-width="0.88" stroke-linecap="square"></path>
                <path d="M28.1985294,1.3173913 L29.9338235,1.3173913" id="Line-14" stroke="#000000" stroke-width="0.88" stroke-linecap="square"></path>
                <polygon id="Path-31" stroke="#000000" stroke-width="0.88" fill="#FFFFFF" points="20.8235294 10.091585 22.5588235 5.26956522 24.2941176 10.091585"></polygon>
                <polygon id="Path-31-Copy" stroke="#000000" stroke-width="0.88" fill="#FFFFFF" points="33.8382353 10.091585 35.5735294 5.26956522 37.3088235 10.091585"></polygon>
                <path d="M5.20588235,40.4 L5.20588235,72.0173913" id="Line-16" stroke="#000000" stroke-width="1.76" stroke-linecap="square"></path>
                <path d="M4.33823529,96.4432262 L15.6176471,96.4432262" id="Line-18" stroke="#000000" stroke-width="1.76" stroke-linecap="square"></path>
                <path d="M47.7205882,96.4432262 L56.3970588,96.4623188" id="Line-18" stroke="#000000" stroke-width="1.76" stroke-linecap="square"></path>
                <polygon id="Path-32" stroke="#000000" stroke-width="1.76" points="0.867647059 70.2608696 2.60294118 67.626087 4.33823529 70.2608696 4.33823529 96.4432262 0.867647059 96.4432262"></polygon>
                <polygon id="Path-32" stroke="#000000" stroke-width="1.76" points="53.7941176 70.2608696 55.5294118 67.626087 57.6853832 70.2799622 57.6853832 96.4623188 53.7941176 96.4432262"></polygon>
                <path d="M17.3529412,76.8478261 L17.3529412,80.8380926" id="Line-19" stroke="#D8D8D8" stroke-width="0.88" stroke-linecap="round"></path>
                <path d="M21.6911765,55.3304348 L21.6911765,49.1826087 C21.6708806,48.5971014 21.376591,48.3043478 20.8083075,48.3043478 C20.2400241,48.3043478 19.9558824,48.5971014 19.9558824,49.1826087 L19.9558824,55.3304348 L21.6911765,55.3304348 Z" id="Path-36-Copy" stroke="#D8D8D8" stroke-width="0.88" fill="#D8D8D8"></path>
                <path d="M41.6470588,55.3304348 L41.6470588,49.1826087 C41.626763,48.5971014 41.3324733,48.3043478 40.7641899,48.3043478 C40.1959064,48.3043478 39.9117647,48.5971014 39.9117647,49.1826087 L39.9117647,55.3304348 L41.6470588,55.3304348 Z" id="Path-36-Copy-2" stroke="#D8D8D8" stroke-width="0.88" fill="#D8D8D8"></path>
                <path d="M21.6911765,64.1130435 L21.6911765,57.9652174 C21.6708806,57.3797101 21.376591,57.0869565 20.8083075,57.0869565 C20.2400241,57.0869565 19.9558824,57.3797101 19.9558824,57.9652174 L19.9558824,64.1130435 L21.6911765,64.1130435 Z" id="Path-36-Copy-11" stroke="#D8D8D8" stroke-width="0.88" fill="#D8D8D8"></path>
                <path d="M41.6470588,64.1130435 L41.6470588,57.9652174 C41.626763,57.3797101 41.3324733,57.0869565 40.7641899,57.0869565 C40.1959064,57.0869565 39.9117647,57.3797101 39.9117647,57.9652174 L39.9117647,64.1130435 L41.6470588,64.1130435 Z" id="Path-36-Copy-15" stroke="#D8D8D8" stroke-width="0.88" fill="#D8D8D8"></path>
                <path d="M21.6911765,74.4867045 L21.6911765,66.9467076 C21.6708806,66.2286127 21.376591,65.8695652 20.8083075,65.8695652 C20.2400241,65.8695652 19.9558824,66.2286127 19.9558824,66.9467076 L19.9558824,74.4867045 L21.6911765,74.4867045 Z" id="Path-36-Copy-13" stroke="#D8D8D8" stroke-width="0.88" fill="#D8D8D8"></path>
                <path d="M41.6470588,74.4867045 L41.6470588,66.9467076 C41.626763,66.2286127 41.3324733,65.8695652 40.7641899,65.8695652 C40.1959064,65.8695652 39.9117647,66.2286127 39.9117647,66.9467076 L39.9117647,74.4867045 L41.6470588,74.4867045 Z" id="Path-36-Copy-16" stroke="#D8D8D8" stroke-width="0.88" fill="#D8D8D8"></path>
                <path d="M18.2205882,55.3304348 L18.2205882,49.1826087 C18.2002924,48.5971014 17.9060028,48.3043478 17.3377193,48.3043478 C16.7694358,48.3043478 16.4852941,48.5971014 16.4852941,49.1826087 L16.4852941,55.3304348 L18.2205882,55.3304348 Z" id="Path-36-Copy-10" stroke="#D8D8D8" stroke-width="0.88" fill="#D8D8D8"></path>
                <path d="M38.1764706,55.3304348 L38.1764706,49.1826087 C38.1561748,48.5971014 37.8618851,48.3043478 37.2936017,48.3043478 C36.7253182,48.3043478 36.4411765,48.5971014 36.4411765,49.1826087 L36.4411765,55.3304348 L38.1764706,55.3304348 Z" id="Path-36-Copy-17" stroke="#D8D8D8" stroke-width="0.88" fill="#D8D8D8"></path>
                <path d="M18.2205882,64.1130435 L18.2205882,57.9652174 C18.2002924,57.3797101 17.9060028,57.0869565 17.3377193,57.0869565 C16.7694358,57.0869565 16.4852941,57.3797101 16.4852941,57.9652174 L16.4852941,64.1130435 L18.2205882,64.1130435 Z" id="Path-36-Copy-12" stroke="#D8D8D8" stroke-width="0.88" fill="#D8D8D8"></path>
                <path d="M38.1764706,64.1130435 L38.1764706,57.9652174 C38.1561748,57.3797101 37.8618851,57.0869565 37.2936017,57.0869565 C36.7253182,57.0869565 36.4411765,57.3797101 36.4411765,57.9652174 L36.4411765,64.1130435 L38.1764706,64.1130435 Z" id="Path-36-Copy-18" stroke="#D8D8D8" stroke-width="0.88" fill="#D8D8D8"></path>
                <path d="M18.2205882,74.4867045 L18.2205882,66.9467076 C18.2002924,66.2286127 17.9060028,65.8695652 17.3377193,65.8695652 C16.7694358,65.8695652 16.4852941,66.2286127 16.4852941,66.9467076 L16.4852941,74.4867045 L18.2205882,74.4867045 Z" id="Path-36-Copy-14" stroke="#D8D8D8" stroke-width="0.88" fill="#D8D8D8"></path>
                <path d="M38.1764706,74.4867045 L38.1764706,66.9467076 C38.1561748,66.2286127 37.8618851,65.8695652 37.2936017,65.8695652 C36.7253182,65.8695652 36.4411765,66.2286127 36.4411765,66.9467076 L36.4411765,74.4867045 L38.1764706,74.4867045 Z" id="Path-36-Copy-19" stroke="#D8D8D8" stroke-width="0.88" fill="#D8D8D8"></path>
                <path d="M21.6911765,97.969118 L21.6911765,89.8624441 C21.6708806,89.0903799 21.376591,88.7043478 20.8083075,88.7043478 C20.2400241,88.7043478 19.9558824,89.0903799 19.9558824,89.8624441 L19.9558824,97.969118 L21.6911765,97.969118 Z" id="Path-36-Copy-3" stroke="#D8D8D8" stroke-width="0.88" fill="#D8D8D8"></path>
                <path d="M41.6318369,97.969118 L41.6318369,89.8624441 C41.6115411,89.0903799 41.3172515,88.7043478 40.748968,88.7043478 C40.1806846,88.7043478 39.8965428,89.0903799 39.8965428,89.8624441 L39.8965428,97.969118 L41.6318369,97.969118 Z" id="Path-36-Copy-5" stroke="#D8D8D8" stroke-width="0.88" fill="#D8D8D8"></path>
                <path d="M18.2205882,97.969118 L18.2205882,89.8624441 C18.2002924,89.0903799 17.9060028,88.7043478 17.3377193,88.7043478 C16.7694358,88.7043478 16.4852941,89.0903799 16.4852941,89.8624441 L16.4852941,97.969118 L18.2205882,97.969118 Z" id="Path-36-Copy-4" stroke="#D8D8D8" stroke-width="0.88" fill="#D8D8D8"></path>
                <path d="M38.1612487,97.969118 L38.1612487,89.8624441 C38.1409529,89.0903799 37.8466632,88.7043478 37.2783798,88.7043478 C36.7100963,88.7043478 36.4259546,89.0903799 36.4259546,89.8624441 L36.4259546,97.969118 L38.1612487,97.969118 Z" id="Path-36-Copy-6" stroke="#D8D8D8" stroke-width="0.88" fill="#D8D8D8"></path>
                <polygon id="Path-33" stroke="#000000" stroke-width="1.76" points="15.6176471 101 15.6176471 46.5478261 22.5588235 46.5478261 22.5588235 101"></polygon>
                <path d="" id="Path-34" stroke="#000000" stroke-width="0.88"></path>
                <path d="" id="Path-35" stroke="#000000" stroke-width="0.88"></path>
                <path d="M17.7867647,82.9956522 L17.7867647,85.9515885" id="Line-21" stroke="#000000" stroke-width="0.88" stroke-linecap="square"></path>
                <path d="M19.5220588,82.9956522 L19.5220588,85.9515885" id="Line-21-Copy" stroke="#000000" stroke-width="0.88" stroke-linecap="square"></path>
                <path d="M21.2573529,82.9956522 L21.2573529,85.9515885" id="Line-21-Copy-2" stroke="#000000" stroke-width="0.88" stroke-linecap="square"></path>
                <path d="M16.500516,82.9956522 L21.6911765,82.9956522" id="Line-20" stroke="#000000" stroke-width="0.88" stroke-linecap="square"></path>
                <path d="M16.500516,86.5086957 L21.6911765,86.5086957" id="Line-20-Copy" stroke="#000000" stroke-width="0.88" stroke-linecap="square"></path>
                <path d="M42.4401712,79.9598318 C44.3404724,77.5924077 45.5535463,76.4086957 46.079393,76.4086957 C46.6052397,76.4086957 47.7358101,77.5924077 49.4711042,79.9598318" id="Path-38" stroke="#D8D8D8" stroke-width="0.88"></path>
                <ellipse id="Oval" stroke="#D8D8D8" stroke-width="0.88" cx="46.000516" cy="79.0434783" rx="1.73529412" ry="1.75652174"></ellipse>
                <ellipse id="Oval" stroke="#D8D8D8" stroke-width="0.88" cx="44.2652219" cy="81.6782609" rx="1" ry="1"></ellipse>
                <ellipse id="Oval-Copy" stroke="#D8D8D8" stroke-width="0.88" cx="47.7358101" cy="81.6782609" rx="1" ry="1"></ellipse>
                <path d="M46.000516,82.1173913 L46.000516,93.5347826" id="Line-22" stroke="#D8D8D8" stroke-width="0.88" stroke-linecap="square"></path>
                <path d="M47.7358101,83.873913 L47.7358101,93.5347826" id="Line-22-Copy" stroke="#D8D8D8" stroke-width="0.88" stroke-linecap="square"></path>
                <path d="M44.2652219,83.873913 L44.2652219,93.5347826" id="Line-22-Copy-2" stroke="#D8D8D8" stroke-width="0.88" stroke-linecap="square"></path>
                <path d="M43.3975748,94.4130435 L49.0372807,94.4130435" id="Line-23" stroke="#000000" stroke-width="0.88" stroke-linecap="square"></path>
                <path d="M8.67647059,79.9598318 C10.4643494,77.5924077 11.6212121,76.4086957 12.1470588,76.4086957 C12.6729055,76.4086957 13.8297683,77.8217086 15.6176471,80.6477346" id="Path-38" stroke="#D8D8D8" stroke-width="0.88"></path>
                <ellipse id="Oval" stroke="#D8D8D8" stroke-width="0.88" transform="translate(12.221594, 79.043478) scale(-1, 1) translate(-12.221594, -79.043478) " cx="12.2215935" cy="79.0434783" rx="1.73529412" ry="1.75652174"></ellipse>
                <ellipse id="Oval" stroke="#D8D8D8" stroke-width="0.88" transform="translate(10.486299, 81.678261) scale(-1, 1) translate(-10.486299, -81.678261) " cx="10.4862994" cy="81.6782609" rx="1" ry="1"></ellipse>
                <ellipse id="Oval-Copy" stroke="#D8D8D8" stroke-width="0.88" transform="translate(13.882353, 81.678261) scale(-1, 1) translate(-13.882353, -81.678261) " cx="13.8823529" cy="81.6782609" rx="1" ry="1"></ellipse>
                <path d="M12.1470588,82.1173913 L12.1470588,93.5347826" id="Line-22" stroke="#D8D8D8" stroke-width="0.88" stroke-linecap="square" transform="translate(12.147059, 87.826087) scale(-1, 1) translate(-12.147059, -87.826087) "></path>
                <path d="M13.8823529,83.873913 L13.8823529,93.5347826" id="Line-22-Copy" stroke="#D8D8D8" stroke-width="0.88" stroke-linecap="square" transform="translate(13.882353, 88.704348) scale(-1, 1) translate(-13.882353, -88.704348) "></path>
                <path d="M10.4117647,83.873913 L10.4117647,93.5347826" id="Line-22-Copy-2" stroke="#D8D8D8" stroke-width="0.88" stroke-linecap="square" transform="translate(10.411765, 88.704348) scale(-1, 1) translate(-10.411765, -88.704348) "></path>
                <path d="M8.67647059,94.4130435 L14.3161765,94.4130435" id="Line-23" stroke="#000000" stroke-width="0.88" stroke-linecap="square" transform="translate(11.713235, 94.413043) scale(-1, 1) translate(-11.713235, -94.413043) "></path>
                <path d="M40.7794118,76.8478261 L40.7794118,80.8380926" id="Line-19" stroke="#D8D8D8" stroke-width="0.88" stroke-linecap="round" transform="translate(40.779412, 79.043478) scale(-1, 1) translate(-40.779412, -79.043478) "></path>
                <polygon id="Path-33" stroke="#000000" stroke-width="1.76" transform="translate(39.044118, 73.773913) scale(-1, 1) translate(-39.044118, -73.773913) " points="35.5735294 101 35.5735294 46.5478261 42.5147059 46.5478261 42.5147059 101"></polygon>
                <path d="" id="Path-34" stroke="#000000" stroke-width="0.88" transform="translate(42.514706, 55.330435) scale(-1, 1) translate(-42.514706, -55.330435) "></path>
                <path d="" id="Path-35" stroke="#000000" stroke-width="0.88" transform="translate(35.573529, 55.330435) scale(-1, 1) translate(-35.573529, -55.330435) "></path>
                <path d="M40.3455882,82.9956522 L40.3455882,85.9515885" id="Line-21" stroke="#000000" stroke-width="0.88" stroke-linecap="square" transform="translate(40.345588, 84.313043) scale(-1, 1) translate(-40.345588, -84.313043) "></path>
                <path d="M38.6102941,82.9956522 L38.6102941,85.9515885" id="Line-21-Copy" stroke="#000000" stroke-width="0.88" stroke-linecap="square" transform="translate(38.610294, 84.313043) scale(-1, 1) translate(-38.610294, -84.313043) "></path>
                <path d="M36.875,82.9956522 L36.875,85.9515885" id="Line-21-Copy-2" stroke="#000000" stroke-width="0.88" stroke-linecap="square" transform="translate(36.875000, 84.313043) scale(-1, 1) translate(-36.875000, -84.313043) "></path>
                <path d="M35.5887513,82.9956522 L40.7794118,82.9956522" id="Line-20" stroke="#000000" stroke-width="0.88" stroke-linecap="square" transform="translate(38.610294, 82.995652) scale(-1, 1) translate(-38.610294, -82.995652) "></path>
                <path d="M35.5887513,86.5086957 L40.7794118,86.5086957" id="Line-20-Copy" stroke="#000000" stroke-width="0.88" stroke-linecap="square" transform="translate(38.610294, 86.508696) scale(-1, 1) translate(-38.610294, -86.508696) "></path>
                <path d="M22.5588235,101 C22.5588235,96.9014493 22.5588235,93.6811594 22.5588235,91.3391304 C22.5588235,89.7037544 24.8517438,87.2706392 28.6323529,86.9478261 C28.6323529,86.9478261 29.2039786,86.9478261 29.5,86.9478261 C33.7920879,86.9478261 35.5735294,89.5826087 35.5735294,91.3391304" id="Path-39" stroke="#000000" stroke-width="1.76"></path>
                <path d="M25.1617647,93.5347826 L32.8393127,93.5347826" id="Line-25" stroke="#000000" stroke-width="0.88" stroke-linecap="square"></path>
                <path d="M22.5588235,84.7521739 L35.1397059,84.7521739" id="Line-26" stroke="#000000" stroke-width="0.88" stroke-linecap="square"></path>
                <path d="M22.5588235,82.9956522 L35.1397059,82.9956522" id="Line-26-Copy" stroke="#000000" stroke-width="0.88" stroke-linecap="square"></path>
                <path d="M27.7647059,82.9383743 C27.7647059,68.631632 27.7647059,61.1855072 27.7647059,60.6 C27.7647059,59.7217391 27.7799278,59.7217391 28.6323529,59.7217391 C29.0661765,59.7217391 29.0661765,59.7217391 29.4847781,59.7217391 C30.3676471,59.7217391 30.3676471,59.7217391 30.3676471,60.6 C30.3676471,61.1855072 30.3676471,68.631632 30.3676471,82.9383743 L27.7647059,82.9383743 Z" id="Path-42" stroke="#000000" stroke-width="0.88"></path>
                <path d="M27.7647059,82.9383743 L27.7647059,60.6 C27.1862745,59.4289855 26.6078431,58.8434783 26.0294118,58.8434783 C25.4509804,58.8434783 24.872549,59.4289855 24.2941176,60.6 L24.2941176,82.9383743 L27.7647059,82.9383743 Z" id="Path-43" stroke="#000000" stroke-width="0.88"></path>
                <path d="M33.8382353,82.9383743 L33.8382353,60.6 C33.2598039,59.4289855 32.6813725,58.8434783 32.1029412,58.8434783 C31.5245098,58.8434783 30.9460784,59.4289855 30.3676471,60.6 L30.3676471,82.9383743 L33.8382353,82.9383743 Z" id="Path-43" stroke="#000000" stroke-width="0.88"></path>
                <path d="M26.0294118,61.0391304 L26.0294118,62.7956522" id="Line-27" stroke="#D8D8D8" stroke-width="0.88" stroke-linecap="square"></path>
                <path d="M32.0877193,61.0391304 L32.0877193,62.7956522" id="Line-27-Copy" stroke="#D8D8D8" stroke-width="0.88" stroke-linecap="square"></path>
                <path d="M25.5955882,61.9173913 L26.4632353,61.9173913" id="Line-28" stroke="#D8D8D8" stroke-width="0.88" stroke-linecap="square"></path>
                <path d="M31.6538958,61.9173913 L32.5215428,61.9173913" id="Line-28-Copy" stroke="#D8D8D8" stroke-width="0.88" stroke-linecap="square"></path>
                <ellipse id="Oval" stroke="#000000" stroke-width="0.88" fill="#D8D8D8" cx="29.0661765" cy="54.8913043" rx="3.03676471" ry="3.07391304"></ellipse>
                <path d="M22.5588235,56.2086957 C25.1717377,52.1101449 27.3408553,50.0608696 29.0661765,50.0608696 C30.7914976,50.0608696 32.9606153,52.1101449 35.5735294,56.2086957" id="Path-44" stroke="#000000" stroke-width="0.88"></path>
                <path d="M22.5588235,48.7434783 L34.9429098,48.7434783" id="Line-29" stroke="#000000" stroke-width="0.88" stroke-linecap="square"></path>
                <path d="M27.7647059,48.7434783 L27.7647059,44.7913043 C28.3828541,43.6202899 28.8166776,43.0347826 29.0661765,43.0347826 C29.3156753,43.0347826 29.7494988,43.6202899 30.3676471,44.7913043 L30.3676471,48.7434783 L27.7647059,48.7434783 Z" id="Path-45" stroke="#000000" stroke-width="0.88" fill="#D8D8D8"></path>
                <path d="M5.20588235,58.8434783 L15.6176471,58.8434783" id="Line-34" stroke="#000000" stroke-width="1.76" stroke-linecap="square"></path>
                <path d="M5.20588235,49.1826087 L15.6176471,49.1826087" id="Line-34-Copy-2" stroke="#000000" stroke-width="1.76" stroke-linecap="square"></path>
                <path d="M42.5299278,58.8434783 L52.9264706,58.8434783" id="Line-34-Copy" stroke="#000000" stroke-width="1.76" stroke-linecap="square"></path>
                <path d="M42.5299278,49.1826087 L52.9264706,49.1826087" id="Line-34-Copy-3" stroke="#000000" stroke-width="1.76" stroke-linecap="square"></path>
                <polygon id="Path-47" stroke="#000000" stroke-width="1.76" fill="#D8D8D8" points="42.5147059 64.9625532 52.0588235 72.0173913 42.5147059 72.0173913"></polygon>
                <polygon id="Path-37" stroke="#000000" stroke-width="1.76" points="50.3387513 96.4623188 42.4401712 96.4623188 42.4401712 79.9598318 46.079393 70.2608696 50.3387513 81.6512743"></polygon>
                <polygon id="Path-48" stroke="#000000" stroke-width="1.76" fill="#D8D8D8" points="15.6176471 72.0173913 6.07352941 72.0173913 15.6176471 64.9625532"></polygon>
                <polygon id="Path-37" stroke="#000000" stroke-width="1.76" transform="translate(11.668357, 83.361594) scale(-1, 1) translate(-11.668357, -83.361594) " points="15.6176471 96.4623188 7.71906694 96.4623188 7.71906694 79.9598318 11.3582888 70.2608696 15.6176471 81.6512743"></polygon>
                <path d="M7.80882353,57.9652174 L7.80882353,54.4521739 C7.80882353,53.8666667 8.09803922,53.573913 8.67647059,53.573913 C9.25490196,53.573913 9.54411765,53.8666667 9.54411765,54.4521739 L9.54411765,57.9652174 L7.80882353,57.9652174 Z" id="Path-50" stroke="#D8D8D8" stroke-width="0.88" fill="#D8D8D8"></path>
                <path d="M45.1176471,57.9652174 L45.1176471,54.4521739 C45.1176471,53.8666667 45.4068627,53.573913 45.9852941,53.573913 C46.5637255,53.573913 46.8529412,53.8666667 46.8529412,54.4521739 L46.8529412,57.9652174 L45.1176471,57.9652174 Z" id="Path-50-Copy-3" stroke="#D8D8D8" stroke-width="0.88" fill="#D8D8D8"></path>
                <path d="M11.2794118,57.9652174 L11.2794118,54.4521739 C11.2794118,53.8666667 11.5686275,53.573913 12.1470588,53.573913 C12.7254902,53.573913 13.0147059,53.8666667 13.0147059,54.4521739 L13.0147059,57.9652174 L11.2794118,57.9652174 Z" id="Path-50-Copy" stroke="#D8D8D8" stroke-width="0.88" fill="#D8D8D8"></path>
                <path d="M48.5882353,57.9652174 L48.5882353,54.4521739 C48.5882353,53.8666667 48.877451,53.573913 49.4558824,53.573913 C50.0343137,53.573913 50.3235294,53.8666667 50.3235294,54.4521739 L50.3235294,57.9652174 L48.5882353,57.9652174 Z" id="Path-50-Copy-4" stroke="#D8D8D8" stroke-width="0.88" fill="#D8D8D8"></path>
                <path d="M9.54411765,57.9652174 L9.54411765,53.7495652 C9.54411765,53.0469565 9.83333333,52.6956522 10.4117647,52.6956522 C10.9901961,52.6956522 11.2794118,53.0469565 11.2794118,53.7495652 L11.2794118,57.9652174 L9.54411765,57.9652174 Z" id="Path-50-Copy-2" stroke="#D8D8D8" stroke-width="0.88" fill="#D8D8D8"></path>
                <path d="M46.8529412,57.9652174 L46.8529412,53.7495652 C46.8529412,53.0469565 47.1421569,52.6956522 47.7205882,52.6956522 C48.2990196,52.6956522 48.5882353,53.0469565 48.5882353,53.7495652 L48.5882353,57.9652174 L46.8529412,57.9652174 Z" id="Path-50-Copy-5" stroke="#D8D8D8" stroke-width="0.88" fill="#D8D8D8"></path>
                <path d="M6.94117647,58.4743541 C6.94117647,56.3784079 6.94117647,54.7449275 6.94117647,53.573913 C6.94117647,52.6956522 7.80882353,50.9391304 10.4117647,50.9391304 C13.0147059,50.9391304 13.8823529,52.6956522 13.8823529,53.573913 C13.8823529,54.7449275 13.8823529,56.3784079 13.8823529,58.4743541 L6.94117647,58.4743541 Z" id="Path-49" stroke="#000000" stroke-width="0.88"></path>
                <path d="M44.25,58.4743541 C44.25,56.3784079 44.25,54.7449275 44.25,53.573913 C44.25,52.6956522 45.1176471,50.9391304 47.7205882,50.9391304 C50.3235294,50.9391304 51.1911765,52.6956522 51.1911765,53.573913 C51.1911765,54.7449275 51.1911765,56.3784079 51.1911765,58.4743541 L44.25,58.4743541 Z" id="Path-49-Copy" stroke="#000000" stroke-width="0.88"></path>
                <path d="M24.2941176,25.4716576 L27.7647059,25.4716576 L27.7647059,15.810788 C27.1862745,14.0033526 26.6078431,13.1250917 26.0294118,13.1760054 C25.4509804,13.2269191 24.872549,14.1051799 24.2941176,15.810788 L24.2941176,25.4716576 Z" id="Path-51-Copy" stroke="#D8D8D8" stroke-width="0.88" fill="#D8D8D8"></path>
                <path d="M24.2941176,39.5238315 L27.7647059,39.5238315 L27.7647059,29.8629619 C27.1862745,28.0555265 26.6078431,27.1772656 26.0294118,27.2281793 C25.4509804,27.279093 24.872549,28.1573538 24.2941176,29.8629619 L24.2941176,39.5238315 Z" id="Path-51-Copy-3" stroke="#D8D8D8" stroke-width="0.88" fill="#D8D8D8"></path>
                <path d="M30.3676471,25.4716576 L33.8382353,25.4716576 L33.8382353,15.810788 C33.2598039,14.0033526 32.6813725,13.1250917 32.1029412,13.1760054 C31.5245098,13.2269191 30.9460784,14.1051799 30.3676471,15.810788 L30.3676471,25.4716576 Z" id="Path-51-Copy-2" stroke="#D8D8D8" stroke-width="0.88" fill="#D8D8D8"></path>
                <path d="M30.3676471,39.5238315 L33.8382353,39.5238315 L33.8382353,29.8629619 C33.2598039,28.0555265 32.6813725,27.1772656 32.1029412,27.2281793 C31.5245098,27.279093 30.9460784,28.1573538 30.3676471,29.8629619 L30.3676471,39.5238315 Z" id="Path-51-Copy-4" stroke="#D8D8D8" stroke-width="0.88" fill="#D8D8D8"></path>
                <polygon id="Path-46" stroke="#000000" stroke-width="0.88" points="23.4264706 48.7434783 28.9614604 40.4 34.7521114 48.7434783"></polygon>
                <polygon id="Path-52" stroke="#D8D8D8" stroke-width="0.88" fill="#D8D8D8" points="25.1617647 93.171738 32.9705882 93.171738 32.9705882 92.2173913 29.9338235 89.5826087 28.1985294 89.5826087 25.1617647 92.2173913"></polygon>
                <path d="M25.1617647,101 C25.1617647,96.9014493 25.1617647,93.973913 25.1617647,92.2173913 C25.1617647,90.4608696 26.8970588,89.5826087 28.6323529,89.5826087 C29.0661765,89.5826087 29.0661765,89.5826087 29.5,89.5826087 C31.2352941,89.5826087 32.9705882,90.4608696 32.9705882,92.2173913 C32.9705882,93.3884058 32.9705882,96.315942 32.9705882,101 L25.1617647,101 Z" id="Path-40" stroke="#000000" stroke-width="0.88"></path>
            </g>
            <g id="Belfort" transform="translate(120.000000, 51.000000)" fill-rule="nonzero">
                <ellipse id="Oval" stroke="#000000" stroke-width="1.8" fill="#D8D8D8" cx="45.2606838" cy="45.1449275" rx="3.26068376" ry="3.14492754"></ellipse>
                <path d="M104.807692,87.1594203 L108.068376,87.1594203" id="Line-5" stroke="#020202" stroke-width="1.8" stroke-linecap="square"></path>
                <polygon id="Path-25" stroke="#D8D8D8" stroke-width="1.8" fill="#FFFFFF" points="6.52136752 97.2070826 6.52136752 90.7536232 101.547009 90.7536232 101.547009 97.2070826"></polygon>
                <rect id="Rectangle" stroke="#000000" stroke-width="1.8" fill="#FFFFFF" x="4.65811966" y="97.0434783" width="98.7521368" height="26.9565217"></rect>
                <rect id="Rectangle" stroke="#000000" stroke-width="1.8" fill="#FFFFFF" x="101.547009" y="77.2753623" width="4.65811966" height="19.7681159"></rect>
                <path d="M4.65811966,102.434783 L106.67094,102.434783" id="Line-4-Copy" stroke="#000000" stroke-width="1.8" stroke-linecap="square"></path>
                <path d="M9.78205128,121.304348 L9.78205128,118.833333" id="Line-2" stroke="#D8D8D8" stroke-width="1.8" stroke-linecap="square"></path>
                <path d="M19.0982906,121.304348 L19.0982906,118.833333" id="Line-2-Copy-2" stroke="#D8D8D8" stroke-width="1.8" stroke-linecap="square"></path>
                <path d="M28.4145299,121.304348 L28.4145299,118.833333" id="Line-2-Copy-4" stroke="#D8D8D8" stroke-width="1.8" stroke-linecap="square"></path>
                <path d="M37.7307692,121.304348 L37.7307692,118.833333" id="Line-2-Copy-6" stroke="#D8D8D8" stroke-width="1.8" stroke-linecap="square"></path>
                <path d="M47.0470085,121.304348 L47.0470085,118.833333" id="Line-2-Copy-8" stroke="#D8D8D8" stroke-width="1.8" stroke-linecap="square"></path>
                <path d="M56.3632479,121.304348 L56.3632479,118.833333" id="Line-2-Copy-10" stroke="#D8D8D8" stroke-width="1.8" stroke-linecap="square"></path>
                <path d="M65.6794872,121.304348 L65.6794872,118.833333" id="Line-2-Copy-12" stroke="#D8D8D8" stroke-width="1.8" stroke-linecap="square"></path>
                <path d="M74.9957265,121.304348 L74.9957265,118.833333" id="Line-2-Copy-14" stroke="#D8D8D8" stroke-width="1.8" stroke-linecap="square"></path>
                <path d="M84.3119658,121.304348 L84.3119658,118.833333" id="Line-2-Copy-16" stroke="#D8D8D8" stroke-width="1.8" stroke-linecap="square"></path>
                <path d="M93.6282051,121.304348 L93.6282051,118.833333" id="Line-2-Copy-18" stroke="#D8D8D8" stroke-width="1.8" stroke-linecap="square"></path>
                <path d="M12.5769231,121.304348 L12.5769231,118.833333" id="Line-2-Copy" stroke="#D8D8D8" stroke-width="1.8" stroke-linecap="square"></path>
                <path d="M21.8931624,121.304348 L21.8931624,118.833333" id="Line-2-Copy-3" stroke="#D8D8D8" stroke-width="1.8" stroke-linecap="square"></path>
                <path d="M31.2094017,121.304348 L31.2094017,118.833333" id="Line-2-Copy-5" stroke="#D8D8D8" stroke-width="1.8" stroke-linecap="square"></path>
                <path d="M40.525641,121.304348 L40.525641,118.833333" id="Line-2-Copy-7" stroke="#D8D8D8" stroke-width="1.8" stroke-linecap="square"></path>
                <path d="M49.8418803,121.304348 L49.8418803,118.833333" id="Line-2-Copy-9" stroke="#D8D8D8" stroke-width="1.8" stroke-linecap="square"></path>
                <path d="M59.1581197,121.304348 L59.1581197,118.833333" id="Line-2-Copy-11" stroke="#D8D8D8" stroke-width="1.8" stroke-linecap="square"></path>
                <path d="M68.474359,121.304348 L68.474359,118.833333" id="Line-2-Copy-13" stroke="#D8D8D8" stroke-width="1.8" stroke-linecap="square"></path>
                <path d="M77.7905983,121.304348 L77.7905983,118.833333" id="Line-2-Copy-15" stroke="#D8D8D8" stroke-width="1.8" stroke-linecap="square"></path>
                <path d="M87.1068376,121.304348 L87.1068376,118.833333" id="Line-2-Copy-17" stroke="#D8D8D8" stroke-width="1.8" stroke-linecap="square"></path>
                <path d="M96.4230769,121.304348 L96.4230769,118.833333" id="Line-2-Copy-19" stroke="#D8D8D8" stroke-width="1.8" stroke-linecap="square"></path>
                <path d="M9.31623932,113.96163 L13.042735,113.96163 L13.042735,107.791795 C12.7321937,106.616589 12.1111111,106.028986 11.1794872,106.028986 C10.2478632,106.028986 9.62678063,106.616589 9.31623932,107.791795 L9.31623932,113.96163 Z" id="Path-7" stroke="#D8D8D8" stroke-width="1.8" fill="#D8D8D8"></path>
                <path d="M18.6324786,113.96163 L22.3589744,113.96163 L22.3589744,107.791795 C22.048433,106.616589 21.4273504,106.028986 20.4957265,106.028986 C19.5641026,106.028986 18.9430199,106.616589 18.6324786,107.791795 L18.6324786,113.96163 Z" id="Path-7-Copy" stroke="#D8D8D8" stroke-width="1.8" fill="#D8D8D8"></path>
                <path d="M27.9487179,113.96163 L31.6752137,113.96163 L31.6752137,107.791795 C31.3646724,106.616589 30.7435897,106.028986 29.8119658,106.028986 C28.8803419,106.028986 28.2592593,106.616589 27.9487179,107.791795 L27.9487179,113.96163 Z" id="Path-7-Copy-2" stroke="#D8D8D8" stroke-width="1.8" fill="#D8D8D8"></path>
                <path d="M37.2649573,113.96163 L40.991453,113.96163 L40.991453,107.791795 C40.6809117,106.616589 40.0598291,106.028986 39.1282051,106.028986 C38.1965812,106.028986 37.5754986,106.616589 37.2649573,107.791795 L37.2649573,113.96163 Z" id="Path-7-Copy-3" stroke="#D8D8D8" stroke-width="1.8" fill="#D8D8D8"></path>
                <path d="M46.5811966,113.96163 L50.3076923,113.96163 L50.3076923,107.791795 C49.997151,106.616589 49.3760684,106.028986 48.4444444,106.028986 C47.5128205,106.028986 46.8917379,106.616589 46.5811966,107.791795 L46.5811966,113.96163 Z" id="Path-7-Copy-4" stroke="#D8D8D8" stroke-width="1.8" fill="#D8D8D8"></path>
                <path d="M55.8974359,113.96163 L59.6239316,113.96163 L59.6239316,107.791795 C59.3133903,106.616589 58.6923077,106.028986 57.7606838,106.028986 C56.8290598,106.028986 56.2079772,106.616589 55.8974359,107.791795 L55.8974359,113.96163 Z" id="Path-7-Copy-5" stroke="#D8D8D8" stroke-width="1.8" fill="#D8D8D8"></path>
                <path d="M65.2136752,113.96163 L68.9401709,113.96163 L68.9401709,107.791795 C68.6296296,106.616589 68.008547,106.028986 67.0769231,106.028986 C66.1452991,106.028986 65.5242165,106.616589 65.2136752,107.791795 L65.2136752,113.96163 Z" id="Path-7-Copy-6" stroke="#D8D8D8" stroke-width="1.8" fill="#D8D8D8"></path>
                <polygon id="Path-36" fill="#FFFFFF" points="31 75 58 75 58 55 31 55"></polygon>
                <path d="M31,67.8985507 L58.017094,67.8985507" id="Line-8" stroke="#000000" stroke-width="1.8" stroke-linecap="square"></path>
                <path d="M74.5299145,113.96163 L78.2564103,113.96163 L78.2564103,107.791795 C77.9458689,106.616589 77.3247863,106.028986 76.3931624,106.028986 C75.4615385,106.028986 74.8404558,106.616589 74.5299145,107.791795 L74.5299145,113.96163 Z" id="Path-7-Copy-7" stroke="#D8D8D8" stroke-width="1.8" fill="#D8D8D8"></path>
                <path d="M83.8461538,113.96163 L87.5726496,113.96163 L87.5726496,107.791795 C87.2621083,106.616589 86.6410256,106.028986 85.7094017,106.028986 C84.7777778,106.028986 84.1566952,106.616589 83.8461538,107.791795 L83.8461538,113.96163 Z" id="Path-7-Copy-10" stroke="#D8D8D8" stroke-width="1.8" fill="#D8D8D8"></path>
                <path d="M93.1623932,113.96163 L96.8888889,113.96163 L96.8888889,107.791795 C96.5783476,106.616589 95.957265,106.028986 95.025641,106.028986 C94.0940171,106.028986 93.4729345,106.616589 93.1623932,107.791795 L93.1623932,113.96163 Z" id="Path-7-Copy-9" stroke="#D8D8D8" stroke-width="1.8" fill="#D8D8D8"></path>
                <path d="M4.65811966,115.463768 L106.67094,115.463768" id="Line-4" stroke="#000000" stroke-width="1.8" stroke-linecap="square"></path>
                <polygon id="Path-8" stroke="#000000" stroke-width="1.8" fill="#D8D8D8" points="101.136408 77.2753623 106.67094 77.2753623 104.108974 68.2898551"></polygon>
                <path d="M0.465811966,87.1594203 L3.72649573,87.1594203" id="Line-5" stroke="#020202" stroke-width="1.8" stroke-linecap="square"></path>
                <rect id="Rectangle" stroke="#000000" stroke-width="1.8" fill="#FFFFFF" x="1.86324786" y="77.2753623" width="4.65811966" height="19.7681159"></rect>
                <polygon id="Path-8" stroke="#000000" stroke-width="1.8" fill="#D8D8D8" points="1.45264745 77.2753623 6.98717949 77.2753623 4.42521368 68.2898551"></polygon>
                <polygon id="Path-9" stroke="#000000" stroke-width="1.8" fill="#D8D8D8" points="101.547009 83.9435545 97.8205128 74.5797101 55.8974359 74.5797101 10.2478632 74.5797101 6.52136752 83.092296 6.52136752 90.7536232 101.547009 90.7536232"></polygon>
                <polyline id="Path-9" stroke="#000000" stroke-width="1.8" transform="translate(31.442308, 79.521739) scale(-1, 1) translate(-31.442308, -79.521739) " points="56.3632479 84.4637681 52.6367521 74.5797101 6.52136752 74.5797101"></polyline>
                <polygon id="Path-11" stroke="#000000" stroke-width="1.8" points="10.2478632 90.7536232 10.2478632 86.2608696 12.1111111 83.5652174 13.974359 86.2608696 13.974359 90.7536232"></polygon>
                <polygon id="Path-11-Copy" stroke="#000000" stroke-width="1.8" points="18.6324786 90.7536232 18.6324786 86.2608696 20.4957265 83.5652174 22.3589744 86.2608696 22.3589744 90.7536232"></polygon>
                <polygon id="Path-11-Copy-2" stroke="#000000" stroke-width="1.8" points="27.9487179 90.7536232 27.9487179 86.2608696 29.8119658 83.5652174 31.6752137 86.2608696 31.6752137 90.7536232"></polygon>
                <polygon id="Path-11-Copy-3" stroke="#000000" stroke-width="1.8" points="37.2649573 90.7536232 37.2649573 86.2608696 39.1282051 83.5652174 40.991453 86.2608696 40.991453 90.7536232"></polygon>
                <polygon id="Path-11-Copy-4" stroke="#000000" stroke-width="1.8" points="46.5811966 90.7536232 46.5811966 86.2608696 48.4444444 83.5652174 50.3076923 86.2608696 50.3076923 90.7536232"></polygon>
                <polygon id="Path-11-Copy-5" stroke="#000000" stroke-width="1.8" points="55.8974359 90.7536232 55.8974359 86.2608696 57.7606838 83.5652174 59.6239316 86.2608696 59.6239316 90.7536232"></polygon>
                <polygon id="Path-11-Copy-6" stroke="#000000" stroke-width="1.8" points="65.2136752 90.7536232 65.2136752 86.2608696 67.0769231 83.5652174 68.9401709 86.2608696 68.9401709 90.7536232"></polygon>
                <polygon id="Path-11-Copy-7" stroke="#000000" stroke-width="1.8" points="74.5299145 90.7536232 74.5299145 86.2608696 76.3931624 83.5652174 78.2564103 86.2608696 78.2564103 90.7536232"></polygon>
                <polygon id="Path-11-Copy-8" stroke="#000000" stroke-width="1.8" points="83.8461538 90.7536232 83.8461538 86.2608696 85.7094017 83.5652174 87.5726496 86.2608696 87.5726496 90.7536232"></polygon>
                <polygon id="Path-11-Copy-9" stroke="#000000" stroke-width="1.8" points="93.1623932 90.7536232 93.1623932 86.2608696 95.025641 83.5652174 96.8888889 86.2608696 96.8888889 90.7536232"></polygon>
                <polygon id="Path-12" stroke="#000000" stroke-width="1.8" fill="#FFFFFF" points="58.5213675 74.0805991 58.5213675 33.6650413 58.5213675 31 52 31 52 33.6650413 52 54.3124832 58.5213675 54.3124832"></polygon>
                <polygon id="Path-12" stroke="#000000" stroke-width="1.8" fill="#FFFFFF" transform="translate(34.260684, 52.565217) scale(-1, 1) translate(-34.260684, -52.565217) " points="37.5213675 74.1304348 37.5213675 33.714877 37.5213675 31.0498357 31 31 31 33.714877 31 54.3623188 37.5213675 54.3623188"></polygon>
                <path d="M31,54.4492754 L58.017094,54.4492754" id="Line-7" stroke="#000000" stroke-width="1.8" stroke-linecap="square"></path>
                <path d="M42,55.0725123 C42,46.6860388 42,42.1932852 42,41.5942514 C42,40.6957007 42.0002481,37.9867917 45.2606838,38.0000485 C48.5211194,38.0133052 48.5213675,40.6957007 48.5213675,41.5942514 C48.5213675,42.1932852 48.5213675,46.6860388 48.5213675,55.0725123 L42,55.0725123 Z" id="Path-13" stroke="#000000" stroke-width="1.8"></path>
                <path d="M39,65.1884058 L41.7948718,65.1884058 C41.7948718,62.1932367 41.7948718,60.3961353 41.7948718,59.7971014 C41.7948718,58.8985507 41.3290598,58 40.3974359,58 C39.465812,58 39,58.8985507 39,59.7971014 C39,60.3961353 39,62.1932367 39,65.1884058 Z" id="Path-15" stroke="#D8D8D8" stroke-width="1.8" fill="#D8D8D8"></path>
                <path d="M48,65.1884058 L50.7948718,65.1884058 C50.7948718,62.1932367 50.7948718,60.3961353 50.7948718,59.7971014 C50.7948718,58.8985507 50.3290598,58 49.3974359,58 C48.465812,58 48,58.8985507 48,59.7971014 C48,60.3961353 48,62.1932367 48,65.1884058 Z" id="Path-15-Copy" stroke="#D8D8D8" stroke-width="1.8" fill="#D8D8D8"></path>
                <polygon id="Path-16" stroke="#000000" stroke-width="1.8" fill="#D8D8D8" points="31 31.7826087 39.3846154 31.7826087 35.1923077 21"></polygon>
                <polygon id="Path-16-Copy" stroke="#000000" stroke-width="1.8" fill="#D8D8D8" points="51 31.7826087 58.9188034 31.7826087 54.9594017 21"></polygon>
                <polygon id="Path-16-Copy" stroke="#000000" stroke-width="1.8" fill="#FFFFFF" points="38 34.6347108 51.974359 34.6347108 48.2478632 14 41.7264957 14"></polygon>
                <polygon id="Path-17" stroke="#000000" stroke-width="1.8" fill="#D8D8D8" points="42 14.4087675 42 11.7131153 45.2606838 0 48.5213675 11.7131153 48.5213675 14.4087675"></polygon>
            </g>
            <g id="Bavos" transform="translate(234.000000, 66.000000)" fill-rule="nonzero">
                <polygon id="Path-18" stroke="#000000" stroke-width="1.584" fill="#FFFFFF" points="0.821428571 108.210145 0.821428571 102.681159 1.64285714 102.681159 1.64285714 90.8333333 0 90.8333333 0 88.4637681 1.64285714 88.4637681 1.64285714 82.1449275 3.28571429 72.6666667 3.28571429 75.0362319 10.6785714 75.0362319 11.5 74.2463768 11.5 54.5 12.3214286 54.5 12.3214286 36.3333333 11.5 36.3333333 11.5 33.9637681 13.1428571 33.9637681 13.1428571 17.3768116 12.3214286 17.3768116 12.3214286 15.0072464 13.9642857 15.0072464 13.9642857 11.8478261 15.6071429 0 17.25 10.2681159 28.75 10.2681159 30.3928571 0 32.0357143 10.2681159 32.0357143 15.0072464 33.6785714 15.0072464 33.6785714 17.3768116 32.8571429 17.3768116 32.8571429 33.9637681 34.5 33.9637681 34.5 36.3333333 33.6785714 36.3333333 33.6785714 54.5 34.5 54.5 34.5 74.2463768 35.3214286 75.0362319 42.7142857 75.0362319 42.7142857 72.6666667 44.3571429 82.1449275 44.3571429 88.4637681 46 88.4637681 46 90.8333333 44.3571429 90.8333333 44.3571429 102.681159 45.1785714 102.681159 45.1785714 108.210145"></polygon>
                <polygon id="Path-23" fill="#D8D8D8" points="4.92857143 88.4637681 4.92857143 82.1449275 3.28571429 75.0362319 42.7142857 75.0362319 41.0714286 82.1449275 41.0714286 88.4637681 34.5 88.4637681 34.5 92.103097 11.0892857 92.4130435 11.0892857 88.4637681"></polygon>
                <polygon id="Path-24" fill="#FFFFFF" points="11.5 75.0362319 11.5 90.8333333 10.6785714 92.4130435 35.3214286 92.4130435 34.5 90.8333333 34.5 75.0362319"></polygon>
                <path d="M4.92857143,88.4637681 L11.0892857,88.4637681" id="Line-9" stroke="#000000" stroke-width="1.584" stroke-linecap="square"></path>
                <path d="M35.3214286,88.4637681 L41.4821429,88.4637681" id="Line-9-Copy" stroke="#000000" stroke-width="1.584" stroke-linecap="square"></path>
                <polygon id="Path-19" stroke="#000000" stroke-width="1.584" fill="#FFFFFF" points="21.3571429 15.0072464 21.3571429 11.8478261 23 9.47826087 24.6428571 11.8478261 24.6428571 15.0072464"></polygon>
                <path d="M11.0892857,92.4130435 L11.0892857,108.118842" id="Line-10" stroke="#000000" stroke-width="1.584" stroke-linecap="square"></path>
                <path d="M34.9107143,92.4130435 L34.9107143,108.118842" id="Line-10-Copy" stroke="#000000" stroke-width="1.584" stroke-linecap="square"></path>
                <path d="M21.3571429,31.5942029 L21.3571429,21.2273551 C21.3571429,20.2400362 21.9047619,19.7463768 23,19.7463768 C24.0952381,19.7463768 24.6428571,20.2400362 24.6428571,21.2273551 L24.6428571,31.5942029 L21.3571429,31.5942029 Z" id="Path-20" stroke="#D8D8D8" stroke-width="1.584" fill="#D8D8D8"></path>
                <path d="M18.0714286,51.3405797 L18.0714286,40.9737319 C18.0714286,39.986413 18.6190476,39.4927536 19.7142857,39.4927536 C20.8095238,39.4927536 21.3571429,39.986413 21.3571429,40.9737319 L21.3571429,51.3405797 L18.0714286,51.3405797 Z" id="Path-20-Copy" stroke="#D8D8D8" stroke-width="1.584" fill="#D8D8D8"></path>
                <path d="M18.0714286,71.8768116 L18.0714286,60.8188406 C18.0714286,59.7657005 18.6190476,59.2391304 19.7142857,59.2391304 C20.8095238,59.2391304 21.3571429,59.7657005 21.3571429,60.8188406 L21.3571429,71.8768116 L18.0714286,71.8768116 Z" id="Path-20-Copy-3" stroke="#D8D8D8" stroke-width="1.584" fill="#D8D8D8"></path>
                <path d="M4.92857143,102.681159 L4.92857143,93.696558 C4.92857143,92.8408816 5.47619048,92.4130435 6.57142857,92.4130435 C7.66666667,92.4130435 8.21428571,92.8408816 8.21428571,93.696558 L8.21428571,102.681159 L4.92857143,102.681159 Z" id="Path-20-Copy-7" stroke="#D8D8D8" stroke-width="0.792" fill="#D8D8D8"></path>
                <path d="M37.7857143,102.681159 L37.7857143,93.696558 C37.7857143,92.8408816 38.3333333,92.4130435 39.4285714,92.4130435 C40.5238095,92.4130435 41.0714286,92.8408816 41.0714286,93.696558 L41.0714286,102.681159 L37.7857143,102.681159 Z" id="Path-20-Copy-8" stroke="#D8D8D8" stroke-width="0.792" fill="#D8D8D8"></path>
                <path d="M18.0714286,92.4130435 C18.0714286,89.0561594 18.0714286,86.2823583 18.0714286,84.0916402 C18.0714286,82.3423913 21.3571429,78.9855072 23,78.9855072 C24.6428571,78.9855072 27.9285714,82.3423913 27.9285714,84.0916402 C27.9285714,86.3767674 27.9285714,89.1505685 27.9285714,92.4130435 L18.0714286,92.4130435 Z" id="Path-20-Copy-5" stroke="#000000" stroke-width="1.584" fill="#D8D8D8"></path>
                <path d="M18.0714286,108.210145 C18.0714286,105.050725 18.0714286,102.440088 18.0714286,100.378236 C18.0714286,98.7318841 21.3571429,95.5724638 23,95.5724638 C24.6428571,95.5724638 27.9285714,98.7318841 27.9285714,100.378236 C27.9285714,102.528944 27.9285714,105.13958 27.9285714,108.210145 L18.0714286,108.210145 Z" id="Path-20-Copy-6" stroke="#000000" stroke-width="1.584" fill="#D8D8D8"></path>
                <path d="M18.0714286,84.1195652 L27.9285714,84.1195652" id="Line-6" stroke="#000000" stroke-width="1.584" stroke-linecap="square"></path>
                <path d="M18.0714286,100.706522 L27.9285714,100.706522" id="Line-6-Copy" stroke="#000000" stroke-width="1.584" stroke-linecap="square"></path>
                <path d="" id="Line-6-Copy" stroke="#000000" stroke-width="1.584" stroke-linecap="square" transform="translate(23.891824, 99.387391) rotate(-270.000000) translate(-23.891824, -99.387391) "></path>
                <path d="M24.6428571,51.3405797 L24.6428571,40.9737319 C24.6428571,39.986413 25.1904762,39.4927536 26.2857143,39.4927536 C27.3809524,39.4927536 27.9285714,39.986413 27.9285714,40.9737319 L27.9285714,51.3405797 L24.6428571,51.3405797 Z" id="Path-20-Copy-2" stroke="#D8D8D8" stroke-width="1.584" fill="#D8D8D8"></path>
                <path d="M24.6428571,71.8768116 L24.6428571,60.8188406 C24.6428571,59.7657005 25.1904762,59.2391304 26.2857143,59.2391304 C27.3809524,59.2391304 27.9285714,59.7657005 27.9285714,60.8188406 L27.9285714,71.8768116 L24.6428571,71.8768116 Z" id="Path-20-Copy-4" stroke="#D8D8D8" stroke-width="1.584" fill="#D8D8D8"></path>
                <polygon id="Path-21" stroke="#000000" stroke-width="1.584" points="3.28571429 72.6666667 4.92857143 82.1449275 4.92857143 88.4637681 1.64285714 88.4637681 1.64285714 82.1449275"></polygon>
                <polygon id="Path-21-Copy" stroke="#000000" stroke-width="1.584" points="42.7142857 72.6666667 44.3571429 82.1449275 44.3571429 88.4637681 41.0714286 88.4637681 41.0714286 82.1449275"></polygon>
                <polygon id="Path-22" stroke="#000000" stroke-width="1.584" points="11.5 75.0362319 11.5 90.8333333 10.6785714 92.4130435 35.3214286 92.4130435 34.5 90.8333333 34.5 75.0362319"></polygon>
                <path d="M12.3214286,54.2038043 L33.6785714,54.0063406" id="Line-11" stroke="#000000" stroke-width="1.584" stroke-linecap="square"></path>
                <path d="M12.3214286,36.7282609 L33.6785714,36.7282609" id="Line-11-Copy" stroke="#000000" stroke-width="1.584" stroke-linecap="square"></path>
                <path d="M12.3214286,34.3586957 L33.6785714,34.3586957" id="Line-11-Copy-2" stroke="#000000" stroke-width="1.584" stroke-linecap="square"></path>
                <path d="M13.1428571,16.8831522 L33.6785714,17.0806159" id="Line-11-Copy-3" stroke="#000000" stroke-width="1.584" stroke-linecap="square"></path>
                <path d="M13.1428571,15.0072464 L33.6785714,15.0072464" id="Line-11-Copy-4" stroke="#000000" stroke-width="1.584" stroke-linecap="square"></path>
                <polyline id="Path-26" stroke="#000000" stroke-width="1.584" points="15.6071429 2.36956522 17.4553571 11.8478261 17.4553571 15.0072464"></polyline>
                <path d="M28.75,1.57971014 C28.75,1.08559618 29.297619,4.5083015 30.3928571,11.8478261 L30.3928571,15.0072464" id="Path-26" stroke="#000000" stroke-width="1.584" transform="translate(29.571429, 8.270103) scale(-1, 1) translate(-29.571429, -8.270103) "></path>
            </g>
        </g>
    </g>
</svg>