<svg fill="#c84623" version="1.1" id="Layer_1" xmlns="http://www.w3.org/2000/svg" xmlns:xlink="http://www.w3.org/1999/xlink" x="0px" y="0px" viewBox="0 0 283.46 283.46" class="h-100% text-mbs-red"><path d="M17.14,208.84c24.01,44.15,70.8,74.13,124.6,74.13c78.18,0,141.58-63.3,141.73-141.45h-34.08 c-10.93,0-19.49-8.56-19.49-19.49v-0.01c-0.01-7.81-6.36-14.16-14.17-14.16h-19.34v28.34h17.07h0.68h3.03h0.44h2 c6.13,0,11.78,2.8,15.5,7.68c0.89,1.17,0.66,2.83-0.5,3.72c-0.48,0.37-1.05,0.54-1.61,0.54c-0.8,0-1.59-0.36-2.12-1.04 c-2.71-3.55-6.82-5.58-11.27-5.58h-2h-0.44h-3.03h-0.68c-7.82,0-14.17,6.36-14.17,14.17c0,7.82,6.36,14.17,14.17,14.17h2.86h4.25 c10.75,0,19.49,8.74,19.49,19.49c0,10.74-8.74,19.49-19.49,19.49h-19.81h-17.72h-12.21c-10.75,0-19.49-8.74-19.49-19.49 c0-7.18,3.91-13.45,9.71-16.83c-5.8-3.38-9.71-9.65-9.71-16.83c0-10.74,8.74-19.48,19.49-19.48h11.96 c-1.3-3.76-4.08-11.69-9.98-28.34h-29.32c-1.47,0-2.66-1.19-2.66-2.66c0-1.47,1.19-2.66,2.66-2.66h27.44 c-1.74-4.92-3.72-10.48-5.96-16.79c-3.45-9.7-6.86-11.57-11.63-11.57c-4.86,0.02-8.33,1.92-11.65,11.55 c-6.45,18.7-16.99,49.24-18.49,53.57l0.01,50.04c0,7.81,6.36,14.17,14.17,14.17h1.52h13.5c1.47,0,2.66,1.19,2.66,2.66 c0,1.47-1.19,2.66-2.66,2.66h-13.5h-1.52h-54.8h-2.49h-25.4c-1.47,0-2.66-1.19-2.66-2.66c0-1.47,1.19-2.66,2.66-2.66h25.4h2.49 c7.81,0,14.17-6.36,14.17-14.17c0-7.82-6.36-14.17-14.17-14.17h-3.56h-11.4h-3.56c-1.47,0-2.66-1.19-2.66-2.66 c0-1.47,1.19-2.66,2.66-2.66h3.56h11.4c7.81,0,14.17-6.36,14.17-14.17c0-7.82-6.36-14.17-14.17-14.17h-2.25H58.99 c-1.47,0-2.66-1.19-2.66-2.66c0-1.47,1.19-2.66,2.66-2.66h17.75h2.25h31.54V88.37c0-7.82-6.36-14.17-14.18-14.17 c-7.38,0-12.54,5.83-12.54,14.17v33.66c0,1.47-1.19,2.66-2.66,2.66c-1.47,0-2.66-1.19-2.66-2.66V88.37 c0-7.82-6.36-14.17-14.18-14.17c-7.38,0-12.54,5.83-12.54,14.17V189c0.02,0.12,0.04,0.23,0.04,0.35c0,10.74-8.74,19.49-19.49,19.49 H17.14z M188.85,137.74c0.16,0.34,0.26,0.72,0.26,1.12c0,0.02-0.01,0.05-0.01,0.07c0.07,0.71-0.12,0.99-0.45,1.46l-0.02-0.01 c-0.48,0.69-1.28,1.14-2.18,1.14h-15.63c-7.82,0-14.17,6.36-14.17,14.17c0,7.82,6.36,14.17,14.17,14.17h11.94h0.58 c1.47,0,2.66,1.19,2.66,2.66c0,1.47-1.19,2.66-2.66,2.66h-0.58h-11.94c-7.82,0-14.17,6.36-14.17,14.17 c0,7.81,6.36,14.17,14.17,14.17h12.21h17.72h19.81c7.81,0,14.17-6.36,14.17-14.17c0-7.82-6.36-14.17-14.17-14.17h-4.25h-2.86h-2.38 c-0.48,0-0.92-0.14-1.31-0.36c-8.99-1.73-15.8-9.64-15.8-19.13c0-5.59,2.38-10.62,6.16-14.17h-6.39c-1.47,0-2.66-1.19-2.66-2.66v-31 h-12.64c4.31,12.17,6.78,19.22,8.2,23.26C187.82,134.54,188.51,136.51,188.85,137.74 M215.95,74.19h-19.57v28.35h19.34 c0.05,0,0.09,0.01,0.14,0.01c0.03,0,0.05-0.01,0.08-0.01c7.81,0,14.17-6.36,14.17-14.18C230.12,80.55,223.76,74.19,215.95,74.19 M283.34,136.2C280.69,60.26,218.33-0.5,141.74-0.5C63.46-0.5,0,62.96,0,141.23c0,22.35,5.19,43.49,14.41,62.29h17.91 c7.74,0,14.04-6.24,14.16-13.94c-0.01-0.08-0.02-0.15-0.02-0.23V88.37c0-11.29,7.51-19.49,17.86-19.49c7.01,0,13.15,3.74,16.59,9.31 c3.01-5.7,8.6-9.31,15.44-9.31c10.75,0,19.49,8.74,19.49,19.49v50.49c0,1.47-1.19,2.66-2.66,2.66c-0.01,0-0.02,0-0.03,0 c-0.01,0-0.02,0-0.03,0h-20.8c3.78,3.56,6.15,8.59,6.15,14.17c0,6.51-3.22,12.27-8.14,15.81c6.88,3.01,11.7,9.87,11.7,17.85 c0,5.59-2.38,10.61-6.15,14.17h28.13c-3.78-3.56-6.15-8.59-6.15-14.17l-0.01-50.49c0-0.33,0.06-0.66,0.18-0.96 c0,0,0.75-2.14,18.61-53.9c3.69-10.71,8.52-15.09,16.65-15.13c0.03,0,0.05,0,0.08,0c9.88,0,13.93,7.63,16.58,15.1 c2.52,7.1,4.7,13.25,6.59,18.57h14.52V71.54c0-1.47,1.19-2.66,2.66-2.66h22.22c10.75,0,19.49,8.74,19.49,19.49 c0,7.23-3.96,13.54-9.82,16.9c5.74,3.4,9.6,9.63,9.6,16.76c0,0,0,0,0,0c0.01,7.94,6.23,14.16,14.17,14.16H283.34z" class="st0"></path></svg>