<svg viewBox="0 0 350 290" xmlns="http://www.w3.org/2000/svg"><g fill="#D8D8D8" fill-rule="evenodd"><circle cx="2.5" cy="62.5" r="2"/><circle cx="2.5" cy="77.5" r="2"/><circle cx="2.5" cy="92.5" r="2"/><circle cx="17.5" cy="47.5" r="2"/><circle cx="17.5" cy="62.5" r="2"/><circle cx="17.5" cy="77.5" r="2"/><circle cx="17.5" cy="92.5" r="2"/><circle cx="17.5" cy="107.5" r="2"/><circle cx="32.5" cy="47.5" r="2"/><circle cx="32.5" cy="62.5" r="2"/><circle cx="32.5" cy="77.5" r="2"/><circle cx="32.5" cy="92.5" r="2"/><circle cx="32.5" cy="107.5" r="2"/><circle cx="47.5" cy="32.5" r="2"/><circle cx="47.5" cy="47.5" r="2"/><circle cx="47.5" cy="62.5" r="2"/><circle cx="47.5" cy="77.5" r="2"/><circle cx="47.5" cy="92.5" r="2"/><circle cx="62.5" cy="17.5" r="2"/><circle cx="62.5" cy="32.5" r="2"/><circle cx="62.5" cy="47.5" r="2"/><circle cx="62.5" cy="62.5" r="2"/><circle cx="62.5" cy="77.5" r="2"/><circle cx="62.5" cy="92.5" r="2"/><circle cx="62.5" cy="107.5" r="2"/><circle cx="62.5" cy="122.5" r="2"/><circle cx="62.5" cy="137.5" r="2"/><circle cx="77.5" cy="47.5" r="2"/><circle cx="77.5" cy="62.5" r="2"/><circle cx="77.5" cy="77.5" r="2"/><circle cx="77.5" cy="92.5" r="2"/><circle cx="77.5" cy="107.5" r="2"/><circle cx="77.5" cy="122.5" r="2"/><circle cx="77.5" cy="137.5" r="2"/><circle cx="92.5" cy="32.5" r="2"/><circle cx="92.5" cy="47.5" r="2"/><circle cx="92.5" cy="62.5" r="2"/><circle cx="92.5" cy="77.5" r="2"/><circle cx="92.5" cy="92.5" r="2"/><circle cx="92.5" cy="107.5" r="2"/><circle cx="92.5" cy="122.5" r="2"/><circle cx="92.5" cy="137.5" r="2"/><circle cx="107.5" cy="32.5" r="2"/><circle cx="107.5" cy="47.5" r="2"/><circle cx="107.5" cy="62.5" r="2"/><circle cx="107.5" cy="77.5" r="2"/><circle cx="107.5" cy="92.5" r="2"/><circle cx="107.5" cy="107.5" r="2"/><circle cx="107.5" cy="122.5" r="2"/><circle cx="107.5" cy="137.5" r="2"/><circle cx="107.5" cy="152.5" r="2"/><circle cx="107.5" cy="167.5" r="2"/><circle cx="122.5" cy="47.5" r="2"/><circle cx="122.5" cy="62.5" r="2"/><circle cx="122.5" cy="77.5" r="2"/><circle cx="122.5" cy="92.5" r="2"/><circle cx="122.5" cy="107.5" r="2"/><circle cx="122.5" cy="122.5" r="2"/><circle cx="122.5" cy="137.5" r="2"/><circle cx="122.5" cy="152.5" r="2"/><circle cx="122.5" cy="167.5" r="2"/><circle cx="137.5" cy="32.5" r="2"/><circle cx="137.5" cy="47.5" r="2"/><circle cx="137.5" cy="62.5" r="2"/><circle cx="137.5" cy="77.5" r="2"/><circle cx="137.5" cy="92.5" r="2"/><circle cx="137.5" cy="107.5" r="2"/><circle cx="137.5" cy="122.5" r="2"/><circle cx="137.5" cy="137.5" r="2"/><circle cx="137.5" cy="152.5" r="2"/><circle cx="137.5" cy="167.5" r="2"/><circle cx="152.5" cy="17.5" r="2"/><circle cx="152.5" cy="32.5" r="2"/><circle cx="152.5" cy="47.5" r="2"/><circle cx="152.5" cy="62.5" r="2"/><circle cx="152.5" cy="77.5" r="2"/><circle cx="152.5" cy="92.5" r="2"/><circle cx="152.5" cy="107.5" r="2"/><circle cx="152.5" cy="122.5" r="2"/><circle cx="152.5" cy="137.5" r="2"/><circle cx="152.5" cy="152.5" r="2"/><circle cx="152.5" cy="167.5" r="2"/><circle cx="152.5" cy="182.5" r="2"/><circle cx="152.5" cy="197.5" r="2"/><circle cx="152.5" cy="212.5" r="2"/><circle cx="152.5" cy="227.5" r="2"/><circle cx="167.5" cy="17.5" r="2"/><circle cx="167.5" cy="32.5" r="2"/><circle cx="167.5" cy="47.5" r="2"/><circle cx="167.5" cy="62.5" r="2"/><circle cx="167.5" cy="77.5" r="2"/><circle cx="167.5" cy="92.5" r="2"/><circle cx="167.5" cy="107.5" r="2"/><circle cx="167.5" cy="122.5" r="2"/><circle cx="167.5" cy="137.5" r="2"/><circle cx="167.5" cy="152.5" r="2"/><circle cx="167.5" cy="167.5" r="2"/><circle cx="167.5" cy="182.5" r="2"/><circle cx="167.5" cy="197.5" r="2"/><circle cx="167.5" cy="212.5" r="2"/><circle cx="167.5" cy="227.5" r="2"/><circle cx="182.5" cy="2.5" r="2"/><circle cx="182.5" cy="17.5" r="2"/><circle cx="182.5" cy="32.5" r="2"/><circle cx="182.5" cy="47.5" r="2"/><circle cx="182.5" cy="62.5" r="2"/><circle cx="182.5" cy="77.5" r="2"/><circle cx="182.5" cy="92.5" r="2"/><circle cx="182.5" cy="107.5" r="2"/><circle cx="182.5" cy="122.5" r="2"/><circle cx="182.5" cy="137.5" r="2"/><circle cx="182.5" cy="152.5" r="2"/><circle cx="182.5" cy="167.5" r="2"/><circle cx="182.5" cy="182.5" r="2"/><circle cx="182.5" cy="197.5" r="2"/><circle cx="182.5" cy="212.5" r="2"/><circle cx="182.5" cy="227.5" r="2"/><circle cx="197.5" cy="2.5" r="2"/><circle cx="197.5" cy="17.5" r="2"/><circle cx="197.5" cy="32.5" r="2"/><circle cx="197.5" cy="47.5" r="2"/><circle cx="197.5" cy="62.5" r="2"/><circle cx="197.5" cy="77.5" r="2"/><circle cx="197.5" cy="92.5" r="2"/><circle cx="197.5" cy="107.5" r="2"/><circle cx="197.5" cy="122.5" r="2"/><circle cx="197.5" cy="137.5" r="2"/><circle cx="197.5" cy="152.5" r="2"/><circle cx="197.5" cy="167.5" r="2"/><circle cx="197.5" cy="182.5" r="2"/><circle cx="197.5" cy="197.5" r="2"/><circle cx="197.5" cy="212.5" r="2"/><circle cx="212.5" cy="17.5" r="2"/><circle cx="212.5" cy="32.5" r="2"/><circle cx="212.5" cy="47.5" r="2"/><circle cx="212.5" cy="62.5" r="2"/><circle cx="212.5" cy="77.5" r="2"/><circle cx="107.5" cy="77.5" r="2"/><circle cx="212.5" cy="92.5" r="2"/><circle cx="212.5" cy="107.5" r="2"/><circle cx="212.5" cy="122.5" r="2"/><circle cx="212.5" cy="137.5" r="2"/><circle cx="212.5" cy="152.5" r="2"/><circle cx="212.5" cy="167.5" r="2"/><circle cx="212.5" cy="182.5" r="2"/><circle cx="212.5" cy="197.5" r="2"/><circle cx="212.5" cy="212.5" r="2"/><circle cx="212.5" cy="227.5" r="2"/><circle cx="212.5" cy="242.5" r="2"/><circle cx="227.5" cy="2.5" r="2"/><circle cx="227.5" cy="17.5" r="2"/><circle cx="227.5" cy="32.5" r="2"/><circle cx="227.5" cy="47.5" r="2"/><circle cx="227.5" cy="62.5" r="2"/><circle cx="227.5" cy="77.5" r="2"/><circle cx="227.5" cy="92.5" r="2"/><circle cx="227.5" cy="107.5" r="2"/><circle cx="227.5" cy="122.5" r="2"/><circle cx="227.5" cy="137.5" r="2"/><circle cx="227.5" cy="152.5" r="2"/><circle cx="227.5" cy="167.5" r="2"/><circle cx="227.5" cy="182.5" r="2"/><circle cx="227.5" cy="197.5" r="2"/><circle cx="227.5" cy="212.5" r="2"/><circle cx="227.5" cy="227.5" r="2"/><circle cx="227.5" cy="242.5" r="2"/><circle cx="242.5" cy="32.5" r="2"/><circle cx="242.5" cy="47.5" r="2"/><circle cx="242.5" cy="62.5" r="2"/><circle cx="242.5" cy="77.5" r="2"/><circle cx="242.5" cy="92.5" r="2"/><circle cx="242.5" cy="107.5" r="2"/><circle cx="242.5" cy="122.5" r="2"/><circle cx="242.5" cy="137.5" r="2"/><circle cx="242.5" cy="152.5" r="2"/><circle cx="242.5" cy="167.5" r="2"/><circle cx="242.5" cy="182.5" r="2"/><circle cx="242.5" cy="197.5" r="2"/><circle cx="242.5" cy="212.5" r="2"/><circle cx="242.5" cy="227.5" r="2"/><circle cx="242.5" cy="242.5" r="2"/><circle cx="242.5" cy="257.5" r="2"/><circle cx="257.5" cy="32.5" r="2"/><circle cx="257.5" cy="47.5" r="2"/><circle cx="257.5" cy="62.5" r="2"/><circle cx="257.5" cy="77.5" r="2"/><circle cx="257.5" cy="92.5" r="2"/><circle cx="257.5" cy="107.5" r="2"/><circle cx="257.5" cy="122.5" r="2"/><circle cx="257.5" cy="137.5" r="2"/><circle cx="257.5" cy="152.5" r="2"/><circle cx="257.5" cy="167.5" r="2"/><circle cx="257.5" cy="182.5" r="2"/><circle cx="257.5" cy="197.5" r="2"/><circle cx="257.5" cy="212.5" r="2"/><circle cx="257.5" cy="227.5" r="2"/><circle cx="257.5" cy="242.5" r="2"/><circle cx="257.5" cy="257.5" r="2"/><circle cx="257.5" cy="272.5" r="2"/><circle cx="272.5" cy="32.5" r="2"/><circle cx="272.5" cy="47.5" r="2"/><circle cx="272.5" cy="62.5" r="2"/><circle cx="272.5" cy="77.5" r="2"/><circle cx="272.5" cy="92.5" r="2"/><circle cx="272.5" cy="107.5" r="2"/><circle cx="272.5" cy="122.5" r="2"/><circle cx="272.5" cy="137.5" r="2"/><circle cx="272.5" cy="152.5" r="2"/><circle cx="272.5" cy="167.5" r="2"/><circle cx="272.5" cy="182.5" r="2"/><circle cx="272.5" cy="197.5" r="2"/><circle cx="272.5" cy="212.5" r="2"/><circle cx="272.5" cy="227.5" r="2"/><circle cx="272.5" cy="242.5" r="2"/><circle cx="272.5" cy="257.5" r="2"/><circle cx="272.5" cy="272.5" r="2"/><circle cx="272.5" cy="287.5" r="2"/><circle cx="287.5" cy="47.5" r="2"/><circle cx="287.5" cy="62.5" r="2"/><circle cx="287.5" cy="77.5" r="2"/><circle cx="287.5" cy="92.5" r="2"/><circle cx="287.5" cy="107.5" r="2"/><circle cx="287.5" cy="122.5" r="2"/><circle cx="287.5" cy="137.5" r="2"/><circle cx="287.5" cy="152.5" r="2"/><circle cx="287.5" cy="167.5" r="2"/><circle cx="287.5" cy="182.5" r="2"/><circle cx="287.5" cy="197.5" r="2"/><circle cx="287.5" cy="212.5" r="2"/><circle cx="287.5" cy="227.5" r="2"/><circle cx="287.5" cy="242.5" r="2"/><circle cx="287.5" cy="257.5" r="2"/><circle cx="287.5" cy="272.5" r="2"/><circle cx="287.5" cy="287.5" r="2"/><circle cx="302.5" cy="47.5" r="2"/><circle cx="302.5" cy="62.5" r="2"/><circle cx="302.5" cy="107.5" r="2"/><circle cx="302.5" cy="122.5" r="2"/><circle cx="302.5" cy="137.5" r="2"/><circle cx="302.5" cy="152.5" r="2"/><circle cx="302.5" cy="167.5" r="2"/><circle cx="302.5" cy="182.5" r="2"/><circle cx="302.5" cy="197.5" r="2"/><circle cx="302.5" cy="212.5" r="2"/><circle cx="302.5" cy="257.5" r="2"/><circle cx="302.5" cy="272.5" r="2"/><circle cx="302.5" cy="287.5" r="2"/><circle cx="317.5" cy="107.5" r="2"/><circle cx="317.5" cy="122.5" r="2"/><circle cx="317.5" cy="137.5" r="2"/><circle cx="317.5" cy="152.5" r="2"/><circle cx="317.5" cy="167.5" r="2"/><circle cx="317.5" cy="182.5" r="2"/><circle cx="317.5" cy="197.5" r="2"/><circle cx="332.5" cy="122.5" r="2"/><circle cx="332.5" cy="137.5" r="2"/><circle cx="332.5" cy="152.5" r="2"/><circle cx="332.5" cy="167.5" r="2"/><circle cx="332.5" cy="182.5" r="2"/><circle cx="332.5" cy="197.5" r="2"/><circle cx="347.5" cy="152.5" r="2"/><circle cx="347.5" cy="167.5" r="2"/></g></svg>
