<svg viewBox="0 0 332 332" xmlns="http://www.w3.org/2000/svg" xmlns:xlink="http://www.w3.org/1999/xlink"><defs><path d="M23.0646973 29.2558594H10.6281738V42H2.91577149V10.0078125H24.3171387v5.9545898H10.6281738v7.3608399h12.4365235v5.9326172zm29.5532226-19.2480469v20.9399414c0 2.3730587-.505366 4.4274816-1.5161133 6.1633301-1.0107472 1.7358485-2.460928 3.0578568-4.3505859 3.9660644-1.8896579.9082077-4.1235223 1.3623047-6.7016601 1.3623047-3.8965039 0-6.9653209-1.0107321-9.206543-3.0322265-2.2412222-2.0214945-3.3837889-4.7900215-3.4277344-8.3056641v-21.09375h7.7563477v21.2475586c.087891 3.5009941 1.7138513 5.2514648 4.8779297 5.2514648 1.5966876 0 2.8051716-.4394487 3.6254882-1.3183593.8203166-.8789107 1.2304688-2.3071191 1.2304688-4.284668V10.0078125h7.7124023zM65.142334 36.0673828h13.425293V42H57.4299316V10.0078125h7.7124024v26.0595703zm24.3896484 0h13.4252926V42H81.8195801V10.0078125h7.7124023v26.0595703zm44.3847656-2.5708008c0-1.1279353-.399166-2.0068328-1.19751-2.6367187-.798344-.629886-2.200917-1.2817349-4.207763-1.9555664-2.006846-.6738315-3.647455-1.3256805-4.921875-1.9555664-4.145529-2.036143-6.218262-4.8339666-6.218262-8.3935547 0-1.7724698.516352-3.3361749 1.549072-4.6911621 1.03272-1.3549873 2.493887-2.4096642 4.383545-3.1640625 1.889658-.75439833 4.01366-1.13159182 6.37207-1.13159182 2.299817 0 4.361564.41015214 6.185303 1.23046872 1.82374.8203166 3.240962 1.9885178 4.251709 3.5046387 1.010747 1.5161209 1.516113 3.2482813 1.516113 5.1965332h-7.690429c0-1.3037175-.399166-2.3144495-1.19751-3.0322266-.798344-.717777-1.878655-1.0766601-3.240967-1.0766601-1.37696 0-2.464595.303952-3.262939.9118652-.798344.6079132-1.19751 1.3806106-1.19751 2.3181153 0 .8203166.439449 1.5637173 1.318359 2.2302246.878911.6665072 2.424306 1.3549769 4.636231 2.0654296 2.211925.7104528 4.028313 1.475826 5.449219 2.2961426 3.457048 1.9921975 5.185546 4.7387521 5.185546 8.2397461 0 2.7978656-1.054677 4.9951092-3.164062 6.5917969-2.109386 1.5966877-5.002423 2.3950195-8.679199 2.3950195-2.592787 0-4.940175-.4650832-7.042237-1.3952636-2.102061-.9301805-3.684076-2.2045818-4.746093-3.8232422-1.062017-1.6186605-1.593018-3.4826555-1.593018-5.5920411h7.734375c0 1.7138758.443111 2.9772909 1.329346 3.7902833.886235.8129923 2.325429 1.2194824 4.317627 1.2194824 1.27442 0 2.28149-.2746555 3.02124-.8239746.73975-.5493192 1.109619-1.3220165 1.109619-2.3181153zm36.782227-17.5341797h-9.602051V42h-7.712403V15.9624023h-9.426269v-5.9545898h26.740723v5.9545898zm18.786621 20.0610352h-10.568848L177.071045 42h-8.239746l11.733398-31.9921875h7.250977L199.636963 42h-8.283692l-1.867675-5.9765625zm-8.723145-5.9545898h6.877442l-3.449707-11.0961915-3.427735 11.0961915zm46.625977 1.0986328c-.10254 2.2265736-.70312 4.1931067-1.801758 5.8996582-1.098638 1.7065515-2.640371 3.0285597-4.625244 3.9660644-1.984873.9375047-4.251696 1.40625-6.800537 1.40625-4.204123 0-7.514637-1.3696152-9.931641-4.1088867-2.417004-2.7392715-3.625488-6.6064203-3.625488-11.6015625v-1.5820312c0-3.1347813.545649-5.8776738 1.636963-8.2287598 1.091314-2.351086 2.662343-4.1674741 4.713134-5.4492188 2.050792-1.2817446 4.423815-1.92260738 7.119141-1.92260738 3.881855 0 7.001941 1.02171828 9.360352 3.06518558 2.35841 2.0434672 3.698728 4.8596012 4.020996 8.4484863h-7.69043c-.058594-1.9482519-.549312-3.3471637-1.472168-4.1967774-.922856-.8496136-2.329092-1.274414-4.21875-1.274414-1.918955 0-3.325191.7177662-4.21875 2.1533203-.893559 1.4355541-1.362304 3.7280116-1.40625 6.8774414v2.2631836c0 3.413103.428463 5.8520435 1.2854 7.3168945.856938 1.4648511 2.332754 2.1972657 4.427491 2.1972657 1.772469 0 3.127436-.4174763 4.064941-1.2524415.937505-.8349651 1.435547-2.1606354 1.494141-3.9770507h7.668457zm14.523926-1.0766602L238.748291 33.5625V42h-7.712402V10.0078125h7.712402v14.1064453l2.680664-4.0649414 6.899414-10.0415039h9.536133l-10.810547 14.1503906L257.864502 42h-9.140625l-6.811523-11.9091797z" id="a"/></defs><g fill="none" fill-rule="evenodd"><path d="M166 328C76.5298705 328 4 255.470129 4 166 4 76.5298705 76.5298705 4 166 4c89.470129 0 162 72.5298705 162 162 0 89.470129-72.529871 162-162 162z" fill="#FFF" fill-rule="nonzero"/><path d="M167 290c67.707167 0 123-55.292833 123-123 0-68.5615108-55.148045-124-123-124C98.2928334 43 43 98.2928334 43 167c0 67.851955 55.4384892 123 124 123zm0 8c-73.1254446 0-132-58.874555-132-131C35 93.8745554 93.8745554 35 167 35c72.125445 0 131 58.8745554 131 132 0 72.125445-58.874555 131-131 131z" fill="#B23447" fill-rule="nonzero"/><g fill-rule="nonzero"><path d="M4 174h325c-.168635 10.261932-1.835302 21.5952654-5 34-3.274247 11.9356018-7.940914 23.9356018-14 36H23c-6.5600202-11.6818988-11.22668691-23.3485655-14-35-3.05055703-11.6514345-4.7172237-23.3181012-5-35z" fill="#B23447"/><path fill="#000" d="M23 245v-4h287v4zM6 178v-4h321v4z"/><g transform="translate(36 183)"><use fill="#000" xlink:href="#a"/><use fill="#FFF" xlink:href="#a"/></g></g><path d="M167 324c86.484848 0 157-70.515152 157-157C324 79.5151519 253.484848 9 167 9 79.5151519 9 9 79.5151519 9 167c0 86.484848 70.5151519 157 158 157zm-1 8C74.3207315 332 0 257.679268 0 166 0 74.3207315 74.3207315 0 166 0c91.679268 0 166 74.3207315 166 166 0 91.679268-74.320732 166-166 166z" fill="#000" fill-rule="nonzero"/><g fill-rule="nonzero"><path d="M75.88673042 264.895906l7.93776951-8.9995453c24.43110497 21.5486976 51.67420757 32.2468413 81.96890637 32.2468413 30.3276967 0 58.1445557-10.7237861 83.6609937-32.3263481l7.753761 9.158559c-27.631887 23.3935301-58.173611 35.1677891-91.4147547 35.1677891-33.2741417 0-63.3228999-11.799902-89.90667588-35.247296z" fill="#FFF"/><path d="M92.33435828 274.80924204l-3.9262411-3.28789166-3.05989868 2.0842525-2.65942205-2.2270386 15.24024599-9.49263685 2.29105585 1.91856404-6.74986211 16.60260886-2.65942205-2.2270386 1.52354415-3.37081969zm-1.50812496-4.91605424l2.7133289 2.27218174 2.69405075-5.93675289-5.40737965 3.66457115zm25.83807519 22.77221086l-2.8960186-1.54262051.98440391-11.94329578-5.17328773 9.71200537-2.9270476-1.55914836 8.0216265-15.05929712 2.92704688 1.55914906-.99339477 11.88539546 5.1615933-9.66512432 2.91670453 1.553639-8.02162642 15.0592972zm31.88982925-5.57201468l-5.05817871-1.44931357-3.9605951 13.82268566-3.17685182-.91025917 3.96059446-13.8226849-4.99058641-1.4299459.7391818-2.57978387 13.22561758 3.78951788-.7391818 2.57978387zm20.0860002 8.67358952l1.96031938-10.16483933 3.0159838.21216395-3.55868112 16.85432442-2.96922488-.20887425-.90598691-10.16676374-2.26196585 9.9439088-2.96922424-.20887502-1.14064275-17.18490585 3.00429431.21134187.49948569 10.26739216 2.16580263-10.0798982 2.34966227.1652908.81017766 10.35973439zm28.23903038-3.90992806l-6.94178324.95972989.65961362 4.77102483 8.11422499-1.12182462.36431177 2.63509123-11.38777433 1.5744069-2.33673407-16.90173347 11.35294982-1.56959173.36752214 2.6583084-8.07939977 1.11701017.58899814 4.26025831 6.94178324-.95972988.35628769 2.57704997zm20.72451931-6.04309385l-2.3485645.84541732 2.1591898 5.99821092-3.09834046 1.11531629-5.77900664-16.0540339 5.3807477-1.93691954c.88944529-.32017515 1.73205035-.50516926 2.52784042-.55498752.79579013-.04981834 1.5218811.0354665 2.1782945.25585684.65641414.22039097 1.2309289.58234904 1.72356202 1.08588571.49263236.50353603.8818316 1.15223723 1.1676075 1.94612147.20639446.5733615.324285 1.11422228.35367505 1.62259847.02939075.50837691-.01722393.99013467-.13984494 1.44528834-.12262183.4551531-.31323338.88288058-.57184187 1.28319413-.25860771.4003142-.57270853.77908345-.94231184 1.13631896l5.83660433 5.38437213.05159788.1433393-3.3188627 1.1946984-5.18034625-4.91067732zm-3.25351811-1.66853796l2.29343316-.82557244c.8747432-.31488344 1.46912514-.78001527 1.78316302-1.39540978.31403787-.61539451.33213693-1.30899794.0542993-2.0808299-.28842272-.8012357-.7442206-1.34085495-1.36740805-1.6188748-.6231875-.27801979-1.38684237-.25429568-2.29098903.0711719l-2.28240724.82160324 1.80990884 5.02791178zm24.43023664-9.8771226l3.29935594 5.31737492-2.7980941 1.73617758-8.9959955-14.4983094 4.95889975-3.07692706c.7899758-.49016901 1.5746521-.81844996 2.35405117-.9848538.77939913-.16640391 1.51979674-.1844915 2.2212146-.0542638.70141868.13022827 1.35038953.40561859 1.94693269.82617963.59654322.42056097 1.11105792.97935188 1.54356004 1.67638952.40366819.65056827.65528838 1.32651122.75486735 2.02784876.0995789.70133762.04992318 1.39182774-.1489689 2.07149109-.19889216.67966342-.5469545 1.33005433-1.0441979 1.95119192-.4972434.6211376-1.14084299 1.17678285-1.93081878 1.66695186l-2.16080636 1.34074877zm-1.4087133-2.27033936l2.1608056-1.34074942c.39830725-.24714393.7064305-.5210775.92437983-.82180806.21794857-.3007312.36099225-.61474443.42913594-.94204865.06814293-.32730486.06693202-.65524427-.00363238-.98382797-.07056447-.32858363-.19646413-.63891673-.37770292-.93100859-.21007265-.3385613-.45385312-.62402002-.73135014-.85638596-.27749625-.23236531-.58212175-.39732388-.91388552-.49488054-.33176293-.0975561-.6828173-.11878045-1.05317085-.0636716-.37035432.0551082-.75467969.2062317-1.15298694.45337562l-2.16080559 1.34074942 2.87921298 4.64025575z" fill="#000"/></g><g transform="translate(219 65)"><path d="M0 110V57c1.33333333.0263106 2-.6403561 2-2V31h1c1.33333333.0776954 2-.255638 2-1V11L9 0l4 11v19c0 1 1 1 2 1h1v24c0 1.3333333.6666667 2 2 2v13c0 .6666667.6666667 1 2 1 2 0 2.5386895-.7796319 3-2 .3075403-.8135787.974207-2.8135787 2-6 1.0169394 3.0947705 1.683606 5.0947705 2 6 .512773 1.3578442 2.0068702 2 4 2 1 0 1-.750211 1-1V59c0-.6784138.3333333-1.0117471 1-1 1.5026344 0 2.5026344-.3333333 3-1 .4973656-.6666667 1.1640323-1.6666667 2-3v-4l2-4 2 4v4l2 3c.6543466.6666667 1.3210133 1 2 1h1c.0322416 0 .6989082.6666667 2 2v24l5 8v18H0z" stroke="#000" stroke-width="2" fill="#FFF" fill-rule="nonzero"/><circle stroke="#000" stroke-width="2" cx="9" cy="38" r="3"/><path d="M4 59V47c-.06955535-2 .59711132-3 2-3 1.44826149 0 2.11492816 1 2 3v12H4zM4 76V64c-.06955535-2 .59711132-3 2-3 1.44826149 0 2.11492816 1 2 3v12H4zM35 76V64c-.0695553-2 .5971113-3 2-3 1.4482615 0 2.1149282 1 2 3v12h-4zM35 93V81c-.0695553-2 .5971113-3 2-3 1.4482615 0 2.1149282 1 2 3v12h-4zM4 93V81c-.06955535-2 .59711132-3 2-3 1.44826149 0 2.11492816 1 2 3v12H4zM10 59V47c-.0695553-2 .5971113-3 2-3 1.4482615 0 2.1149282 1 2 3v12h-4zM10 76V64c-.0695553-2 .5971113-3 2-3 1.4482615 0 2.1149282 1 2 3v12h-4zM41 76V64c-.0695553-2 .5971113-3 2-3 1.4482615 0 2.1149282 1 2 3v12h-4zM41 93V81c-.0695553-2 .5971113-3 2-3 1.4482615 0 2.1149282 1 2 3v12h-4zM10 93V81c-.0695553-2 .5971113-3 2-3 1.4482615 0 2.1149282 1 2 3v12h-4z" fill="#D8D8D8" fill-rule="nonzero"/><path d="M8 102c1.89445532.69339074 2.89445532 3.02672408 3 7h1v-5c-.22749576-2-1.22749576-3-3-3-2.07617707 0-2.40951041.33333333-1 1z" fill="#E9E9E9" fill-rule="nonzero"/><path d="M6 110h6v-5c0-2.94393801-1.05785845-4-3-4s-3 1.05606199-3 4v5z" stroke="#000" stroke-width="2"/><path d="M39 102c1.89445532.69339074 2.89445532 3.02672408 3 7h1v-5c-.22749576-2-1.22749576-3-3-3-2.07617707 0-2.40951041.33333333-1 1z" fill="#E9E9E9" fill-rule="nonzero"/><path d="M37 110h6v-5c0-2.94393801-1.05785845-4-3-4s-3 1.05606199-3 4v5z" stroke="#000" stroke-width="2"/><g><path d="M22 109v-5c-.01580364-.66666667.31752969-1 1-1 .116881 0 .116881 0 0 0 .66666667.06109202 1 .39442535 1 1v5h-2zM26 109v-5c-.01580364-.66666667.31752969-1 1-1 .116881 0 .116881 0 0 0 .66666667.06109202 1 .39442535 1 1v5h-2z" fill="#D6D6D6" fill-rule="nonzero"/><path d="M23 98c3.394214 1.87007894 5.06088066 5.53674561 5 11h2v-8c-.3748683-2.66666667-2.041535-4-5-4-3.38340611 0-4.05007278.33333333-2 1z" fill="#E9E9E9" fill-rule="nonzero"/><path d="M20 110h10v-7c0-4.34976438-1.77881782-6-5-6s-5 1.65023562-5 6v7z" stroke="#000" stroke-width="2"/></g><g><path d="M22 91v-5c-.00790182-.66666667.15876485-1 .5-1 .0584405 0 .0584405 0 0 0 .33333333.06109202.5.39442535.5 1v5h-1zM24.00026833 91v-5c-.00790394-.66666667.15880743-1 .50013413-1 .05845617 0 .05845617 0 0 0 .33342275.06109202.50013412.39442535.50013412 1v5h-1.00026825zM26.00026833 91v-5c-.00790394-.66666667.15880743-1 .50013413-1 .05845617 0 .05845617 0 0 0 .33342275.06109202.50013412.39442535.50013412 1v5h-1.00026825z" fill="#D6D6D6" fill-rule="nonzero"/><path d="M23 80c3.394214 1.87007894 5.06088066 5.53674561 5 11h2v-8c-.3748683-2.66666667-2.041535-4-5-4-3.38340611 0-4.05007278.33333333-2 1z" fill="#E9E9E9" fill-rule="nonzero"/><path d="M20 92h10v-7c0-4.34976438-1.77881782-6-5-6s-5 1.65023562-5 6v7z" stroke="#000" stroke-width="2"/></g></g><g fill-rule="nonzero"><path fill="#FFF" d="M58 176v-20h1v-16h-1v-20h1v-17h-1V80h64v16h-1v5h1v11h-1v17h1v21h-1v16h1v10z"/><path fill="#E9E9E9" d="M61 140h2v16h-2z"/><path fill="#D6D6D6" d="M61 140h1v16h-1z"/><path fill="#E9E9E9" d="M65 140h2v16h-2z"/><path fill="#D6D6D6" d="M65 140h1v16h-1z"/><path fill="#E9E9E9" d="M69 140h2v16h-2z"/><path fill="#D6D6D6" d="M69 140h1v16h-1z"/><path fill="#E9E9E9" d="M73 150h2v6h-2z"/><path fill="#D6D6D6" d="M73 150h1v6h-1z"/><path fill="#E9E9E9" d="M81 150h2v6h-2z"/><path fill="#D6D6D6" d="M81 150h1v6h-1z"/><path fill="#E9E9E9" d="M89 150h2v6h-2z"/><path fill="#D6D6D6" d="M89 150h1v6h-1z"/><path fill="#E9E9E9" d="M97 150h2v6h-2z"/><path fill="#D6D6D6" d="M97 150h1v6h-1z"/><path fill="#E9E9E9" d="M77 150h2v6h-2z"/><path fill="#D6D6D6" d="M77 150h1v6h-1z"/><path fill="#E9E9E9" d="M85 150h2v6h-2z"/><path fill="#D6D6D6" d="M85 150h1v6h-1z"/><g><path fill="#E9E9E9" d="M93 150h2v6h-2z"/><path fill="#D6D6D6" d="M93 150h1v6h-1z"/></g><g><path fill="#E9E9E9" d="M101 150h2v6h-2z"/><path fill="#D6D6D6" d="M101 150h1v6h-1z"/></g><g><path fill="#E9E9E9" d="M105 150h2v6h-2z"/><path fill="#D6D6D6" d="M105 150h1v6h-1z"/></g><g><path fill="#E9E9E9" d="M109 150h2v16h-2z"/><path fill="#D6D6D6" d="M109 150h1v16h-1z"/></g><g><path fill="#E9E9E9" d="M113 150h2v16h-2z"/><path fill="#D6D6D6" d="M113 150h1v16h-1z"/></g><g><path fill="#E9E9E9" d="M117 150h2v16h-2z"/><path fill="#D6D6D6" d="M117 150h1v16h-1z"/></g><path fill="#D6D6D6" d="M120 150h1v16h-1zM59 140h1v16h-1z"/><g fill="#D8D8D8"><path d="M58 140c.65878646.03229197.99211979.36562531 1 1-.01182032 1.33210771 2.01526486 1.31641351 2 0 .01526486-.93586785 2.0060734-.9632472 2 0 .0060734 1.06794041 1.99626707 1.31641351 2 0-.00373293-.93586785 2.03964599-.92291739 2 0 .03964599 1.30346306 2.0330164 1.31641351 2 0 .0330164-.93586785 1.9897003-.89152901 2 0-.0102997.94589414 2 1.07412067 2 0v-2H58v1zM74 150c.6585813.0338789.9919146.3672122 1 1-.0121281 1.339673 2.0143258 1.3239432 2 0 .0143258-.9334518 2.0045144-.9608933 2 0 .0045144 1.0749059 1.9940882 1.3239432 2 0-.0059118-.9334518 2.0368308-.920472 2 0 .0368308 1.3109633 2.0295804 1.3239432 2 0 .0295804-.9334518 1.985655-.8890123 2 0-.014345.9525825 1.9953285 1.0811002 2 0-.0046715-.9977296 1-.9977296 1-1v-1H74v1zM90 150c.6585813.0338789.9919146.3672122 1 1-.0121281 1.339673 2.0143258 1.3239432 2 0 .0143258-.9334518 2.0045144-.9608933 2 0 .0045144 1.0749059 1.9940882 1.3239432 2 0-.0059118-.9334518 2.0368308-.920472 2 0 .0368308 1.3109633 2.0295804 1.3239432 2 0 .0295804-.9334518 1.985655-.8890123 2 0-.014345.9525825 1.9953285 1.0811002 2 0-.0046715-.9977296 1-.9977296 1-1v-1H90v1zM106 150c.6585813.0338789.9919146.3672122 1 1-.0121281 1.339673 2.0143258 1.3239432 2 0 .0143258-.9334518 2.0045144-.9608933 2 0 .0045144 1.0749059 1.9940882 1.3239432 2 0-.0059118-.9334518 2.0368308-.920472 2 0 .0368308 1.3109633 2.0295804 1.3239432 2 0 .0295804-.9334518 1.985655-.8890123 2 0-.014345.9525825 1.9953285 1.0811002 2 0-.0046715-.9977296 1-.9977296 1-1v-1h-16v1z"/></g><g><path fill="#E9E9E9" d="M61 103h2v17h-2z"/><path fill="#D6D6D6" d="M61 103h1v17h-1z"/><path fill="#E9E9E9" d="M65 103h2v17h-2z"/><path fill="#D6D6D6" d="M65 103h1v17h-1z"/><path fill="#E9E9E9" d="M69 103h2v17h-2z"/><path fill="#D6D6D6" d="M69 103h1v17h-1z"/><path fill="#E9E9E9" d="M73 112h2v8h-2z"/><path fill="#D6D6D6" d="M73 112h1v8h-1z"/><path fill="#E9E9E9" d="M81 112h2v8h-2z"/><path fill="#D6D6D6" d="M81 112h1v8h-1z"/><path fill="#E9E9E9" d="M89 112h2v8h-2z"/><path fill="#D6D6D6" d="M89 112h1v8h-1z"/><path fill="#E9E9E9" d="M97 112h2v8h-2z"/><path fill="#D6D6D6" d="M97 112h1v8h-1z"/><path fill="#E9E9E9" d="M77 112h2v8h-2z"/><path fill="#D6D6D6" d="M77 112h1v8h-1z"/><path fill="#E9E9E9" d="M85 112h2v8h-2z"/><path fill="#D6D6D6" d="M85 112h1v8h-1z"/><g><path fill="#E9E9E9" d="M93 112h2v8h-2z"/><path fill="#D6D6D6" d="M93 112h1v8h-1z"/></g><g><path fill="#E9E9E9" d="M101 112h2v8h-2z"/><path fill="#D6D6D6" d="M101 112h1v8h-1z"/></g><g><path fill="#E9E9E9" d="M105 112h2v8h-2z"/><path fill="#D6D6D6" d="M105 112h1v8h-1z"/></g><g><path fill="#E9E9E9" d="M109 112h2v17h-2z"/><path fill="#D6D6D6" d="M109 112h1v17h-1z"/></g><g><path fill="#E9E9E9" d="M113 112h2v17h-2z"/><path fill="#D6D6D6" d="M113 112h1v17h-1z"/></g><g><path fill="#E9E9E9" d="M117 112h2v17h-2z"/><path fill="#D6D6D6" d="M117 112h1v17h-1z"/></g><path fill="#D6D6D6" d="M120 112h1v17h-1zM59 103h1v17h-1z"/></g><g fill="#D8D8D8"><path d="M58 102c.65878646.03229197.99211979.36562531 1 1-.01182032 1.33210771 2.01526486 1.31641351 2 0 .01526486-.93586785 2.0060734-.9632472 2 0 .0060734 1.06794041 1.99626707 1.31641351 2 0-.00373293-.93586785 2.03964599-.92291739 2 0 .03964599 1.30346306 2.0330164 1.31641351 2 0 .0330164-.93586785 1.9897003-.89152901 2 0-.0102997.94589414 2 1.07412067 2 0v-2H58v1zM74 112c.6585813.0338789.9919146.3672122 1 1-.0121281 1.339673 2.0143258 1.3239432 2 0 .0143258-.9334518 2.0045144-.9608933 2 0 .0045144 1.0749059 1.9940882 1.3239432 2 0-.0059118-.9334518 2.0368308-.920472 2 0 .0368308 1.3109633 2.0295804 1.3239432 2 0 .0295804-.9334518 1.985655-.8890123 2 0-.014345.9525825 1.9953285 1.0811002 2 0-.0046715-.9977296 1-.9977296 1-1v-1H74v1zM90 112c.6585813.0338789.9919146.3672122 1 1-.0121281 1.339673 2.0143258 1.3239432 2 0 .0143258-.9334518 2.0045144-.9608933 2 0 .0045144 1.0749059 1.9940882 1.3239432 2 0-.0059118-.9334518 2.0368308-.920472 2 0 .0368308 1.3109633 2.0295804 1.3239432 2 0 .0295804-.9334518 1.985655-.8890123 2 0-.014345.9525825 1.9953285 1.0811002 2 0-.0046715-.9977296 1-.9977296 1-1v-1H90v1zM106 112c.6585813.0338789.9919146.3672122 1 1-.0121281 1.339673 2.0143258 1.3239432 2 0 .0143258-.9334518 2.0045144-.9608933 2 0 .0045144 1.0749059 1.9940882 1.3239432 2 0-.0059118-.9334518 2.0368308-.920472 2 0 .0368308 1.3109633 2.0295804 1.3239432 2 0 .0295804-.9334518 1.985655-.8890123 2 0-.014345.9525825 1.9953285 1.0811002 2 0-.0046715-.9977296 1-.9977296 1-1v-1h-16v1z"/></g><g><path fill="#E9E9E9" d="M117 96h2v5h-2z"/><path fill="#D6D6D6" d="M117 96h1v5h-1z"/><path fill="#E9E9E9" d="M113 96h2v5h-2z"/><path fill="#D6D6D6" d="M113 96h1v5h-1z"/><g><path fill="#E9E9E9" d="M109 96h2v5h-2z"/><path fill="#D6D6D6" d="M109 96h1v5h-1z"/></g><path fill="#D6D6D6" d="M120 96h1v5h-1z"/></g><g fill="#D8D8D8"><path d="M106 96c.65858129.0338789.99191462.36721224 1 1-.01212806 1.33967298 2.01432581 1.32394316 2 0 .01432581-.93345182 2.00451435-.96089334 2 0 .00451435 1.07490592 1.99408822 1.32394316 2 0-.00591178-.93345182 2.03683077-.92047197 2 0 .03683077 1.3109633 2.0295804 1.32394316 2 0 .0295804-.93345182 1.985655-.88901231 2 0-.014345.95258255 1.9953285 1.08110021 2 0-.0046715-.99772958 1-.99772958 1-1v-1h-16v1z"/></g><path stroke="#000" stroke-width="2" fill="#FFF" d="M59 157v18h62v-8h-15v-10zM59 121v18h14v10h48v-19h-16v-9zM74 111h47v-9h-15v-9H59v9h15z"/><path stroke="#000" stroke-width="2" fill="#FFF" d="M59 93h47v2h15V81H59z"/><g fill="#000"><path d="M63 84h3v6h-3zM78 84h3v6h-3zM98 84h3v6h-3zM103 84h3v6h-3zM108 84h3v6h-3zM113 84h3v6h-3zM68 84h3v6h-3zM88 84h3v6h-3zM83 84h3v6h-3zM73 84h3v6h-3zM93 84h3v6h-3z"/></g><g fill="#000"><path d="M63 167h2v5h-2zM79 167h2v5h-2zM99 167h2v5h-2zM67 167h2v5h-2zM87 167h2v5h-2zM83 167h2v5h-2zM71 167h2v5h-2zM91 167h2v5h-2zM75 167h2v5h-2zM95 167h2v5h-2z"/></g><g fill="#000"><path d="M63 160h2v5h-2zM79 160h2v5h-2zM99 160h2v5h-2zM67 160h2v5h-2zM87 160h2v5h-2zM83 160h2v5h-2zM71 160h2v5h-2zM91 160h2v5h-2zM75 160h2v5h-2zM95 160h2v5h-2z"/></g></g><g fill-rule="nonzero"><path stroke="#000" stroke-width="2" fill="#FFF" d="M141 175h58v-38h-3V98h-4v-9h-5V44l-3-2h-7v-7h5V24h-24v11h4v7h-6l-3 2v45h-5v9h-4v39h-3z"/><g fill="#E9E9E9"><path d="M142 138h12v36h-12z"/><path d="M145 99h12v39l-3 2-9-2z"/><path d="M149 90h10v11l-2 2-8-2z"/><path stroke="#000" stroke-width="2" d="M153.0042773 47.01584681v-2.99300812l2.9961514-2.0086767h7.004125v5.00168482z"/><path d="M154 45l5-2h5l2 4v41l-7 5h-5v-3z"/></g><g fill="#D8D8D8"><path d="M158 167h5v7h-5zM148 167h5v7h-5zM168 167h5v7h-5zM177 167h5v7h-5zM187 167h5v7h-5zM158 158h5v5h-5zM148 158h5v5h-5zM168 158h5v5h-5zM177 158h5v5h-5zM187 158h5v5h-5zM158 149h5v5h-5zM148 149h5v5h-5zM168 149h5v5h-5zM177 149h5v5h-5zM187 149h5v5h-5z"/><g><path d="M158 140h5v5h-5zM148 140h5v5h-5zM168 140h5v5h-5zM177 140h5v5h-5zM187 140h5v5h-5z"/></g><g><path d="M158 131h5v5h-5zM148 131h5v5h-5zM168 131h5v5h-5zM177 131h5v5h-5zM187 131h5v5h-5z"/></g><g><path d="M158 122h5v5h-5zM148 122h5v5h-5zM168 122h5v5h-5zM177 122h5v5h-5zM187 122h5v5h-5z"/></g><g><path d="M158 113h5v5h-5zM148 113h5v5h-5zM168 113h5v5h-5zM177 113h5v5h-5zM187 113h5v5h-5z"/></g><g><path d="M158 104h5v5h-5zM148 104h5v5h-5zM168 104h5v5h-5zM177 104h5v5h-5zM187 104h5v5h-5z"/></g><g><path d="M158 95h5v5h-5zM168 95h5v5h-5zM177 95h5v5h-5z"/></g><g><path d="M158 86h5v5h-5zM168 86h5v5h-5zM177 86h5v5h-5z"/></g><g><path d="M158 77h5v5h-5zM168 77h5v5h-5zM177 77h5v5h-5z"/></g><g><path d="M158 68h5v5h-5zM168 68h5v5h-5zM177 68h5v5h-5z"/></g><g><path d="M158 59h5v5h-5zM168 59h5v5h-5zM177 59h5v5h-5z"/></g><g><path d="M158 50h5v5h-5zM168 50h5v5h-5zM177 50h5v5h-5z"/></g></g><path fill="#E9E9E9" d="M163.0251815 43.0231517v-8.9847306l2.0640835 2.0640835v9.9167101h-2.0640835z"/></g></g></svg>
