<svg viewBox="0 0 332 332" xmlns="http://www.w3.org/2000/svg" xmlns:xlink="http://www.w3.org/1999/xlink"><defs><path d="M23.0646973 29.2558594H10.6281738V42H2.91577149V10.0078125H24.3171387v5.9545898H10.6281738v7.3608399h12.4365235v5.9326172zm29.5532226-19.2480469v20.9399414c0 2.3730587-.505366 4.4274816-1.5161133 6.1633301-1.0107472 1.7358485-2.460928 3.0578568-4.3505859 3.9660644-1.8896579.9082077-4.1235223 1.3623047-6.7016601 1.3623047-3.8965039 0-6.9653209-1.0107321-9.206543-3.0322265-2.2412222-2.0214945-3.3837889-4.7900215-3.4277344-8.3056641v-21.09375h7.7563477v21.2475586c.087891 3.5009941 1.7138513 5.2514648 4.8779297 5.2514648 1.5966876 0 2.8051716-.4394487 3.6254882-1.3183593.8203166-.8789107 1.2304688-2.3071191 1.2304688-4.284668V10.0078125h7.7124023zM65.142334 36.0673828h13.425293V42H57.4299316V10.0078125h7.7124024v26.0595703zm24.3896484 0h13.4252926V42H81.8195801V10.0078125h7.7124023v26.0595703zm44.3847656-2.5708008c0-1.1279353-.399166-2.0068328-1.19751-2.6367187-.798344-.629886-2.200917-1.2817349-4.207763-1.9555664-2.006846-.6738315-3.647455-1.3256805-4.921875-1.9555664-4.145529-2.036143-6.218262-4.8339666-6.218262-8.3935547 0-1.7724698.516352-3.3361749 1.549072-4.6911621 1.03272-1.3549873 2.493887-2.4096642 4.383545-3.1640625 1.889658-.75439833 4.01366-1.13159182 6.37207-1.13159182 2.299817 0 4.361564.41015214 6.185303 1.23046872 1.82374.8203166 3.240962 1.9885178 4.251709 3.5046387 1.010747 1.5161209 1.516113 3.2482813 1.516113 5.1965332h-7.690429c0-1.3037175-.399166-2.3144495-1.19751-3.0322266-.798344-.717777-1.878655-1.0766601-3.240967-1.0766601-1.37696 0-2.464595.303952-3.262939.9118652-.798344.6079132-1.19751 1.3806106-1.19751 2.3181153 0 .8203166.439449 1.5637173 1.318359 2.2302246.878911.6665072 2.424306 1.3549769 4.636231 2.0654296 2.211925.7104528 4.028313 1.475826 5.449219 2.2961426 3.457048 1.9921975 5.185546 4.7387521 5.185546 8.2397461 0 2.7978656-1.054677 4.9951092-3.164062 6.5917969-2.109386 1.5966877-5.002423 2.3950195-8.679199 2.3950195-2.592787 0-4.940175-.4650832-7.042237-1.3952636-2.102061-.9301805-3.684076-2.2045818-4.746093-3.8232422-1.062017-1.6186605-1.593018-3.4826555-1.593018-5.5920411h7.734375c0 1.7138758.443111 2.9772909 1.329346 3.7902833.886235.8129923 2.325429 1.2194824 4.317627 1.2194824 1.27442 0 2.28149-.2746555 3.02124-.8239746.73975-.5493192 1.109619-1.3220165 1.109619-2.3181153zm36.782227-17.5341797h-9.602051V42h-7.712403V15.9624023h-9.426269v-5.9545898h26.740723v5.9545898zm18.786621 20.0610352h-10.568848L177.071045 42h-8.239746l11.733398-31.9921875h7.250977L199.636963 42h-8.283692l-1.867675-5.9765625zm-8.723145-5.9545898h6.877442l-3.449707-11.0961915-3.427735 11.0961915zm46.625977 1.0986328c-.10254 2.2265736-.70312 4.1931067-1.801758 5.8996582-1.098638 1.7065515-2.640371 3.0285597-4.625244 3.9660644-1.984873.9375047-4.251696 1.40625-6.800537 1.40625-4.204123 0-7.514637-1.3696152-9.931641-4.1088867-2.417004-2.7392715-3.625488-6.6064203-3.625488-11.6015625v-1.5820312c0-3.1347813.545649-5.8776738 1.636963-8.2287598 1.091314-2.351086 2.662343-4.1674741 4.713134-5.4492188 2.050792-1.2817446 4.423815-1.92260738 7.119141-1.92260738 3.881855 0 7.001941 1.02171828 9.360352 3.06518558 2.35841 2.0434672 3.698728 4.8596012 4.020996 8.4484863h-7.69043c-.058594-1.9482519-.549312-3.3471637-1.472168-4.1967774-.922856-.8496136-2.329092-1.274414-4.21875-1.274414-1.918955 0-3.325191.7177662-4.21875 2.1533203-.893559 1.4355541-1.362304 3.7280116-1.40625 6.8774414v2.2631836c0 3.413103.428463 5.8520435 1.2854 7.3168945.856938 1.4648511 2.332754 2.1972657 4.427491 2.1972657 1.772469 0 3.127436-.4174763 4.064941-1.2524415.937505-.8349651 1.435547-2.1606354 1.494141-3.9770507h7.668457zm14.523926-1.0766602L238.748291 33.5625V42h-7.712402V10.0078125h7.712402v14.1064453l2.680664-4.0649414 6.899414-10.0415039h9.536133l-10.810547 14.1503906L257.864502 42h-9.140625l-6.811523-11.9091797z" id="a"/></defs><g fill="none" fill-rule="evenodd"><path d="M166 328C76.5298705 328 4 255.470129 4 166 4 76.5298705 76.5298705 4 166 4c89.470129 0 162 72.5298705 162 162 0 89.470129-72.529871 162-162 162z" fill="#FFF" fill-rule="nonzero"/><path d="M167 290c67.707167 0 123-55.292833 123-123 0-68.5615108-55.148045-124-123-124C98.2928334 43 43 98.2928334 43 167c0 67.851955 55.4384892 123 124 123zm0 8c-73.1254446 0-132-58.874555-132-131C35 93.8745554 93.8745554 35 167 35c72.125445 0 131 58.8745554 131 132 0 72.125445-58.874555 131-131 131z" fill="#5E59A6" fill-rule="nonzero"/><g fill-rule="nonzero"><path d="M4 174h325c-.168635 10.261932-1.835302 21.5952654-5 34-3.274247 11.9356018-7.940914 23.9356018-14 36H23c-6.5600202-11.6818988-11.22668691-23.3485655-14-35-3.05055703-11.6514345-4.7172237-23.3181012-5-35z" fill="#5E59A6"/><path fill="#000" d="M23 245v-4h287v4zM6 178v-4h321v4z"/><g transform="translate(36 183)"><use fill="#000" xlink:href="#a"/><use fill="#FFF" xlink:href="#a"/></g></g><path d="M167 324c86.484848 0 157-70.515152 157-157C324 79.5151519 253.484848 9 167 9 79.5151519 9 9 79.5151519 9 167c0 86.484848 70.5151519 157 158 157zm-1 8C74.3207315 332 0 257.679268 0 166 0 74.3207315 74.3207315 0 166 0c91.679268 0 166 74.3207315 166 166 0 91.679268-74.320732 166-166 166z" fill="#000" fill-rule="nonzero"/><g fill-rule="nonzero"><path d="M75.88673042 264.89590602l7.93776951-8.99954528c24.43110497 21.54869756 51.67420757 32.24684156 81.96890637 32.24684156 30.3276967 0 58.1445557-10.7237864 83.6609937-32.32634844l7.753761 9.15855904c-27.631887 23.3935298-58.173611 35.1677894-91.4147547 35.1677894-33.2741417 0-63.3228999-11.799902-89.90667588-35.24729628z" fill="#FFF"/><path d="M80.46368513 271.3125961l10.06702707-12.88520705 4.5133624 3.52622515c1.5634601 1.22150894 2.5153851 2.44741092 2.8558036 3.67774273.3404184 1.23033177.058904 2.42366507-.8445517 3.58003557-.493213.6312839-1.0898923 1.0605779-1.7900556 1.287895-.7001633.227317-1.4269066.2272087-2.1802517-.0003248.5317181.6814561.791941 1.4215721.7806765 2.22037-.0112644.7987978-.3003746 1.5610261-.8673391 2.2867076-.9679882 1.2389684-2.0961666 1.8682007-3.3845689 1.8877158-1.2884024.0195151-2.6687737-.5363932-4.14115531-1.6677415l-5.00894726-3.9134185zm6.89010607-3.9461258l-2.71726761 3.4779439 2.27438061 1.7769409c.6253841.4886036 1.2299766.7210624 1.8137958.6973833.5838192-.0236791 1.0808426-.2980578 1.4910852-.8231444.9218936-1.17997.7791223-2.2558685-.4283182-3.2277278l-2.4336758-1.9013959zm1.7721311-2.26822435l1.9646401 1.53494505c1.3577037 1.0227498 2.4444771 1.0119881 3.2603529-.0322852.4563373-.5840852.6151388-1.13696334.4764093-1.65865119s-.5738784-1.06831057-1.3054597-1.63988456l-1.8584434-1.45197506-2.5374992 3.24785096zm18.9386975 17.67612785l-2.4124369-1.1766241-2.6240195 5.3800372-3.0281635-1.476934 7.1680532-14.6966871 5.4607882 2.6634044c1.7361558.8467798 2.8865461 1.8868344 3.4512056 3.1201952.5646594 1.2333608.5023704 2.5565963-.1868689 3.9697464-.4890317 1.0026636-1.1138418 1.7329189-1.8744489 2.190788-.7606071.457869-1.6784868.6703372-2.7536667.637411l.2503192 7.5566384-.0689236.1413143-3.2502288-1.5852425-.1316094-6.7240472zm-1.1180302-3.7966093l2.4427186 1.1913935c.7604093.3708764 1.4435718.4645911 2.0495078.2811468.605936-.1834442 1.0746426-.6149888 1.4061339-1.2946467.3380555-.6931164.4070723-1.3341801.2070525-1.9232104-.2000198-.5890303-.7071439-1.0821046-1.5213875-1.4792377l-2.4326247-1.1864703-2.1514006 4.4110248zm31.4497838 3.059792l-2.7874861 10.40304c-.4631301 1.7284247-1.3699421 2.9503868-2.7204633 3.6659227-1.3505212.715536-2.962289.8223596-4.8353518.3204739-1.8441352-.4941345-3.1777752-1.3746757-4.00096-2.6416499-.8231847-1.2669742-1.0169637-2.7567102-.5813428-4.4692526l2.8194594-10.5223658 3.25434.8719977-2.7932995 10.4247357c-.2771029 1.034162-.2314247 1.8544447.1370358 2.4608724.3684606.6064277.9902117 1.0268711 1.8652719 1.2613428 1.8296714.490259 3.0166782-.2225684 3.5610559-2.1385034l2.8165528-10.511518 3.2651877.8749045zm16.5964989 14.2601236c.0995543-.6285613-.0458661-1.1462037-.4362656-1.5529425-.3903995-.4067388-1.132812-.8881764-2.2272599-1.4443273-1.0944479-.5561508-1.9494291-1.0686829-2.5649693-1.5376118-1.6769756-1.2813728-2.3825185-2.7613512-2.1166499-4.4399797.1382048-.872591.5073494-1.6119434 1.1074447-2.2180794.6000953-.606136 1.3909118-1.0285545 2.3724731-1.2672683.9815612-.2387138 2.0454259-.2673002 3.191626-.0857599 1.1535949.1827114 2.1483754.5544107 2.9843714 1.1151088.835996.5606982 1.4432425 1.2613999 1.8217577 2.1021262.3785152.8407262.4910557 1.7454377.337625 2.7141617l-3.327661-.5270498c.1171228-.7394839-.0247496-1.3513171-.4256213-1.835518-.4008718-.4842009-1.0228041-.7930566-1.8658158-.9265766-.8134322-.128835-1.4729121-.057046-1.9784594.2153691-.5055472.2724152-.8028231.6896204-.8918363 1.2516281-.0831572.5250336.1115174 1.0068907.5840294 1.4455857.4725121.438695 1.1981028.8947276 2.1767939 1.3681115 1.8028942.8692368 3.0701605 1.793864 3.8018367 2.7739093.7316762.9800452.997956 2.0986124.7988474 3.355735-.221362 1.3976246-.9237169 2.4101515-2.1070859 3.0376112-1.1833689.6274596-2.6698066.7994684-4.4593576.5160313-1.242333-.1967662-2.3377117-.6033492-3.286169-1.2197612-.9484572-.6164119-1.6280779-1.3626876-2.0388824-2.2388494-.4108045-.8761617-.5336334-1.8355644-.3684903-2.8782367l3.3387531.5288066c-.2822658 1.7821562.6414442 2.8418751 2.7711579 3.1791886.7912477.1253214 1.4341813.062282 1.9288201-.1891198.4946387-.2514019.7876316-.6654953.8789873-1.2422927zm25.7919057-.7582311c-.08857-.630203-.37898-1.08271-.87124-1.3575345-.49226-.2748245-1.342991-.5181651-2.552219-.7300292-1.209229-.2118642-2.1767014-.4520288-2.902447-.7205011-1.9783369-.7350827-3.0857547-1.9441123-3.3222868-3.6271252-.1229549-.8748701.013894-1.6898437.410551-2.4449453.396657-.7551017 1.0294153-1.3902749 1.8982939-1.9055388.8688786-.5152639 1.8778996-.8536451 3.0270929-1.0151537 1.156608-.1625507 2.216596-.0979386 3.179995.1938381.9634.2917767 1.748978.7843194 2.356758 1.4776428.607781.6933234.979916 1.5255997 1.116417 2.4968538l-3.336353.4688937c-.104199-.7414153-.418755-1.2850349-.943677-1.6308749-.524922-.3458401-1.20998-.4593649-2.055193-.3405779-.815557.114619-1.4252319.3760844-1.8290427.784404s-.566118.89421-.4869267 1.4576857c.0739814.5264049.4010309.9302897.9811585 1.2116667.5801279.281377 1.4073449.505341 2.4816749.6718986 1.978257.3041401 3.460485.8178526 4.446728 1.5411531.986243.7233006 1.567925 1.715139 1.745063 2.9755451.196936 1.401275-.178695 2.574908-1.126905 3.5209343-.948209.9460262-2.319406 1.5451113-4.113631 1.7972732-1.245578.1750545-2.411967.106495-3.4992031-.2056806-1.0872357-.3121756-1.9553501-.8271408-2.6043693-1.5449108-.6490192-.7177701-1.0469832-1.5993397-1.1939039-2.6447353l3.3474735-.4704568c.2511199 1.786811 1.4442998 2.5301586 3.5795758 2.2300651.793315-.111493 1.389724-.3597534 1.789247-.7447886.399523-.3850351.558644-.8666975.477369-1.4450015zm26.135647-7.655239l-6.078636 2.2124429 1.498008 4.1157435 7.133955-2.5965474.925692 2.5433184-10.299912 3.7488614-5.592563-15.3654426 10.278805-3.7411793.933375 2.5644248-7.11285 2.5888654 1.332844 3.6619564 6.078636-2.2124428.902646 2.4799993zm19.539042-3.2876652l6.19538-3.5769043 1.353272 2.3439349-9.113142 5.2614746-8.175781-14.1608685 2.917762-1.6845703 6.822509 11.8169336zm20.352546-14.4190159c-.374065-.5148555-.842921-.7780561-1.406583-.7896098-.563662-.0115536-1.429054.1729835-2.596204.553617-1.16715.3806335-2.134128.6227816-2.900963.7264515-2.091868.2797334-3.637265-.2678752-4.636237-1.6428423-.51929-.7147406-.781066-1.4985663-.785338-2.3515007-.004271-.8529343.256226-1.71082101.781498-2.5736858.525273-.8628648 1.257325-1.63534435 2.196179-2.31746183.944911-.68651824 1.911159-1.12710324 2.89877-1.32176822.987612-.19466498 1.912471-.12858217 2.774605.1982504.862134.32683258 1.58144.88698206 2.157939 1.68046527l-2.725692 1.98033117c-.440075-.60571237-.973026-.93802487-1.598867-.99694749-.62584-.05892261-1.284007.16245596-1.974519.66414237-.666284.48408337-1.081844 1.00116855-1.246693 1.55127103-.16485.5501025-.080047 1.0553169.254411 1.5156582.312454.4300558.790834.6331245 1.435155.6092123.64432-.0239123 1.479854-.2145186 2.506626-.5718248 1.889482-.6601955 3.439385-.9024779 4.649755-.7268545 1.21037.1756234 2.189604.7782816 2.937733 1.8079926.831743 1.1447964 1.051068 2.357401.657981 3.6378502-.393087 1.2804492-1.322529 2.4531479-2.788353 3.5181313-1.017597.7393273-2.079644 1.2263794-3.186174 1.4611709-1.106529.2347915-2.11479.1876593-3.024813-.141398-.910022-.3290572-1.675276-.9206042-2.295783-1.7746587l2.734778-1.9869322c1.060583 1.4597668 2.463079 1.5559396 4.20753.2885213.648113-.4708811 1.05816-.9700793 1.230154-1.4976097.171995-.5275304.086364-1.0275159-.256895-1.4999715z" fill="#000"/></g><path fill="#FFF" fill-rule="nonzero" d="M244 123l1.5-9 1.5 9h-3"/><path stroke="#000" stroke-width=".924" d="M244 123l1.5-9 1.5 9z"/><path fill="#FFF" fill-rule="nonzero" d="M252 123l1.5-9 1.5 9h-3"/><path stroke="#000" stroke-width=".924" d="M252 123l1.5-9 1.5 9z"/><path fill="#FFF" fill-rule="nonzero" d="M252.1281937 117.3893118V110h-4.2563874v7.3893118L240 124.5448163V175h20v-50.4551837l-7.8718063-7.1555045"/><path stroke="#000" stroke-width="1.848" d="M252.1281937 117.3893118V110h-4.2563874v7.3893118L240 124.5448163V175h20v-50.4551837z"/><path d="M245 126s-1 .7357538-1 2.6669873V134h2v-5.3330127C246 126.7357538 245 126 245 126M248.0001585 126S247 126.7357538 247 128.6669873V134h2v-5.3330127C249 126.7357538 248.0001585 126 248.0001585 126M252.0001585 126S251 126.7357538 251 128.6669873V134h2v-5.3330127C253 126.7357538 252.0001585 126 252.0001585 126M255 126s-1 .7357538-1 2.6669873V134h2v-5.3330127C256 126.7357538 255 126 255 126M250.11250732 136.52928929s-5.85792399 1.39903369-5.85792399 5.07084359v13.37493432h11.71624997v-13.37493432c0-3.6718099-5.85832598-5.07084359-5.85832598-5.07084359" fill="#D8D8D8" fill-rule="nonzero"/><path d="M250.11250732 136.52928929s-5.85792399 1.39903369-5.85792399 5.07084359v13.37493432h11.71624997v-13.37493432c0-3.6718099-5.85832598-5.07084359-5.85832598-5.07084359zM244.39614637 142.31917899h11.57468693M246.71770725 138.34689516l2.85315199 3.97228383M253.50734456 138.07410051l-2.85315199 3.97197628" stroke="#FFF" stroke-width=".924"/><path d="M249.9998332 159S244 160.4711611 244 164.3332301V175h12v-10.6667699C256 160.4711611 249.9998332 159 249.9998332 159" fill="#FFF" fill-rule="nonzero"/><path d="M249.9998332 159S244 160.4711611 244 164.3332301V175h12v-10.6667699C256 160.4711611 249.9998332 159 249.9998332 159z" stroke="#000" stroke-width="1.848"/><path fill="#D8D8D8" fill-rule="nonzero" d="M251 173h2v-5h-2z"/><path stroke="#D8D8D8" stroke-width=".924" d="M251 173h2v-5h-2z"/><path fill="#D8D8D8" fill-rule="nonzero" d="M247 173h2v-5h-2z"/><path stroke="#D8D8D8" stroke-width=".924" d="M247 173h2v-5h-2z"/><path fill="#FFF" fill-rule="nonzero" d="M248 110l1.5-9 1.5 9h-3"/><path stroke="#000" stroke-width="1.848" d="M248 110l2.0488675-9L252 110z"/><path fill="#FFF" fill-rule="nonzero" d="M247 160l3.4998394-11L254 160h-7"/><path stroke="#000" stroke-width="1.848" d="M247 160l3.4998394-11L254 160z"/><path d="M247 138l3 4M222 98h15v-2h-15z" fill="#FFF" fill-rule="nonzero"/><path stroke="#000" stroke-width="1.848" d="M222 98h15v-2h-15z"/><path fill="#FFF" fill-rule="nonzero" d="M220 101h18v-3h-18z"/><path stroke="#000" stroke-width="1.848" d="M220 101h18v-3h-18z"/><path fill="#FFF" fill-rule="nonzero" d="M240.4336961 157.2836807v-31.4807714h-.9398538v-22.3720206L236.6749962 101h-15.34963465l-2.81920383 2.4308887v22.3720206h-.93985387v31.4807714H216V175h26v-17.7163193h-1.5663039"/><path stroke="#000" stroke-width="1.848" d="M240.4336961 157.2836807v-31.4807714h-.9398538v-22.3720206L236.6749962 101h-15.34963465l-2.81920383 2.4308887v22.3720206h-.93985387v31.4807714H216V175h26v-17.7163193z"/><path d="M225.49984425 103S224 104.10333963 224 107v8h3v-8c0-2.89666037-1.50015575-4-1.50015575-4" fill="#D8D8D8" fill-rule="nonzero"/><path d="M225.49984425 103S224 104.10333963 224 107v8h3v-8c0-2.89666037-1.50015575-4-1.50015575-4z" stroke="#D8D8D8" stroke-width=".924"/><path d="M232.5 103s-1.5 1.10333963-1.5 4v8h3v-8c0-2.89666037-1.5-4-1.5-4" fill="#D8D8D8" fill-rule="nonzero"/><path d="M232.5 103s-1.5 1.10333963-1.5 4v8h3v-8c0-2.89666037-1.5-4-1.5-4z" stroke="#D8D8D8" stroke-width=".924"/><path d="M229.0001599 138S227 139.3795997 227 143.0004044V153h4v-9.9995956C231 139.3795997 229.0001599 138 229.0001599 138" fill="#D8D8D8" fill-rule="nonzero"/><path d="M229.0001599 138S227 139.3795997 227 143.0004044V153h4v-9.9995956C231 139.3795997 229.0001599 138 229.0001599 138z" stroke="#D8D8D8" stroke-width=".924"/><path d="M229.500174 161S224 162.2874409 224 165.6667733V175h11v-9.3332267C235 162.2874409 229.500174 161 229.500174 161z" stroke="#000" stroke-width="1.848"/><path fill="#D8D8D8" fill-rule="nonzero" d="M230 173h2v-5h-2z"/><path stroke="#D8D8D8" stroke-width=".924" d="M230 173h2v-5h-2z"/><path fill="#D8D8D8" fill-rule="nonzero" d="M226 173h2v-5h-2z"/><path stroke="#D8D8D8" stroke-width=".924" d="M226 173h2v-5h-2z"/><path d="M219 126h21M218 157h23" fill="#FFF" fill-rule="nonzero"/><path d="M218 157h23" stroke="#000" stroke-width="1.848"/><path d="M225.49984425 122S224 123.1033686 224 126.000105V134h3v-7.999895C227 123.1033686 225.49984425 122 225.49984425 122" fill="#D8D8D8" fill-rule="nonzero"/><path d="M225.49984425 122S224 123.1033686 224 126.000105V134h3v-7.999895C227 123.1033686 225.49984425 122 225.49984425 122z" stroke="#D8D8D8" stroke-width=".924"/><path d="M232.5 122s-1.5 1.1033686-1.5 4.000105V134h3v-7.999895C234 123.1033686 232.5 122 232.5 122" fill="#D8D8D8" fill-rule="nonzero"/><path d="M232.5 122s-1.5 1.1033686-1.5 4.000105V134h3v-7.999895C234 123.1033686 232.5 122 232.5 122z" stroke="#D8D8D8" stroke-width=".924"/><path fill="#FFF" fill-rule="nonzero" d="M264 98h15v-2h-15z"/><path stroke="#000" stroke-width="1.848" d="M264 98h15v-2h-15z"/><path fill="#FFF" fill-rule="nonzero" d="M262 101h18v-3h-18z"/><path stroke="#000" stroke-width="1.848" d="M262 101h18v-3h-18z"/><path fill="#FFF" fill-rule="nonzero" d="M282.4340324 157.2836807v-31.4807714h-.9398668v-22.3720206L278.6749229 101h-15.3498458l-2.8188849 2.4308887v22.3720206h-.9398668v31.4807714H258V175h26v-17.7163193h-1.5659676"/><path stroke="#000" stroke-width="1.848" d="M282.4340324 157.2836807v-31.4807714h-.9398668v-22.3720206L278.6749229 101h-15.3498458l-2.8188849 2.4308887v22.3720206h-.9398668v31.4807714H258V175h26v-17.7163193z"/><path d="M267.5 103s-1.5 1.10333963-1.5 4v8h3v-8c0-2.89666037-1.5-4-1.5-4" fill="#D8D8D8" fill-rule="nonzero"/><path d="M267.5 103s-1.5 1.10333963-1.5 4v8h3v-8c0-2.89666037-1.5-4-1.5-4z" stroke="#D8D8D8" stroke-width=".924"/><path d="M274.5001557 103S273 104.10333963 273 107v8h3v-8c0-2.89666037-1.4998443-4-1.4998443-4" fill="#D8D8D8" fill-rule="nonzero"/><path d="M274.5001557 103S273 104.10333963 273 107v8h3v-8c0-2.89666037-1.4998443-4-1.4998443-4z" stroke="#D8D8D8" stroke-width=".924"/><path d="M271.0003198 138S269 139.3795997 269 143.0004044V153h4v-9.9995956C273 139.3795997 271.0003198 138 271.0003198 138" fill="#D8D8D8" fill-rule="nonzero"/><path d="M271.0003198 138S269 139.3795997 269 143.0004044V153h4v-9.9995956C273 139.3795997 271.0003198 138 271.0003198 138z" stroke="#D8D8D8" stroke-width=".924"/><path d="M271.5003481 161S266 162.2874409 266 165.6667733V175h11v-9.3332267C277 162.2874409 271.5003481 161 271.5003481 161" fill="#FFF" fill-rule="nonzero"/><path d="M271.5003481 161S266 162.2874409 266 165.6667733V175h11v-9.3332267C277 162.2874409 271.5003481 161 271.5003481 161z" stroke="#000" stroke-width="1.848"/><path fill="#D8D8D8" fill-rule="nonzero" d="M272 173h2v-5h-2z"/><path stroke="#D8D8D8" stroke-width=".924" d="M272 173h2v-5h-2z"/><path fill="#D8D8D8" fill-rule="nonzero" d="M268 173h2v-5h-2z"/><path stroke="#D8D8D8" stroke-width=".924" d="M268 173h2v-5h-2z"/><path d="M261 126h21M260 157h23" fill="#FFF" fill-rule="nonzero"/><path d="M260 157h23" stroke="#000" stroke-width="1.848"/><path d="M267.5 122s-1.5 1.1033686-1.5 4.000105V134h3v-7.999895C269 123.1033686 267.5 122 267.5 122" fill="#D8D8D8" fill-rule="nonzero"/><path d="M267.5 122s-1.5 1.1033686-1.5 4.000105V134h3v-7.999895C269 123.1033686 267.5 122 267.5 122z" stroke="#D8D8D8" stroke-width=".924"/><path d="M274.5001557 122S273 123.1033686 273 126.000105V134h3v-7.999895C276 123.1033686 274.5001557 122 274.5001557 122" fill="#D8D8D8" fill-rule="nonzero"/><path d="M274.5001557 122S273 123.1033686 273 126.000105V134h3v-7.999895C276 123.1033686 274.5001557 122 274.5001557 122z" stroke="#D8D8D8" stroke-width=".924"/><g><path fill="#FFF" fill-rule="nonzero" d="M63.2260244 170.6875349h30.5918829v-58.9508605H63.2260244z"/><path fill="#D8D8D8" fill-rule="nonzero" d="M63.2260244 170.6875349h30.5918829v-33.7656753H63.2260244z"/><path stroke="#000" stroke-width="1.547" d="M63.2260244 170.6875349h30.5918829v-58.9508605H63.2260244z"/><path d="M78.5219659 97.8872093c-7.4383318 0-13.4681513 6.5853256-13.4681513 14.7085581h26.9366878c0-8.1232325-6.0302048-14.7085581-13.4685365-14.7085581" fill="#D8D8D8" fill-rule="nonzero"/><path d="M78.5219659 97.8872093c-7.4383318 0-13.4681513 6.5853256-13.4681513 14.7085581h26.9366878c0-8.1232325-6.0302048-14.7085581-13.4685365-14.7085581z" stroke="#000" stroke-width="1.547"/><path d="M78.5219659 90.30995349c-2.0285659 0-3.6733074 1.79606977-3.6733074 4.0112093h7.3466147c0-2.21513953-1.6447415-4.0112093-3.6733073-4.0112093" fill="#D8D8D8" fill-rule="nonzero"/><path d="M78.5219659 90.30995349c-2.0285659 0-3.6733074 1.79606977-3.6733074 4.0112093h7.3466147c0-2.21513953-1.6447415-4.0112093-3.6733073-4.0112093z" stroke="#000" stroke-width="1.547"/><path fill="#FFF" fill-rule="nonzero" d="M74.9014537 97.8872093h7.2410243v-3.56604651h-7.2410243z"/><path stroke="#000" stroke-width="1.547" d="M74.9014537 97.8872093h7.2410243v-3.56604651h-7.2410243z"/><path d="M78.5219659 160.7184186c-1.3063903 0-2.3653757 1.156-2.3653757 2.582814v11.4133255h4.7307513v-11.4133255c0-1.426814-1.0589854-2.582814-2.3653756-2.582814" fill="#FFF" fill-rule="nonzero"/><path d="M78.5219659 160.7184186c-1.3063903 0-2.3653757 1.156-2.3653757 2.582814v11.4133255h4.7307513v-11.4133255c0-1.426814-1.0589854-2.582814-2.3653756-2.582814z" stroke="#000" stroke-width="1.547"/><path d="M72.1977268 160.7184186c-.9499268 0-1.7198878 1.156-1.7198878 2.582814v11.4133255H73.918v-11.4133255c0-1.426814-.769961-2.582814-1.7202732-2.582814" fill="#FFF" fill-rule="nonzero"/><path d="M72.1977268 160.7184186c-.9499268 0-1.7198878 1.156-1.7198878 2.582814v11.4133255H73.918v-11.4133255c0-1.426814-.769961-2.582814-1.7202732-2.582814z" stroke="#000" stroke-width="1.547"/><path d="M84.8462049 160.7184186c-.9503122 0-1.7202732 1.156-1.7202732 2.582814v11.4133255h3.4405463v-11.4133255c0-1.426814-.7703463-2.582814-1.7202731-2.582814" fill="#FFF" fill-rule="nonzero"/><path d="M84.8462049 160.7184186c-.9503122 0-1.7202732 1.156-1.7202732 2.582814v11.4133255h3.4405463v-11.4133255c0-1.426814-.7703463-2.582814-1.7202731-2.582814z" stroke="#000" stroke-width="1.547"/><path d="M68.3402146 115.5525814v4.1748837h2.1503415v-4.1748837c0-.6483721-.481322-1.1737907-1.0751707-1.1737907-.5938488 0-1.0751708.5254186-1.0751708 1.1737907z" fill="#D8D8D8" fill-rule="nonzero"/><path d="M69.4153854 114.3787907c-.5938488 0-1.0751708.5254186-1.0751708 1.1737907v4.1748837h2.1503415v-4.1748837c0-.6483721-.481322-1.1737907-1.0751707-1.1737907z" stroke="#D8D8D8" stroke-width=".7735"/><path d="M73.0578634 114.3787907c-.5934634 0-1.0747854.5254186-1.0747854 1.1737907v4.1748837h2.1499561v-4.1748837c0-.6483721-.4813219-1.1737907-1.0751707-1.1737907" fill="#D8D8D8" fill-rule="nonzero"/><path d="M73.0578634 114.3787907c-.5934634 0-1.0747854.5254186-1.0747854 1.1737907v4.1748837h2.1499561v-4.1748837c0-.6483721-.4813219-1.1737907-1.0751707-1.1737907z" stroke="#D8D8D8" stroke-width=".7735"/><path d="M76.7007268 114.3787907c-.5938488 0-1.0751707.5254186-1.0751707 1.1737907v4.1748837h2.1503415v-4.1748837c0-.6483721-.481322-1.1737907-1.0751708-1.1737907" fill="#D8D8D8" fill-rule="nonzero"/><path d="M76.7007268 114.3787907c-.5938488 0-1.0751707.5254186-1.0751707 1.1737907v4.1748837h2.1503415v-4.1748837c0-.6483721-.481322-1.1737907-1.0751708-1.1737907z" stroke="#D8D8D8" stroke-width=".7735"/><path d="M80.3435902 114.3787907c-.5938487 0-1.0751707.5254186-1.0751707 1.1737907v4.1748837h2.1499561v-4.1748837c0-.6483721-.4813219-1.1737907-1.0747854-1.1737907" fill="#D8D8D8" fill-rule="nonzero"/><path d="M80.3435902 114.3787907c-.5938487 0-1.0751707.5254186-1.0751707 1.1737907v4.1748837h2.1499561v-4.1748837c0-.6483721-.4813219-1.1737907-1.0747854-1.1737907z" stroke="#D8D8D8" stroke-width=".7735"/><path d="M83.9860683 114.3787907c-.5938488 0-1.0751707.5254186-1.0751707 1.1737907v4.1748837h2.1503414v-4.1748837c0-.6483721-.4813219-1.1737907-1.0751707-1.1737907" fill="#D8D8D8" fill-rule="nonzero"/><path d="M83.9860683 114.3787907c-.5938488 0-1.0751707.5254186-1.0751707 1.1737907v4.1748837h2.1503414v-4.1748837c0-.6483721-.4813219-1.1737907-1.0751707-1.1737907z" stroke="#D8D8D8" stroke-width=".7735"/><path d="M87.6285463 114.3787907c-.5938487 0-1.0747853.5254186-1.0747853 1.1737907v4.1748837h2.1503414v-4.1748837c0-.6483721-.4817073-1.1737907-1.0755561-1.1737907" fill="#D8D8D8" fill-rule="nonzero"/><path d="M87.6285463 114.3787907c-.5938487 0-1.0747853.5254186-1.0747853 1.1737907v4.1748837h2.1503414v-4.1748837c0-.6483721-.4817073-1.1737907-1.0755561-1.1737907z" stroke="#D8D8D8" stroke-width=".7735"/><path d="M69.4153854 122.5502558c-.5938488 0-1.0751708.525814-1.0751708 1.1737907v4.1748837h2.1503415v-4.1748837c0-.6479767-.481322-1.1737907-1.0751707-1.1737907" fill="#D8D8D8" fill-rule="nonzero"/><path d="M69.4153854 122.5502558c-.5938488 0-1.0751708.525814-1.0751708 1.1737907v4.1748837h2.1503415v-4.1748837c0-.6479767-.481322-1.1737907-1.0751707-1.1737907z" stroke="#D8D8D8" stroke-width=".7735"/><path d="M73.0578634 122.5502558c-.5934634 0-1.0747854.525814-1.0747854 1.1737907v4.1748837h2.1499561v-4.1748837c0-.6479767-.4813219-1.1737907-1.0751707-1.1737907" fill="#D8D8D8" fill-rule="nonzero"/><path d="M73.0578634 122.5502558c-.5934634 0-1.0747854.525814-1.0747854 1.1737907v4.1748837h2.1499561v-4.1748837c0-.6479767-.4813219-1.1737907-1.0751707-1.1737907z" stroke="#D8D8D8" stroke-width=".7735"/><path d="M76.7007268 122.5502558c-.5938488 0-1.0751707.525814-1.0751707 1.1737907v4.1748837h2.1503415v-4.1748837c0-.6479767-.481322-1.1737907-1.0751708-1.1737907" fill="#D8D8D8" fill-rule="nonzero"/><path d="M76.7007268 122.5502558c-.5938488 0-1.0751707.525814-1.0751707 1.1737907v4.1748837h2.1503415v-4.1748837c0-.6479767-.481322-1.1737907-1.0751708-1.1737907z" stroke="#D8D8D8" stroke-width=".7735"/><path d="M80.3435902 122.5502558c-.5938487 0-1.0751707.525814-1.0751707 1.1737907v4.1748837h2.1499561v-4.1748837c0-.6479767-.4813219-1.1737907-1.0747854-1.1737907" fill="#D8D8D8" fill-rule="nonzero"/><path d="M80.3435902 122.5502558c-.5938487 0-1.0751707.525814-1.0751707 1.1737907v4.1748837h2.1499561v-4.1748837c0-.6479767-.4813219-1.1737907-1.0747854-1.1737907z" stroke="#D8D8D8" stroke-width=".7735"/><path d="M83.9860683 122.5502558c-.5938488 0-1.0751707.525814-1.0751707 1.1737907v4.1748837h2.1503414v-4.1748837c0-.6479767-.4813219-1.1737907-1.0751707-1.1737907" fill="#D8D8D8" fill-rule="nonzero"/><path d="M83.9860683 122.5502558c-.5938488 0-1.0751707.525814-1.0751707 1.1737907v4.1748837h2.1503414v-4.1748837c0-.6479767-.4813219-1.1737907-1.0751707-1.1737907z" stroke="#D8D8D8" stroke-width=".7735"/><path d="M87.6285463 122.5502558c-.5938487 0-1.0747853.525814-1.0747853 1.1737907v4.1748837h2.1503414v-4.1748837c0-.6479767-.4817073-1.1737907-1.0755561-1.1737907" fill="#D8D8D8" fill-rule="nonzero"/><path d="M87.6285463 122.5502558c-.5938487 0-1.0747853.525814-1.0747853 1.1737907v4.1748837h2.1503414v-4.1748837c0-.6479767-.4817073-1.1737907-1.0755561-1.1737907z" stroke="#D8D8D8" stroke-width=".7735"/><path fill="#D8D8D8" fill-rule="nonzero" d="M78.5219659 124.8163953l9.7967707 11.8561163H68.7255805l9.7963854-11.8561163"/><path stroke="#000" stroke-width="1.547" d="M78.5219659 124.8163953l9.7967707 11.8561163H68.7255805z"/><path d="M49.0746195 150.036093c-.18651706-2.6567442-2.34109755-4.7540697-4.97815609-4.7540697-2.6374439 0-4.79202439 2.0973255-4.9781561 4.7540697h9.95631219" fill="#D8D8D8" fill-rule="nonzero"/><path d="M49.0746195 150.036093c-.18651706-2.6567442-2.34109755-4.7540697-4.97815609-4.7540697-2.6374439 0-4.79202439 2.0973255-4.9781561 4.7540697h9.95631219z" stroke="#000" stroke-width="1.547"/><path fill="#FFF" fill-rule="nonzero" d="M39.11830732 174.9964419h6.49842439V150.036093h-6.4984244z"/><path stroke="#000" stroke-width="1.547" d="M39.11830732 174.9964419h6.49842439V150.036093h-6.4984244z"/><path fill="#FFF" fill-rule="nonzero" d="M45.61673171 174.9964419h8.54433169v-36.9943721h-8.54433169z"/><path stroke="#000" stroke-width="1.547" d="M45.61673171 174.9964419h8.54433169v-36.9943721h-8.54433169z"/><path d="M50.9270732 150.6682558c-1.3063903 0-2.36537564 1.1563954-2.36537564 2.5832093v4.4148605h4.73075124v-4.4148605c0-1.4268139-1.0589854-2.5832093-2.3653756-2.5832093" fill="#D8D8D8" fill-rule="nonzero"/><path d="M50.9270732 150.6682558c-1.3063903 0-2.36537564 1.1563954-2.36537564 2.5832093v4.4148605h4.73075124v-4.4148605c0-1.4268139-1.0589854-2.5832093-2.3653756-2.5832093z" stroke="#000" stroke-width="1.547"/><path d="M50.9270732 160.7334419c-1.3063903 0-2.36537564 1.1567907-2.36537564 2.5832093v4.4148604h4.73075124v-4.4148604c0-1.4264186-1.0589854-2.5832093-2.3653756-2.5832093" fill="#D8D8D8" fill-rule="nonzero"/><path d="M50.9270732 160.7334419c-1.3063903 0-2.36537564 1.1567907-2.36537564 2.5832093v4.4148604h4.73075124v-4.4148604c0-1.4264186-1.0589854-2.5832093-2.3653756-2.5832093z" stroke="#000" stroke-width="1.547"/><path d="M60.9677805 96.99569767c-2.0285659 0-3.672922 1.79606977-3.672922 4.01120933h7.3462293c0-2.21513956-1.6443561-4.01120933-3.6733073-4.01120933" fill="#D8D8D8" fill-rule="nonzero"/><path d="M60.9677805 96.99569767c-2.0285659 0-3.672922 1.79606977-3.672922 4.01120933h7.3462293c0-2.21513956-1.6443561-4.01120933-3.6733073-4.01120933z" stroke="#000" stroke-width="1.547"/><path fill="#FFF" fill-rule="nonzero" d="M57.2948585 115.2703023h7.3462293V101.006907h-7.3462293z"/><path stroke="#000" stroke-width="1.547" d="M57.2948585 115.2703023h7.3462293V101.006907h-7.3462293z"/><path fill="#FFF" fill-rule="nonzero" d="M55.7545512 122.5502558h10.4272293v-7.2799535H55.7545512z"/><path stroke="#000" stroke-width="1.547" d="M55.7545512 122.5502558h10.4272293v-7.2799535H55.7545512z"/><path fill="#FFF" fill-rule="nonzero" d="M54.1614488 170.6875349h13.6134341v-48.1372791H54.1614488z"/><path stroke="#000" stroke-width="1.547" d="M54.1614488 170.6875349h13.6134341v-48.1372791H54.1614488z"/><path fill="#D8D8D8" fill-rule="nonzero" d="M57.7607659 132.7913721l3.2070146 3.8811395h-6.4144146l3.2074-3.8811395"/><path stroke="#000" stroke-width="1.547" d="M57.7607659 132.7913721l3.2070146 3.8811395h-6.4144146z"/><path fill="#D8D8D8" fill-rule="nonzero" d="M64.1751805 132.7913721l3.2074 3.8811395h-6.4148l3.2074-3.8811395"/><path stroke="#000" stroke-width="1.547" d="M64.1751805 132.7913721l3.2074 3.8811395h-6.4148z"/><path fill="#D8D8D8" fill-rule="nonzero" d="M53.7267561 126.4132093h14.4824341v-3.8629535H53.7267561z"/><path stroke="#000" stroke-width="1.547" d="M53.7267561 126.4132093h14.4824341v-3.8629535H53.7267561z"/><path fill="#D8D8D8" fill-rule="nonzero" d="M59.2301659 150.036093h3.4756146v-3.5656511h-3.4756146z"/><path stroke="#D8D8D8" stroke-width=".7735" d="M59.2301659 150.036093h3.4756146v-3.5656511h-3.4756146z"/><path fill="#D8D8D8" fill-rule="nonzero" d="M59.2301659 162.5160698h3.4756146v-3.5656512h-3.4756146z"/><path stroke="#D8D8D8" stroke-width=".7735" d="M59.2301659 162.5160698h3.4756146v-3.5656512h-3.4756146z"/><path fill="#D8D8D8" fill-rule="nonzero" d="M59.2301659 168.608h3.4756146v-3.5660465h-3.4756146z"/><path stroke="#D8D8D8" stroke-width=".7735" d="M59.2301659 168.608h3.4756146v-3.5660465h-3.4756146z"/><path d="M107.9696976 150.036093c.1861317-2.6567442 2.3407122-4.7540697 4.9781561-4.7540697 2.6370585 0 4.791639 2.0973255 4.9781561 4.7540697h-9.9563122" fill="#D8D8D8" fill-rule="nonzero"/><path d="M107.9696976 150.036093c.1861317-2.6567442 2.3407122-4.7540697 4.9781561-4.7540697 2.6370585 0 4.791639 2.0973255 4.9781561 4.7540697h-9.9563122z" stroke="#000" stroke-width="1.547"/><path fill="#FFF" fill-rule="nonzero" d="M111.4272 174.9964419h6.4988098V150.036093H111.4272z"/><path stroke="#000" stroke-width="1.547" d="M111.4272 174.9964419h6.4988098V150.036093H111.4272z"/><path fill="#FFF" fill-rule="nonzero" d="M102.8824829 174.9964419H111.4272v-36.9943721h-8.5447171z"/><path stroke="#000" stroke-width="1.547" d="M102.8824829 174.9964419H111.4272v-36.9943721h-8.5447171z"/><path d="M106.1168585 150.6682558c1.3063903 0 2.3653756 1.1563954 2.3653756 2.5832093v4.4148605h-4.7307512v-4.4148605c0-1.4268139 1.0589854-2.5832093 2.3653756-2.5832093" fill="#D8D8D8" fill-rule="nonzero"/><path d="M106.1168585 150.6682558c1.3063903 0 2.3653756 1.1563954 2.3653756 2.5832093v4.4148605h-4.7307512v-4.4148605c0-1.4268139 1.0589854-2.5832093 2.3653756-2.5832093z" stroke="#000" stroke-width="1.547"/><path d="M106.1168585 160.7334419c1.3063903 0 2.3653756 1.1567907 2.3653756 2.5832093v4.4148604h-4.7307512v-4.4148604c0-1.4264186 1.0589854-2.5832093 2.3653756-2.5832093" fill="#D8D8D8" fill-rule="nonzero"/><path d="M106.1168585 160.7334419c1.3063903 0 2.3653756 1.1567907 2.3653756 2.5832093v4.4148604h-4.7307512v-4.4148604c0-1.4264186 1.0589854-2.5832093 2.3653756-2.5832093z" stroke="#000" stroke-width="1.547"/><path d="M96.0761512 96.99569767c2.0285659 0 3.6733073 1.79606977 3.6733073 4.01120933h-7.3466146c0-2.21513956 1.6447415-4.01120933 3.6733073-4.01120933" fill="#D8D8D8" fill-rule="nonzero"/><path d="M96.0761512 96.99569767c2.0285659 0 3.6733073 1.79606977 3.6733073 4.01120933h-7.3466146c0-2.21513956 1.6447415-4.01120933 3.6733073-4.01120933z" stroke="#000" stroke-width="1.547"/><path fill="#FFF" fill-rule="nonzero" d="M92.4028439 115.2703023h7.3466146V101.006907h-7.3466146z"/><path stroke="#000" stroke-width="1.547" d="M92.4028439 115.2703023h7.3466146V101.006907h-7.3466146z"/><path fill="#FFF" fill-rule="nonzero" d="M90.8625366 122.5502558h10.4272293v-7.2799535H90.8625366z"/><path stroke="#000" stroke-width="1.547" d="M90.8625366 122.5502558h10.4272293v-7.2799535H90.8625366z"/><path fill="#FFF" fill-rule="nonzero" d="M89.2694341 170.6875349h13.6130488v-48.1372791H89.2694341z"/><path stroke="#000" stroke-width="1.547" d="M89.2694341 170.6875349h13.6130488v-48.1372791H89.2694341z"/><path fill="#D8D8D8" fill-rule="nonzero" d="M99.2835512 132.7913721l-3.2074 3.8811395h6.4144147l-3.2070147-3.8811395"/><path stroke="#000" stroke-width="1.547" d="M99.2835512 132.7913721l-3.2074 3.8811395h6.4144147z"/><path fill="#D8D8D8" fill-rule="nonzero" d="M92.8687512 132.7913721l-3.2070146 3.8811395h6.4144146l-3.2074-3.8811395"/><path stroke="#000" stroke-width="1.547" d="M92.8687512 132.7913721l-3.2070146 3.8811395h6.4144146z"/><path fill="#D8D8D8" fill-rule="nonzero" d="M88.8351268 126.4132093h14.4820488v-3.8629535H88.8351268z"/><path stroke="#000" stroke-width="1.547" d="M88.8351268 126.4132093h14.4820488v-3.8629535H88.8351268z"/><path fill="#D8D8D8" fill-rule="nonzero" d="M94.3381512 150.036093h3.476v-3.5656511h-3.476z"/><path stroke="#D8D8D8" stroke-width=".7735" d="M94.3381512 150.036093h3.476v-3.5656511h-3.476z"/><path fill="#D8D8D8" fill-rule="nonzero" d="M94.3381512 162.5160698h3.476v-3.5656512h-3.476z"/><path stroke="#D8D8D8" stroke-width=".7735" d="M94.3381512 162.5160698h3.476v-3.5656512h-3.476z"/><path fill="#D8D8D8" fill-rule="nonzero" d="M94.3381512 168.608h3.476v-3.5660465h-3.476z"/><path stroke="#D8D8D8" stroke-width=".7735" d="M94.3381512 168.608h3.476v-3.5660465h-3.476z"/><path fill="#D8D8D8" fill-rule="nonzero" d="M52.6265366 174.9964419h51.7908585v-4.308907H52.6265366z"/><path stroke="#000" stroke-width="1.547" d="M52.6265366 174.9964419h51.7908585v-4.308907H52.6265366z"/><path fill="#FFF" fill-rule="nonzero" d="M78.5219659 143.0506744l-6.9986293 3.5684186v6.537093h13.9972585v-6.537093l-6.9986292-3.5684186"/><path stroke="#000" stroke-width="1.547" d="M78.5219659 143.0506744l-6.9986293 3.5684186v6.537093h13.9972585v-6.537093z"/></g><g><path fill="#FFF" fill-rule="nonzero" d="M129.27208791 163.2748736h36.95838829v-21.2208664h-36.95838829z"/><path stroke="#000" stroke-width="1.61" d="M123.50285714 163.2748736h36.95838826v-21.2208664h-36.95838826z"/><path fill="#D8D8D8" fill-rule="nonzero" d="M125.05864469 124.9138628l1.62945055-11.3240433 1.62904762 11.3240433h-3.25849817"/><path stroke="#000" stroke-width="1.61" d="M125.05864469 124.9138628l1.62945055-11.3240433 1.62904762 11.3240433z"/><path fill="#D8D8D8" fill-rule="nonzero" d="M126.37461538 142.0540072h39.85586082v-12.2429603h-39.85586082z"/><path stroke="#000" stroke-width="1.61" d="M126.37461538 142.0540072h39.85586082v-12.2429603h-39.85586082z"/><path fill="#FFF" fill-rule="nonzero" d="M122.06245421 174.973394h44.16802199v-11.6985204h-44.16802199z"/><path stroke="#000" stroke-width="1.61" d="M122.06245421 174.973394h44.16802199v-11.6985204h-44.16802199z"/><path d="M127.96901099 169.559964c0-.874043-.71882784-1.582491-1.60567766-1.582491-.88684981 0-1.60527472.708448-1.60527472 1.582491v5.41343h3.24600732v-5.41343h-.03505494" fill="#FFF" fill-rule="nonzero"/><path d="M127.96901099 169.559964c0-.874043-.71882784-1.582491-1.60567766-1.582491-.88684981 0-1.60527472.708448-1.60527472 1.582491v5.41343h3.24600732v-5.41343h-.03505494z" stroke="#000" stroke-width="1.61"/><path d="M133.8521978 169.559964c0-.874043-.7184249-1.582491-1.6052747-1.582491-.88725277 0-1.60608061.708448-1.60608061 1.582491v5.41343h3.24641021v-5.41343h-.0350549" fill="#FFF" fill-rule="nonzero"/><path d="M133.8521978 169.559964c0-.874043-.7184249-1.582491-1.6052747-1.582491-.88725277 0-1.60608061.708448-1.60608061 1.582491v5.41343h3.24641021v-5.41343h-.0350549z" stroke="#000" stroke-width="1.61"/><path d="M139.7357875 169.559964c0-.874043-.7192307-1.582491-1.6056776-1.582491-.8868498 0-1.6056777.708448-1.6056777 1.582491v5.41343h3.2464103v-5.41343h-.035055" fill="#FFF" fill-rule="nonzero"/><path d="M139.7357875 169.559964c0-.874043-.7192307-1.582491-1.6056776-1.582491-.8868498 0-1.6056777.708448-1.6056777 1.582491v5.41343h3.2464103v-5.41343h-.035055z" stroke="#000" stroke-width="1.61"/><path d="M145.6189744 169.559964c0-.874043-.7188279-1.582491-1.6052748-1.582491-.8868498 0-1.6060806.708448-1.6060806 1.582491v5.41343h3.2464103v-5.41343h-.0350549" fill="#FFF" fill-rule="nonzero"/><path d="M145.6189744 169.559964c0-.874043-.7188279-1.582491-1.6052748-1.582491-.8868498 0-1.6060806.708448-1.6060806 1.582491v5.41343h3.2464103v-5.41343h-.0350549z" stroke="#000" stroke-width="1.61"/><path d="M151.5025641 169.559964c0-.874043-.7188278-1.582491-1.6056777-1.582491-.8868498 0-1.6056776.708448-1.6056776 1.582491v5.41343h3.2464102v-5.41343h-.0350549" fill="#FFF" fill-rule="nonzero"/><path d="M151.5025641 169.559964c0-.874043-.7188278-1.582491-1.6056777-1.582491-.8868498 0-1.6056776.708448-1.6056776 1.582491v5.41343h3.2464102v-5.41343h-.0350549z" stroke="#000" stroke-width="1.61"/><path d="M157.3857509 169.559964c0-.874043-.7188278-1.582491-1.6052747-1.582491-.8868498 0-1.6056777.708448-1.6056777 1.582491v5.41343h3.2460074v-5.41343h-.035055" fill="#FFF" fill-rule="nonzero"/><path d="M157.3857509 169.559964c0-.874043-.7188278-1.582491-1.6052747-1.582491-.8868498 0-1.6056777.708448-1.6056777 1.582491v5.41343h3.2460074v-5.41343h-.035055z" stroke="#000" stroke-width="1.61"/><path fill="#FFF" fill-rule="nonzero" d="M123.22652015 163.2748736h6.92274725v-21.2208664h-6.92274725z"/><path stroke="#000" stroke-width="1.61" d="M123.22652015 163.2748736h6.92274725v-21.2208664h-6.92274725z"/><path fill="#FFF" fill-rule="nonzero" d="M125.05864469 142.0540072h3.25849817v-17.1401444h-3.25849817z"/><path stroke="#000" stroke-width="1.61" d="M125.05864469 142.0540072h3.25849817v-17.1401444h-3.25849817z"/><path d="M133.8872527 145.1145487v4.2999278-4.2999278zM138.1474359 145.1145487v4.2999278-4.2999278zM142.407619 145.1145487v4.2999278-4.2999278zM146.6682051 145.1145487v4.2999278-4.2999278zM150.9283883 145.1145487v4.2999278-4.2999278zM155.1885714 145.1145487v4.2999278-4.2999278zM133.8872527 152.6644404v4.2999278-4.2999278zM138.1474359 152.6644404v4.2999278-4.2999278zM142.407619 152.6644404v4.2999278-4.2999278zM146.6682051 152.6644404v4.2999278-4.2999278zM150.9283883 152.6644404v4.2999278-4.2999278zM155.1885714 152.6644404v4.2999278-4.2999278zM126.68809524 147.2645126v2.1499639-2.1499639zM126.68809524 154.8144043v2.1499639-2.1499639z" stroke="#D8D8D8" stroke-width="1.61"/><path d="M122.9581685 133.483935h7.45945055-7.45945055z" stroke="#000" stroke-width="1.61"/><path fill="#FFF" fill-rule="nonzero" d="M167.6667766 163.2748736h36.9583882v-21.2208664h-36.9583882z"/><path stroke="#000" stroke-width="1.61" d="M173.4360073 163.2748736h36.9583883v-21.2208664h-36.9583883z"/><path fill="#D8D8D8" fill-rule="nonzero" d="M208.8386081 124.9138628l-1.6294506-11.3240433-1.6294505 11.3240433h3.2589011"/><path stroke="#000" stroke-width="1.61" d="M208.8386081 124.9138628l-1.6294506-11.3240433-1.6294505 11.3240433z"/><path fill="#D8D8D8" fill-rule="nonzero" d="M167.6667766 142.0540072h39.8558608v-12.2429603h-39.8558608z"/><path stroke="#000" stroke-width="1.61" d="M167.6667766 142.0540072h39.8558608v-12.2429603h-39.8558608z"/><path fill="#FFF" fill-rule="nonzero" d="M167.6667766 174.973394h44.1680219v-11.6985204h-44.1680219z"/><path stroke="#000" stroke-width="1.61" d="M167.6667766 174.973394h44.1680219v-11.6985204h-44.1680219z"/><path d="M205.9282418 169.559964c0-.874043.7188278-1.582491 1.6052747-1.582491.8868498 0 1.6056776.708448 1.6056776 1.582491v5.41343h-3.2460073v-5.41343h.035055" fill="#FFF" fill-rule="nonzero"/><path d="M205.9282418 169.559964c0-.874043.7188278-1.582491 1.6052747-1.582491.8868498 0 1.6056776.708448 1.6056776 1.582491v5.41343h-3.2460073v-5.41343h.035055z" stroke="#000" stroke-width="1.61"/><path d="M200.044652 169.559964c0-.874043.7188279-1.582491 1.6052747-1.582491.8872528 0 1.6060806.708448 1.6060806 1.582491v5.41343h-3.2464102v-5.41343h.0350549" fill="#FFF" fill-rule="nonzero"/><path d="M200.044652 169.559964c0-.874043.7188279-1.582491 1.6052747-1.582491.8872528 0 1.6060806.708448 1.6060806 1.582491v5.41343h-3.2464102v-5.41343h.0350549z" stroke="#000" stroke-width="1.61"/><path d="M194.1614652 169.559964c0-.874043.7188278-1.582491 1.6052747-1.582491.8868498 0 1.6056777.708448 1.6056777 1.582491v5.41343h-3.2460073v-5.41343h.0350549" fill="#FFF" fill-rule="nonzero"/><path d="M194.1614652 169.559964c0-.874043.7188278-1.582491 1.6052747-1.582491.8868498 0 1.6056777.708448 1.6056777 1.582491v5.41343h-3.2460073v-5.41343h.0350549z" stroke="#000" stroke-width="1.61"/><path d="M188.2778755 169.559964c0-.874043.7188278-1.582491 1.6056776-1.582491.8868498 0 1.6056777.708448 1.6056777 1.582491v5.41343h-3.2464103v-5.41343h.035055" fill="#FFF" fill-rule="nonzero"/><path d="M188.2778755 169.559964c0-.874043.7188278-1.582491 1.6056776-1.582491.8868498 0 1.6056777.708448 1.6056777 1.582491v5.41343h-3.2464103v-5.41343h.035055z" stroke="#000" stroke-width="1.61"/><path d="M182.3942857 169.559964c0-.874043.7192308-1.582491 1.6060806-1.582491.8864469 0 1.6052747.708448 1.6052747 1.582491v5.41343h-3.2460073v-5.41343h.034652" fill="#FFF" fill-rule="nonzero"/><path d="M182.3942857 169.559964c0-.874043.7192308-1.582491 1.6060806-1.582491.8864469 0 1.6052747.708448 1.6052747 1.582491v5.41343h-3.2460073v-5.41343h.034652z" stroke="#000" stroke-width="1.61"/><path d="M176.5110989 169.559964c0-.874043.7188278-1.582491 1.6056777-1.582491.8864468 0 1.6056776.708448 1.6056776 1.582491v5.41343h-3.2464102v-5.41343h.0350549" fill="#FFF" fill-rule="nonzero"/><path d="M176.5110989 169.559964c0-.874043.7188278-1.582491 1.6056777-1.582491.8864468 0 1.6056776.708448 1.6056776 1.582491v5.41343h-3.2464102v-5.41343h.0350549z" stroke="#000" stroke-width="1.61"/><path fill="#FFF" fill-rule="nonzero" d="M203.7479853 163.2748736h6.9223444v-21.2208664h-6.9223444z"/><path stroke="#000" stroke-width="1.61" d="M203.7479853 163.2748736h6.9223444v-21.2208664h-6.9223444z"/><path fill="#FFF" fill-rule="nonzero" d="M205.579707 142.0540072h3.2589011v-17.1401444h-3.2589011z"/><path stroke="#000" stroke-width="1.61" d="M205.579707 142.0540072h3.2589011v-17.1401444h-3.2589011z"/><path d="M200.0095971 145.1145487v4.2999278-4.2999278zM195.7494139 145.1145487v4.2999278-4.2999278zM191.4892308 145.1145487v4.2999278-4.2999278zM187.2286447 145.1145487v4.2999278-4.2999278zM182.9684615 145.1145487v4.2999278-4.2999278zM178.7082784 145.1145487v4.2999278-4.2999278zM200.0095971 152.6644404v4.2999278-4.2999278zM195.7494139 152.6644404v4.2999278-4.2999278zM191.4892308 152.6644404v4.2999278-4.2999278zM187.2286447 152.6644404v4.2999278-4.2999278zM182.9684615 152.6644404v4.2999278-4.2999278zM178.7082784 152.6644404v4.2999278-4.2999278zM207.2091575 147.2645126v2.1499639-2.1499639zM207.2091575 154.8144043v2.1499639-2.1499639z" stroke="#D8D8D8" stroke-width="1.61"/><path d="M210.9386813 133.483935h-7.4590476 7.4590476z" stroke="#000" stroke-width="1.61"/><path fill="#FFF" fill-rule="nonzero" d="M171.2271429 106.9572563h-8.5574359l-2.2084616 6.6325632v12.1401083h12.9747619v-12.1401083l-2.2088644-6.6325632"/><path stroke="#000" stroke-width="1.61" d="M171.2271429 106.9572563h-8.5574359l-2.2084616 6.6325632v12.1401083h12.9747619v-12.1401083z"/><path fill="#FFF" fill-rule="nonzero" d="M162.3816117 91.449639h9.1336264v-8.1618412h-9.1336264z"/><path d="M165.2230769 83.2877978v5.7132491-5.7132491zM168.6737729 83.2877978v5.7132491-5.7132491z" stroke="#D8D8D8" stroke-width="1.61"/><path stroke="#000" stroke-width="1.61" d="M162.3816117 91.449639h9.1336264v-8.1618412h-9.1336264z"/><path fill="#D8D8D8" fill-rule="nonzero" d="M164.3648352 83.2877978l2.5835897-17.95620935 2.5835898 17.95620935h-5.1671795"/><path stroke="#000" stroke-width="1.61" d="M164.3648352 83.2877978l2.5835897-17.95620935 2.5835898 17.95620935z"/><path fill="#FFF" fill-rule="nonzero" d="M162.3816117 125.7299278h9.1336264V89.0010469h-9.1336264z"/><path stroke="#000" stroke-width="1.61" d="M162.3816117 125.7299278h9.1336264V89.0010469h-9.1336264z"/><path fill="#FFF" fill-rule="nonzero" d="M162.3816117 104.7806859h9.1336264v-8.161444h-9.1336264z"/><path d="M165.2230769 96.8309025v7.9497834-7.9497834zM168.6737729 96.8309025v7.9497834-7.9497834z" stroke="#D8D8D8" stroke-width="1.61"/><path stroke="#000" stroke-width="1.61" d="M162.3816117 104.7806859h9.1336264v-8.161444h-9.1336264z"/><path fill="#FFF" fill-rule="nonzero" d="M162.3816117 121.6488087h9.1336264v-11.4264982h-9.1336264z"/><path d="M165.2230769 110.2683755v11.6222743-11.6222743zM168.6737729 110.2683755v11.6222743-11.6222743z" stroke="#D8D8D8" stroke-width="1.61"/><path stroke="#000" stroke-width="1.61" d="M162.3816117 121.6488087h9.1336264v-11.4264982h-9.1336264z"/><path fill="#FFF" fill-rule="nonzero" d="M160.4612454 174.973394h12.9747619v-49.2434662h-12.9747619z"/><path stroke="#000" stroke-width="1.61" d="M160.4612454 174.973394h12.9747619v-49.2434662h-12.9747619z"/><path d="M164.3648352 129.8110469v6.1214802" fill="#FFF" fill-rule="nonzero"/><path d="M164.3648352 129.8110469v6.1214802" stroke="#D8D8D8" stroke-width="1.61"/><path d="M169.5320147 129.8110469v6.1214802" fill="#FFF" fill-rule="nonzero"/><path d="M169.5320147 129.8110469v6.1214802" stroke="#D8D8D8" stroke-width="1.61"/><path d="M164.3648352 138.9930686v6.1214801" fill="#FFF" fill-rule="nonzero"/><path d="M164.3648352 138.9930686v6.1214801" stroke="#D8D8D8" stroke-width="1.61"/><path d="M169.5320147 138.9930686v6.1214801" fill="#FFF" fill-rule="nonzero"/><path d="M169.5320147 138.9930686v6.1214801" stroke="#D8D8D8" stroke-width="1.61"/><path d="M166.9484249 161.9294585s-3.3874359 1.5765343-3.3874359 6.0480145v6.995921h6.7752747v-6.995921c0-4.4714802-3.3878388-6.0480145-3.3878388-6.0480145" fill="#FFF" fill-rule="nonzero"/><path d="M166.9484249 161.9294585s-3.3874359 1.5765343-3.3874359 6.0480145v6.995921h6.7752747v-6.995921c0-4.4714802-3.3878388-6.0480145-3.3878388-6.0480145z" stroke="#000" stroke-width="1.61"/><path d="M164.3648352 149.4144765v3.2499639-3.2499639zM169.5320147 149.4144765v3.2499639-3.2499639zM164.3648352 154.6511913v3.250361-3.250361zM169.5320147 154.6511913v3.250361-3.250361z" stroke="#D8D8D8" stroke-width="1.61"/></g></g></svg>
