<svg xmlns="http://www.w3.org/2000/svg" viewBox="0 0 512 512"><g fill="#5e59a6"><path d="M499.12 123.245v213.149a253.664 253.664 0 0 1-15.412 36.718L355.425 242.405l118.523-120.769 17.951-18.296a30.94 30.94 0 0 1 7.221 19.905zM240.061 303.416c4.234 4.314 9.894 6.69 15.939 6.69s11.705-2.375 15.939-6.69L477.728 93.724a31.014 31.014 0 0 0-9.675-1.544H43.946c-3.379 0-6.629.546-9.675 1.544l205.79 209.692zM156.571 242.405L28.299 373.101a253.018 253.018 0 0 1-15.412-36.707V123.245a30.93 30.93 0 0 1 7.21-19.905l17.962 18.307 118.512 120.758z"/><path d="M475.129 388.429a256.425 256.425 0 0 1-6.813 10.658H43.69a256.774 256.774 0 0 1-6.813-10.668l131.5-133.987 59.653 60.792c7.429 7.565 17.366 11.734 27.972 11.734 10.606 0 20.532-4.169 27.961-11.734l59.664-60.792 131.502 133.997z"/></g></svg>
