<svg xmlns="http://www.w3.org/2000/svg" viewBox="0 0 512 512"><g fill="#039dfa"><path d="M52.009 289.169c0 10.816 8.768 19.582 19.582 19.582h368.81c10.816 0 19.582-8.768 19.582-19.582H52.009zM345.328 495.982C317.513 506.337 287.42 512 256 512c-32.078 0-62.788-5.904-91.084-16.677a10.485 10.485 0 0 1 3.291-.533h55.599c11.473 0 20.762-9.3 20.762-20.762v-152.22h19.592v152.221c0 11.463 9.289 20.762 20.762 20.762h55.599a10.28 10.28 0 0 1 4.807 1.191zM436.07 123.226c-.606-10.667-9.433-19.007-20.117-19.007H116.741V81.63c0-8.84 7.192-16.032 16.032-16.032h50.496c2.148 7.48 9.027 12.96 17.198 12.96h40.345c9.889 0 17.905-8.016 17.905-17.905V56.85c0-9.889-8.016-17.905-17.905-17.905h-40.345c-8.789 0-16.083 6.336-17.601 14.687h-50.092c-15.439 0-27.999 12.561-27.999 27.999v22.59H92.776c-10.684 0-19.511 8.339-20.117 19.007l-8.684 152.887h380.778l-8.683-152.889z"/></g></svg>
