<?xml version="1.0" standalone="no"?>
<!DOCTYPE svg PUBLIC "-//W3C//DTD SVG 20010904//EN"
 "http://www.w3.org/TR/2001/REC-SVG-20010904/DTD/svg10.dtd">
<svg version="1.0" xmlns="http://www.w3.org/2000/svg"
 width="3320.000000pt" height="3320.000000pt" viewBox="0 0 3320.000000 3320.000000"
 preserveAspectRatio="xMidYMid meet">
<metadata>
Created by potrace 1.11, written by Peter Selinger 2001-2013
</metadata>
<g transform="translate(0.000000,3320.000000) scale(0.100000,-0.100000)"
fill="#000000" stroke="none">
<path d="M15980 33194 c-2232 -91 -4365 -601 -6340 -1516 -3939 -1825 -7013
-5117 -8560 -9168 -545 -1428 -897 -2970 -1024 -4495 -45 -532 -51 -694 -51
-1415 0 -836 17 -1154 96 -1865 346 -3106 1571 -6056 3533 -8505 2462 -3074
5919 -5171 9763 -5924 732 -143 1392 -227 2233 -283 382 -25 1558 -25 1940 0
369 25 582 43 895 78 2155 239 4268 912 6170 1967 3624 2010 6369 5294 7695
9207 427 1260 704 2592 814 3910 45 533 51 694 51 1415 0 721 -6 883 -51 1415
-193 2313 -885 4588 -2012 6620 -2010 3624 -5294 6369 -9207 7695 -1404 475
-2772 742 -4340 846 -225 15 -1366 27 -1605 18z m1425 -915 c3321 -148 6477
-1341 9080 -3430 1394 -1119 2617 -2502 3547 -4009 1233 -1998 1997 -4206
2262 -6535 88 -775 124 -1721 90 -2392 l-6 -113 -1296 0 -1297 0 8 182 c5 101
6 404 3 673 -5 471 -16 709 -51 1085 -239 2583 -1220 5013 -2839 7040 -514
643 -1143 1289 -1781 1831 -1245 1055 -2700 1880 -4245 2404 -989 335 -2023
552 -3055 639 -428 36 -549 41 -1125 41 -594 0 -732 -5 -1185 -45 -3478 -309
-6647 -1954 -8911 -4625 -1325 -1563 -2279 -3457 -2752 -5465 -170 -718 -271
-1399 -328 -2200 -18 -256 -29 -1115 -17 -1378 l8 -182 -1297 0 -1296 0 -6
113 c-34 671 2 1617 90 2392 284 2496 1148 4866 2533 6950 1611 2421 3853
4347 6495 5577 2280 1061 4827 1561 7371 1447z m-80 -3400 c2219 -109 4386
-834 6230 -2087 1603 -1088 2937 -2546 3877 -4237 641 -1153 1093 -2398 1342
-3700 106 -553 173 -1110 207 -1725 13 -246 16 -882 5 -1142 l-8 -188 -2720 0
-2721 0 7 43 c8 53 35 76 146 128 121 57 182 119 215 219 13 41 28 93 33 115
7 35 11 40 39 43 27 3 34 -2 54 -37 18 -32 33 -44 81 -62 53 -19 69 -21 166
-15 70 5 113 13 123 22 24 22 29 17 29 -29 0 -24 5 -68 11 -98 l11 -55 92 -41
92 -40 50 57 c27 32 59 82 71 111 l21 53 -20 50 c-11 28 -24 56 -29 62 -13 15
0 24 35 24 56 0 71 11 124 89 50 75 52 81 52 146 0 74 -23 167 -45 185 -13 10
-6 19 39 51 29 21 59 52 66 69 17 40 29 46 165 79 106 26 119 32 171 77 31 27
68 58 81 69 l24 20 -21 58 -22 58 24 46 c32 66 44 70 125 51 63 -15 75 -15
155 1 91 17 104 25 168 101 l38 46 -10 84 c-9 79 -15 95 -89 228 -43 78 -79
151 -79 161 0 10 7 37 15 61 8 23 21 81 29 128 37 223 29 302 -34 352 -35 28
-60 80 -60 126 0 10 39 58 86 105 l86 87 -68 6 c-38 3 -107 8 -154 12 -103 7
-237 37 -290 64 -48 24 -143 27 -214 5 -79 -24 -103 13 -61 94 14 28 25 52 25
55 0 2 -23 10 -50 17 -36 9 -49 17 -45 27 3 7 -9 34 -27 58 -28 40 -30 46 -18
68 7 14 75 79 150 146 145 127 156 141 264 341 l46 86 -232 33 c-280 39 -301
46 -237 84 17 10 28 24 26 31 -3 6 -78 122 -167 256 -110 167 -184 267 -232
315 l-70 71 -68 6 c-52 4 -84 1 -132 -14 -34 -10 -66 -19 -70 -19 -5 0 -8 28
-8 63 0 84 -7 103 -41 118 -29 12 -30 12 -23 70 8 68 12 67 -95 44 -57 -12
-154 -14 -508 -13 l-437 2 -68 65 -68 64 -92 -12 c-51 -7 -96 -17 -101 -24 -4
-7 -15 -25 -23 -40 -23 -42 -27 -27 -15 50 6 37 12 96 14 131 l3 62 -67 20
c-178 53 -254 119 -274 237 l-7 42 154 171 c140 156 157 172 204 187 44 13 58
25 105 87 30 39 72 109 94 156 22 47 56 112 77 145 l36 59 -45 86 -46 85 36
60 c19 33 57 111 82 173 l48 113 -37 53 c-20 29 -36 55 -36 59 0 4 13 4 28 1
25 -5 33 0 69 49 41 54 75 124 107 224 17 51 17 51 96 83 44 18 80 34 80 36 0
2 -28 49 -61 104 l-61 102 47 48 c35 36 46 53 41 67 -4 10 -27 71 -53 136
l-45 117 -77 0 c-42 0 -100 -7 -130 -15 -30 -8 -57 -12 -60 -10 -3 2 -30 36
-60 77 -61 83 -129 131 -209 149 -43 9 -68 7 -153 -10 -134 -28 -142 -27 -176
12 -58 66 -115 97 -253 137 -158 46 -176 59 -185 139 -3 31 -17 102 -29 158
-22 95 -26 105 -83 175 -83 100 -176 154 -283 163 -93 8 -124 -4 -276 -105
-161 -109 -132 -103 -454 -89 -251 11 -284 10 -343 -4 -37 -10 -69 -17 -72
-17 -3 0 -5 47 -5 105 l0 104 -61 80 c-59 77 -64 81 -116 91 -34 8 -93 9 -161
5 -88 -6 -110 -5 -120 7 -6 8 -26 62 -43 119 -34 117 -45 136 -144 244 l-69
77 2 61 c2 38 12 83 28 121 15 34 33 104 42 156 l15 95 -59 113 -59 114 -91
64 -92 64 -88 0 -89 -1 -33 -48 c-18 -27 -40 -73 -47 -103 -21 -77 -68 -164
-147 -270 -81 -108 -135 -167 -163 -178 -14 -5 -43 3 -95 28 -83 38 -190 72
-231 72 -22 0 -28 6 -33 31 -10 54 -7 174 7 220 20 66 4 191 -30 242 -63 92
-154 146 -288 172 l-77 14 -103 -52 -103 -52 -187 -230 c-103 -126 -196 -235
-208 -242 -31 -17 -68 -16 -157 7 -63 16 -88 18 -122 10 -24 -5 -60 -10 -80
-10 -43 0 -46 8 -23 63 9 23 15 69 15 123 0 79 -3 91 -35 154 l-36 67 -67 12
c-54 9 -82 9 -147 -3 -134 -25 -331 -106 -525 -218 -96 -55 -177 -102 -179
-104 -2 -2 20 -30 48 -63 52 -60 52 -60 37 -90 -10 -17 -16 -55 -16 -91 0 -74
18 -113 101 -217 40 -51 59 -83 59 -102 0 -46 -19 -53 -120 -50 -87 4 -92 5
-208 65 l-118 62 -155 7 -154 7 -42 41 c-30 29 -44 36 -47 26 -3 -8 -23 -103
-44 -211 l-40 -197 -86 -120 c-77 -107 -100 -131 -197 -205 -89 -69 -161 -111
-394 -230 -233 -119 -302 -159 -378 -220 -148 -119 -129 -114 -438 -118 -319
-4 -309 -7 -309 101 0 36 -7 100 -17 143 l-16 77 -66 44 c-55 36 -121 62 -376
147 -302 100 -313 103 -421 108 -87 4 -130 0 -210 -16 -54 -12 -132 -26 -172
-32 -92 -13 -124 -28 -186 -83 l-49 -44 0 -106 0 -105 -66 -10 c-135 -20 -244
14 -327 100 -40 41 -57 68 -74 123 -22 65 -23 79 -16 235 4 91 7 176 7 190 -1
61 -56 400 -65 400 -14 0 -1147 -370 -1169 -382 -10 -5 -229 -148 -485 -317
-311 -204 -628 -402 -950 -591 -480 -283 -485 -287 -795 -522 -291 -222 -317
-240 -392 -264 -83 -27 -265 -137 -265 -161 0 -7 18 -57 39 -110 30 -76 45
-136 65 -263 14 -91 38 -207 53 -258 26 -91 28 -95 122 -200 112 -124 136
-161 146 -218 6 -40 5 -43 -52 -97 -37 -35 -70 -79 -88 -117 l-29 -60 47 -168
c26 -92 47 -176 47 -187 0 -11 -9 -40 -21 -64 l-20 -44 22 -73 c18 -62 26 -74
51 -85 22 -9 39 -32 73 -98 l43 -87 82 -23 c65 -19 94 -23 148 -18 96 9 107 4
137 -61 18 -38 56 -88 123 -156 85 -88 103 -112 133 -184 48 -112 87 -164 163
-219 62 -45 321 -168 459 -218 l68 -25 77 39 77 39 78 134 c42 73 90 147 106
164 44 48 106 80 220 114 57 17 113 37 124 45 42 27 358 116 388 110 59 -13
139 -111 139 -171 0 -15 20 -66 44 -113 24 -48 51 -107 61 -132 9 -25 36 -67
59 -93 39 -42 47 -46 88 -46 54 0 64 -9 88 -87 l18 -58 -33 -60 -33 -60 24
-135 c13 -74 50 -225 84 -334 58 -192 60 -203 60 -310 0 -143 20 -213 84 -292
62 -76 110 -111 246 -179 182 -91 229 -100 361 -66 125 32 238 81 293 126 28
23 65 50 81 61 l29 19 -37 -68 c-21 -37 -36 -71 -33 -76 3 -4 38 -31 78 -59
l73 -50 190 -4 c182 -3 192 -5 240 -30 159 -84 215 -247 215 -623 0 -126 6
-217 25 -350 l24 -180 128 -123 c70 -67 140 -131 154 -142 l27 -20 27 75 c15
40 36 82 46 91 11 10 43 62 71 117 74 141 78 143 182 152 47 4 125 4 174 0 80
-6 93 -11 167 -55 141 -84 160 -91 254 -97 l86 -5 155 66 c85 36 165 66 178
66 36 0 56 -14 155 -113 50 -51 123 -114 162 -142 l70 -50 69 -152 69 -152
106 -42 c58 -23 107 -43 109 -44 2 -2 -15 -31 -37 -64 -42 -66 -65 -127 -76
-201 -4 -25 -29 -114 -56 -198 -37 -115 -51 -178 -59 -260 -5 -59 -10 -110
-10 -113 0 -3 41 -23 90 -44 l91 -37 50 22 c28 12 52 20 54 18 1 -2 16 -60 32
-130 l30 -128 -5602 0 -5603 0 -8 188 c-19 439 -6 1070 32 1537 161 2016 808
3940 1902 5660 482 758 1014 1419 1681 2086 477 477 869 816 1381 1196 846
627 1786 1152 2765 1543 1662 665 3436 958 5250 869z m1056 -2721 c49 -28 63
-55 55 -114 -3 -27 -9 -86 -12 -131 l-6 -82 -95 33 c-61 22 -96 29 -100 22 -4
-5 -26 -69 -49 -140 l-42 -131 102 -41 101 -42 190 -9 190 -10 121 -57 121
-58 86 27 c84 25 87 27 160 108 136 151 241 307 282 422 10 28 20 51 21 53 1
2 18 -7 38 -20 48 -31 100 -129 97 -182 -1 -21 -15 -66 -30 -100 -20 -44 -31
-92 -40 -167 -11 -100 -10 -109 10 -162 15 -38 46 -84 104 -148 82 -93 84 -95
115 -203 38 -131 66 -172 153 -220 l62 -34 114 10 c156 14 151 20 151 -193 0
-156 0 -159 23 -164 155 -36 167 -37 267 -14 93 21 101 22 368 10 271 -12 274
-12 340 10 43 14 111 52 190 105 68 46 133 84 145 84 37 0 106 -41 141 -83 40
-50 60 -119 76 -267 6 -58 12 -105 13 -106 1 -1 35 -29 74 -63 70 -59 78 -63
210 -102 125 -37 203 -74 203 -98 0 -5 24 -27 53 -50 51 -38 58 -41 119 -41
36 0 109 9 162 20 116 24 121 22 198 -79 27 -36 75 -87 105 -112 l56 -46 89
22 88 23 -24 -29 c-20 -23 -25 -44 -31 -114 l-7 -85 -55 0 c-47 0 -54 -2 -49
-17 3 -10 15 -62 26 -117 18 -82 20 -103 9 -128 -11 -27 -16 -29 -43 -23 -17
3 -45 9 -62 12 l-31 5 -22 -87 c-12 -48 -26 -121 -31 -163 -10 -72 -9 -77 15
-108 14 -18 25 -38 25 -44 0 -28 -69 -155 -199 -364 -78 -125 -140 -230 -137
-233 3 -3 51 4 108 14 57 11 104 19 106 18 6 -4 -43 -103 -67 -134 -15 -20
-49 -45 -83 -60 -50 -23 -81 -52 -248 -236 l-191 -210 6 -88 c7 -120 21 -171
70 -247 54 -84 108 -132 191 -170 65 -29 66 -30 61 -62 -3 -18 -9 -74 -13
-124 l-6 -91 74 -47 c70 -43 79 -46 144 -46 67 0 71 1 127 46 l58 45 43 -39
c85 -79 71 -75 314 -67 l217 7 225 -201 c124 -110 228 -201 232 -201 6 0 -12
42 -121 274 -28 60 -51 110 -51 112 0 2 36 4 80 4 54 0 91 -5 115 -17 37 -18
38 -22 22 -103 -1 -3 7 -38 17 -78 21 -85 28 -90 133 -93 49 -1 93 6 157 24
l89 27 32 -28 c42 -35 264 -364 249 -369 -6 -2 -18 -9 -27 -16 -15 -11 -10
-24 41 -127 57 -114 57 -115 122 -152 52 -29 84 -39 159 -50 51 -7 94 -17 94
-23 0 -5 -57 -59 -127 -120 -110 -96 -135 -123 -192 -212 l-65 -102 42 -57 43
-56 -23 -66 c-24 -68 -20 -81 22 -82 9 0 17 -6 17 -13 0 -8 12 -24 26 -38 14
-13 53 -60 86 -104 60 -79 62 -80 121 -92 53 -12 67 -11 124 7 77 24 105 25
141 6 15 -8 64 -22 110 -32 82 -19 82 -19 82 -51 0 -18 12 -69 26 -115 19 -64
34 -91 61 -117 l36 -34 -17 -115 c-9 -62 -26 -139 -38 -169 -16 -43 -19 -71
-16 -123 5 -61 12 -79 87 -212 44 -81 81 -153 81 -162 0 -9 -11 -18 -25 -22
-26 -6 -39 -5 -167 16 l-78 14 -55 -39 c-99 -68 -159 -169 -171 -287 -7 -76 0
-71 -134 -99 -30 -6 -87 -26 -125 -43 -60 -28 -74 -39 -94 -77 -14 -27 -43
-58 -72 -78 -42 -29 -129 -133 -144 -173 -3 -7 20 -44 50 -82 75 -94 75 -156
1 -156 -31 0 -120 -51 -135 -78 -7 -13 -18 -10 -74 21 l-65 37 -55 -46 c-51
-42 -59 -45 -104 -42 l-48 3 -45 117 c-25 65 -49 118 -53 118 -5 0 -43 -29
-85 -65 -64 -54 -83 -65 -114 -65 -20 0 -48 -4 -61 -9 -31 -12 -92 -120 -102
-181 -11 -65 -33 -121 -58 -149 -12 -13 -62 -43 -112 -67 -155 -74 -215 -149
-230 -286 l-6 -58 -2240 0 -2239 0 0 38 c0 20 7 82 15 137 8 55 15 149 15 208
l0 108 -46 65 c-25 35 -53 64 -62 64 -10 -1 -45 -7 -79 -14 -70 -15 -65 -20
-79 79 -3 28 -9 55 -13 62 -4 8 -46 -7 -136 -50 l-130 -62 -261 -265 c-192
-194 -269 -279 -288 -317 l-26 -53 -1004 0 -1004 0 -12 33 c-7 17 -33 117 -59
222 l-46 189 -90 18 c-50 10 -100 16 -112 13 -13 -3 -23 -1 -23 4 0 5 20 71
44 148 25 76 50 167 56 202 16 92 41 133 115 192 87 70 114 112 127 196 11 67
10 70 -19 121 -33 58 -107 116 -209 164 l-61 28 -71 -29 -72 -30 -29 64 c-16
35 -32 73 -36 84 -7 22 -106 111 -180 162 -28 19 -84 70 -125 115 -57 61 -92
89 -146 116 -71 36 -72 37 -143 27 -47 -7 -117 -29 -211 -69 -88 -37 -155 -60
-178 -60 -36 0 -56 10 -207 98 -64 37 -79 41 -186 53 -160 17 -333 3 -404 -34
-58 -30 -85 -61 -153 -180 l-49 -86 -23 24 c-34 37 -59 228 -60 457 0 124 -6
219 -21 320 -19 131 -25 150 -66 229 -116 221 -266 309 -530 309 l-112 0 6 54
c5 51 3 58 -31 105 -31 42 -46 53 -99 70 -110 37 -180 18 -300 -82 -53 -44
-202 -105 -276 -114 -41 -4 -59 2 -160 52 -126 62 -142 73 -191 129 l-34 38
-7 147 c-6 141 -9 153 -64 331 -31 102 -65 230 -75 285 l-19 100 38 66 38 66
-35 114 c-20 63 -52 141 -71 173 -35 59 -37 60 -104 77 -38 9 -70 19 -72 21
-14 16 -95 206 -95 225 0 14 -20 62 -46 108 -64 118 -133 177 -248 211 l-85
25 -143 -44 c-79 -25 -170 -53 -203 -62 -33 -9 -74 -25 -91 -35 -17 -10 -74
-30 -125 -45 -200 -58 -287 -130 -410 -337 -38 -65 -74 -118 -80 -118 -26 0
-344 148 -387 180 -40 30 -56 54 -106 155 -52 105 -71 131 -150 213 -69 71
-100 113 -131 174 l-40 82 -85 23 c-67 18 -101 22 -160 17 -41 -3 -80 -1 -86
3 -6 4 -28 42 -49 83 -21 41 -44 79 -51 83 -8 5 -12 12 -9 18 4 5 10 33 15 62
8 47 4 69 -37 211 l-45 158 60 62 c32 33 70 78 84 98 24 37 24 37 11 145 -12
103 -15 110 -60 177 -27 38 -83 107 -125 154 -92 102 -101 126 -142 390 -15
95 -34 189 -42 209 -9 19 -14 36 -12 38 2 1 44 16 95 33 90 29 101 37 410 273
l318 243 488 288 c325 191 644 390 954 594 l466 307 455 148 c251 82 458 146
461 143 3 -3 5 -121 3 -261 l-3 -256 37 -111 c36 -109 39 -113 116 -192 98
-101 179 -140 327 -160 87 -11 106 -10 245 12 83 13 154 24 157 24 12 0 31
159 28 231 l-4 74 50 8 c28 4 101 17 162 29 187 34 228 28 557 -82 191 -63
287 -100 303 -116 21 -21 23 -32 23 -129 l0 -106 56 -67 c86 -102 82 -101 445
-101 383 -1 380 -2 569 148 77 61 148 103 382 222 251 129 302 159 413 245
118 92 132 106 229 241 83 115 107 156 121 207 l17 63 67 7 c137 13 275 7 335
-14 38 -13 105 -23 199 -29 l142 -9 50 38 c116 90 113 85 123 185 8 80 6 96
-12 140 -11 28 -48 85 -83 128 -35 44 -63 86 -63 93 0 8 6 27 14 42 7 15 19
56 25 92 l12 65 58 32 c77 42 277 120 341 131 l50 9 0 -36 c0 -20 -12 -70 -26
-113 l-27 -76 25 -64 c25 -62 26 -64 105 -105 l80 -42 96 11 c81 9 106 8 161
-6 129 -32 234 -11 317 63 24 22 118 131 209 244 138 171 173 209 215 231 57
29 96 28 156 -6z m-2841 -9122 c0 -12 -81 -86 -93 -86 -3 0 3 30 14 67 10 38
19 69 19 71 0 2 14 -6 30 -18 17 -12 30 -27 30 -34z m2972 -835 c63 -30 71
-32 115 -23 26 6 50 9 52 6 3 -2 -1 -39 -7 -82 -11 -71 -19 -86 -87 -189 l-75
-113 -252 0 -253 0 100 103 c271 278 330 337 335 334 3 -2 35 -18 72 -36z
m-1673 -2286 c252 -44 451 -135 608 -277 178 -161 279 -367 299 -610 l7 -78
-381 0 -381 0 -6 38 c-15 98 -28 143 -54 184 -83 130 -204 188 -396 188 -267
0 -441 -126 -440 -320 1 -79 23 -125 92 -192 86 -83 211 -144 488 -238 475
-161 724 -304 885 -506 115 -144 176 -310 187 -504 31 -576 -426 -940 -1178
-940 -426 0 -815 138 -1053 372 -151 150 -252 358 -271 560 -3 35 -8 80 -10
101 l-5 37 385 0 385 0 0 -29 c0 -57 30 -182 55 -234 34 -67 97 -132 158 -163
107 -55 293 -83 433 -65 122 15 189 44 255 110 67 68 83 114 78 228 -5 95 -41
176 -104 230 -59 51 -255 143 -455 214 -447 157 -652 265 -828 433 -46 44
-106 114 -132 155 -122 185 -160 433 -100 649 85 305 365 536 762 631 74 17
124 25 288 45 68 8 346 -4 429 -19z m8502 -4 c466 -94 785 -366 924 -784 29
-90 65 -258 65 -309 0 -17 -19 -18 -379 -18 l-378 0 -7 68 c-26 260 -148 410
-371 457 -93 19 -274 19 -350 0 -218 -57 -337 -235 -392 -587 -22 -143 -25
-695 -5 -853 58 -451 215 -624 564 -625 238 0 418 88 490 240 31 66 58 164 58
213 0 72 -29 67 390 67 l378 0 -5 -47 c-53 -565 -417 -941 -1010 -1048 -127
-23 -357 -30 -483 -16 -325 38 -555 144 -760 350 -207 208 -328 462 -385 811
-40 248 -38 722 4 955 121 662 530 1074 1141 1149 89 11 417 -4 511 -23z
m-19321 -306 l0 -295 -685 0 -685 0 2 -372 3 -373 618 -3 617 -2 0 -290 0
-290 -620 0 -620 0 0 -640 0 -640 -380 0 -380 0 0 1600 0 1600 1065 0 1065 0
0 -295z m1092 -827 c3 -1039 5 -1128 21 -1183 55 -186 151 -288 312 -330 77
-20 243 -20 320 0 122 32 223 113 270 218 55 122 55 112 55 1312 l0 1105 385
0 385 0 0 -1077 c0 -1103 -3 -1181 -40 -1341 -124 -524 -568 -822 -1222 -822
-349 0 -646 91 -865 265 -193 152 -314 361 -370 638 -14 73 -17 209 -20 1210
l-4 1127 385 0 385 0 3 -1122z m2998 -183 l0 -1305 670 0 670 0 0 -295 0 -295
-1050 0 -1050 0 0 1600 0 1600 380 0 380 0 0 -1305z m2440 0 l0 -1305 670 0
670 0 0 -295 0 -295 -1050 0 -1050 0 0 1600 0 1600 380 0 380 0 0 -1305z
m8110 1010 l0 -295 -480 0 -480 0 0 -1305 0 -1305 -380 0 -380 0 -2 1303 -3
1302 -472 3 -473 2 0 295 0 295 1335 0 1335 0 0 -295z m1735 223 c58 -156
1089 -2948 1121 -3036 l34 -92 -412 2 -411 3 -92 295 -92 295 -533 0 -532 0
-92 -297 -91 -298 -407 0 c-225 0 -408 2 -408 4 0 3 261 717 580 1588 319 871
583 1589 585 1596 3 9 85 12 364 12 l359 0 27 -72z m5077 -635 l3 -707 118
180 c65 98 281 416 480 707 l362 527 473 0 474 0 -30 -37 c-30 -39 -977 -1281
-1025 -1344 l-27 -35 533 -880 c293 -483 536 -885 540 -891 7 -10 -85 -13
-445 -13 l-453 0 -340 595 c-187 327 -344 593 -348 592 -4 -1 -77 -79 -162
-172 l-155 -170 0 -422 0 -423 -380 0 -380 0 0 1600 0 1600 380 0 380 0 2
-707z m-21364 -4513 c18 -29 211 -277 311 -400 225 -277 488 -573 741 -835
198 -206 571 -567 581 -563 11 5 524 590 524 598 0 5 -78 82 -173 173 -282
269 -610 616 -866 918 l-106 124 4764 3 c2620 1 6911 1 9534 0 l4770 -3 -105
-125 c-248 -294 -604 -673 -866 -923 l-166 -158 256 -302 c140 -166 259 -303
263 -305 14 -5 408 378 621 604 375 399 661 734 939 1102 l85 112 1548 0 1548
0 -32 -57 c-208 -367 -597 -964 -893 -1368 -2114 -2893 -5131 -4979 -8562
-5919 -2291 -628 -4743 -721 -7114 -270 -3683 700 -7006 2699 -9359 5629 -460
574 -849 1133 -1239 1780 -63 105 -116 193 -119 198 -2 4 695 7 1549 7 1540 0
1553 0 1566 -20z"/>
<path d="M21837 12457 c-92 -298 -167 -548 -167 -555 0 -9 79 -12 344 -12
l344 0 -22 73 c-12 39 -90 289 -172 554 -82 266 -151 483 -154 483 -3 0 -80
-244 -173 -543z"/>
<path d="M22918 6849 c-157 -85 -205 -115 -202 -127 11 -46 194 -1247 191
-1255 -1 -4 -217 187 -480 426 l-478 434 -197 -105 c-108 -57 -200 -108 -205
-112 -6 -6 778 -1479 800 -1501 8 -8 313 149 313 162 0 27 -538 970 -604 1059
-22 29 48 -32 503 -440 255 -228 467 -416 472 -418 11 -4 219 106 219 116 0 4
-43 295 -94 647 -52 352 -93 641 -92 642 2 2 78 -153 170 -344 166 -343 373
-740 389 -744 5 -2 76 33 158 77 117 62 148 83 145 96 -4 16 -747 1407 -785
1470 l-16 27 -207 -110z"/>
<path d="M9614 6114 c-280 -371 -510 -679 -512 -684 -6 -15 587 -453 673 -497
110 -57 189 -76 295 -71 70 3 98 10 154 36 91 42 190 142 237 238 32 64 34 75
34 169 0 92 -3 104 -30 155 -16 30 -31 58 -33 61 -1 3 21 3 49 -1 160 -21 315
70 397 232 67 130 65 246 -3 385 -58 118 -153 208 -467 444 -152 115 -279 209
-281 209 -2 0 -233 -304 -513 -676z m725 154 c182 -137 231 -196 231 -280 0
-54 -45 -136 -96 -174 -51 -39 -122 -44 -195 -13 -71 31 -292 197 -285 215 7
18 237 324 244 324 3 0 48 -32 101 -72z m-386 -559 c198 -149 237 -195 237
-282 0 -88 -85 -204 -167 -226 -51 -15 -69 -13 -129 7 -56 20 -335 220 -330
237 3 10 259 353 264 354 2 1 58 -40 125 -90z"/>
<path d="M11975 5638 c-13 -29 -174 -374 -359 -767 -185 -393 -336 -718 -336
-721 0 -10 1031 -492 1038 -485 15 15 120 251 114 256 -4 3 -163 79 -354 169
-192 90 -348 166 -348 171 0 7 177 390 184 396 2 2 138 -59 302 -136 164 -78
301 -141 305 -141 6 0 119 233 119 247 0 4 -135 71 -300 148 -165 77 -300 143
-300 146 0 6 158 350 164 356 1 1 155 -70 341 -157 187 -88 348 -163 358 -166
15 -5 28 16 78 122 33 69 57 130 52 134 -12 11 -1012 480 -1024 480 -6 0 -21
-24 -34 -52z"/>
<path d="M20595 5474 c-88 -34 -161 -66 -162 -71 -2 -5 89 -246 202 -536 200
-513 235 -613 235 -667 0 -128 -110 -236 -273 -270 -69 -14 -144 -1 -195 33
-67 45 -97 109 -316 673 -118 302 -218 549 -222 549 -21 0 -324 -121 -324
-129 0 -20 415 -1075 449 -1141 71 -138 203 -241 361 -281 170 -43 413 14 608
143 224 149 312 397 229 653 -27 86 -417 1092 -426 1101 -3 3 -78 -22 -166
-57z"/>
<path d="M13901 5003 c-31 -118 -401 -1604 -401 -1612 0 -10 1058 -276 1066
-268 3 3 21 65 40 139 18 73 34 133 34 134 0 0 -160 40 -356 90 -196 49 -358
94 -361 100 -2 6 73 316 166 690 93 373 168 680 166 682 -6 6 -308 81 -327 82
-12 0 -21 -12 -27 -37z"/>
<path d="M18300 4823 c-85 -19 -156 -36 -158 -38 -5 -4 359 -1659 367 -1666 5
-6 339 64 345 72 1 2 -80 378 -181 834 -100 457 -183 831 -183 833 0 6 -45 -3
-190 -35z"/>
<path d="M16281 4749 c-272 -53 -458 -245 -535 -551 -30 -117 -51 -357 -42
-484 27 -390 252 -648 617 -705 103 -16 312 -6 419 21 99 24 228 85 284 134
l40 34 22 339 c12 186 19 341 15 344 -3 4 -134 14 -291 23 -157 9 -306 19
-332 22 l-46 6 -6 -79 c-4 -43 -8 -103 -11 -134 l-4 -57 112 -6 c61 -4 134 -9
160 -12 l48 -6 -7 -126 c-4 -70 -11 -137 -15 -150 -24 -64 -241 -95 -377 -53
-92 28 -158 80 -200 158 -47 88 -62 167 -62 323 0 368 74 571 238 652 39 19
63 23 143 23 87 0 101 -3 162 -33 45 -22 75 -46 97 -75 31 -42 60 -121 60
-164 0 -13 1 -23 3 -24 1 -1 80 -6 176 -13 l174 -11 -6 66 c-19 223 -158 415
-356 490 -136 51 -353 73 -480 48z"/>
</g>
</svg>
