<?xml version="1.0" standalone="no"?>
<!DOCTYPE svg PUBLIC "-//W3C//DTD SVG 20010904//EN"
 "http://www.w3.org/TR/2001/REC-SVG-20010904/DTD/svg10.dtd">
<svg version="1.0" xmlns="http://www.w3.org/2000/svg"
 width="700.000000pt" height="700.000000pt" viewBox="0 0 700.000000 700.000000"
 preserveAspectRatio="xMidYMid meet">
<metadata>
Created by potrace 1.14, written by Peter Selinger 2001-2017
</metadata>
<g transform="translate(0.000000,700.000000) scale(0.100000,-0.100000)"
fill="#000000" stroke="none">
<path d="M6080 6787 c-36 -13 -137 -70 -845 -472 -220 -125 -425 -241 -455
-257 -30 -17 -59 -34 -65 -38 -5 -4 -41 -24 -78 -44 -37 -20 -82 -45 -100 -55
-18 -10 -59 -34 -92 -53 -125 -72 -602 -342 -655 -371 -30 -17 -88 -50 -128
-74 -41 -24 -75 -43 -77 -43 -3 0 -168 -92 -195 -110 -8 -5 -55 -32 -105 -59
-49 -28 -112 -64 -140 -79 -69 -40 -97 -56 -323 -183 -108 -61 -246 -140 -307
-174 -60 -35 -127 -72 -147 -84 -21 -11 -53 -29 -70 -39 -18 -11 -188 -107
-378 -214 -190 -108 -405 -230 -479 -272 -73 -42 -135 -76 -138 -76 -2 0 -21
-11 -43 -25 -22 -14 -64 -38 -92 -54 -29 -16 -134 -75 -233 -131 -99 -56 -252
-143 -340 -192 -172 -97 -224 -141 -248 -211 -29 -87 7 -220 72 -267 30 -20
181 -110 186 -110 2 0 26 -13 53 -29 26 -15 68 -39 93 -53 24 -14 76 -43 114
-65 39 -22 90 -51 115 -65 25 -14 140 -79 255 -145 116 -66 230 -131 255 -145
l45 -25 140 80 c77 43 223 127 325 185 102 58 205 116 230 130 25 14 97 54
160 90 63 36 131 74 150 85 135 76 822 465 942 533 81 46 151 84 154 84 4 0
15 6 23 14 9 7 43 28 76 46 33 18 179 101 325 183 146 83 290 164 320 180 30
17 88 50 127 74 40 23 75 43 78 43 3 0 31 16 61 35 30 19 55 34 57 33 1 -1 34
16 72 39 87 49 532 302 805 455 25 14 162 92 305 173 143 81 317 179 388 219
l127 71 -2 650 -3 650 -22 42 c-25 46 -93 105 -138 120 -45 14 -116 14 -155 0z"/>
<path d="M5740 4234 c-333 -189 -652 -370 -710 -403 -117 -65 -425 -239 -780
-441 -129 -73 -255 -144 -280 -158 -25 -14 -190 -107 -366 -208 -177 -100
-344 -194 -370 -209 -60 -34 -322 -182 -424 -240 -41 -24 -160 -91 -265 -150
-337 -190 -365 -206 -370 -215 -3 -5 11 -18 32 -28 21 -11 99 -54 173 -97 74
-42 155 -89 180 -102 25 -14 79 -45 120 -68 41 -24 260 -148 485 -275 226
-128 424 -240 440 -250 17 -9 64 -36 105 -59 41 -23 82 -46 90 -51 8 -5 49
-28 90 -51 41 -23 179 -100 305 -172 127 -71 250 -141 274 -155 25 -14 67 -38
93 -53 27 -16 51 -29 54 -29 3 0 18 -8 32 -18 15 -11 54 -34 87 -52 99 -54
199 -110 215 -120 12 -8 410 -233 555 -315 22 -12 88 -49 146 -82 147 -84 198
-101 294 -101 110 0 218 42 291 113 40 38 87 116 105 173 20 64 21 86 21 547
0 264 -1 488 -1 497 -1 10 -44 41 -113 81 -109 63 -425 243 -518 295 -25 13
-70 39 -100 56 -30 18 -62 35 -70 39 -8 4 -31 17 -50 28 -19 12 -107 62 -195
112 -238 134 -238 134 -228 140 4 2 64 36 133 74 69 39 143 81 165 93 22 13
60 34 85 48 25 14 90 51 145 82 55 31 120 68 145 82 68 38 141 79 180 101 19
11 87 49 150 85 206 115 268 153 272 165 9 32 2 1631 -7 1633 -5 1 -282 -153
-615 -342z"/>
</g>
</svg>
