<svg width="105" height="105" viewBox="0 0 105 105" fill="none" xmlns="http://www.w3.org/2000/svg">
<path d="M95.4354 36.2404L32.4354 71.8904L86.1054 102.27C87.0563 102.809 88.1318 103.089 89.2247 103.082C90.3175 103.075 91.3894 102.782 92.3335 102.231C93.2776 101.681 94.0608 100.892 94.6051 99.9448C95.1494 98.9971 95.4357 97.9233 95.4354 96.8304V82.8304L76.1654 71.8904L95.4354 61.0204V36.2404Z" fill="#6859EA"/>
<path d="M6.85539 57.2404L22.9954 66.4004L95.9954 25.1004V6.69043C95.999 6.04301 95.8313 5.40616 95.5092 4.84451C95.1872 4.28285 94.7223 3.81639 94.1618 3.49244C93.6012 3.1685 92.9649 2.99861 92.3175 3.00001C91.6701 3.00141 91.0345 3.17406 90.4754 3.50043L6.85539 50.8604C6.29197 51.1809 5.82348 51.6449 5.49758 52.2053C5.17168 52.7656 5 53.4022 5 54.0504C5 54.6986 5.17168 55.3353 5.49758 55.8956C5.82348 56.4559 6.29197 56.9199 6.85539 57.2404V57.2404Z" fill="#6ACBE0"/>
<path d="M32.4754 71.8904L95.4354 50.4704V36.2404" fill="#5647D6"/>
</svg>
