<svg xmlns="http://www.w3.org/2000/svg" viewBox="0 0 347.71 100.58"><defs><style>.cls-1{fill:#231f20;}.cls-2{fill:#6859ea;}.cls-3{fill:#6acbe0;}.cls-4{fill:#5647d6;}</style></defs><g id="Layer_2" data-name="Layer 2"><g id="Layer_1-2" data-name="Layer 1"><path class="cls-1" d="M146.5,22.16v7.52H133.28v7.47h12.07v7.47H133.28V58.21h-8.46v-36Z"/><path class="cls-1" d="M166.3,58.21V54.13a8.29,8.29,0,0,1-7.78,4.76c-5.07,0-7.63-3.35-7.63-9.46V31.56H159V48.18c0,1.93.42,3.24,2,3.24,2.3,0,4.65-2.82,4.65-8.94V31.56h8.15V58.21Z"/><path class="cls-1" d="M188.66,18.24v40h-8.2v-40Z"/><path class="cls-1" d="M203.4,18.24v40h-8.2v-40Z"/><path class="cls-1" d="M238.61,30.78A14.29,14.29,0,0,0,231,28.69c-2.56,0-4.23.68-4.23,3.5,0,5.49,16.56,2.25,16.56,15.31a10.27,10.27,0,0,1-4.55,8.83,16.89,16.89,0,0,1-9.35,2.51c-3.81,0-9-.94-11.91-3.61L221.74,49a14.45,14.45,0,0,0,8.57,2.67c2.45,0,4.49-.63,4.49-3.76,0-6.22-16.56-2.67-16.56-15.52a9.41,9.41,0,0,1,4.07-8,15.47,15.47,0,0,1,9.41-2.82c3.45,0,8.1.84,10.87,3.14Z"/><path class="cls-1" d="M264.48,57.84a23.64,23.64,0,0,1-5.59.68c-7.42,0-9.46-3.65-9.46-10.19V39.14h-3.86V32h3.86V24.72l8.21-.73v8h6.58v7.11h-6.58v8.57c0,2.77.05,3.66,3,3.66A15.45,15.45,0,0,0,264,51Z"/><path class="cls-1" d="M269,34.8c2.71-2.92,6.37-3.81,10.66-3.81,7.52,0,11.07,2.71,11.07,10.24v17h-6.95l-.05-3.4A9,9,0,0,1,276,58.89a8.45,8.45,0,0,1-5.85-2.09,7.91,7.91,0,0,1-2.35-6.17c0-3.24,1.14-5.43,3.29-6.89,2.3-1.57,5.74-2.15,9.3-2.15h2.82v-.67c0-2.93-1-3.82-3.92-3.82a8.39,8.39,0,0,0-6.27,2.35Zm11,12c-2.87,0-4.54.37-4.54,3.45,0,1.67.47,2.66,1.88,2.66,2.19,0,5.64-2.4,6-6.11Z"/><path class="cls-1" d="M317.62,54.5a13,13,0,0,1-10.14,4.23c-3.92,0-6.58-1.25-8.36-3.19C296.82,53,296,49.59,296,45.2s.83-8.41,3.55-11.13c1.93-1.88,4.7-3.13,8.88-3.13,3.29,0,6.59.78,8.83,3.08l-4.6,5.54a6,6,0,0,0-4.12-1.47c-3.35,0-4,2-4,6.74s.62,6.9,3.34,6.9a6.72,6.72,0,0,0,4.86-2.4Z"/><path class="cls-1" d="M330.32,18.24V40.6h2l5-9h9.67l-8.1,12.8,8.88,13.85H337.63L332,48.44h-1.72v9.77h-8.21v-40Z"/><path class="cls-2" d="M134.27,75a8.91,8.91,0,0,1,5.47,1.46,5.33,5.33,0,0,1,2,4.6c0,2.81-1.28,5.1-4.13,5.87,3.29.58,4.6,2.66,4.6,5.8a6.81,6.81,0,0,1-2.44,5.66,9.78,9.78,0,0,1-6.17,1.78h-9.92V75Zm-4.81,10.29h2.7c2,0,3.5-.62,3.5-3.18a2.5,2.5,0,0,0-.62-2,2.81,2.81,0,0,0-1.83-.44h-3.75Zm0,10.21H133a3.43,3.43,0,0,0,2.37-.65,3.18,3.18,0,0,0,.8-2.45c0-2.19-1-2.73-2.95-2.73h-3.72Z"/><path class="cls-2" d="M165.72,75V79.9h-9.31v5h8.47v4.93h-8.47v5.4h9.49v4.88H150.65V75Z"/><path class="cls-2" d="M180.56,75V94.89h8.65v5.25H174.65V75Z"/><path class="cls-2" d="M215,85.81V98.87a22.45,22.45,0,0,1-8.61,1.64c-4.12,0-6.71-1-8.5-2.74-2.44-2.37-2.88-5.91-2.88-9.88,0-4.6.62-8.25,3-10.58,1.71-1.68,4.27-2.7,8.32-2.7,3.43,0,6.38.73,8.43,2.62l-3.4,4.16A8.09,8.09,0,0,0,206,79.71c-2.08,0-3.11.48-3.76,1.24-.8,1-1.1,2.52-1.1,6.57,0,4.56.37,6.17,1.21,7.08.69.77,1.79,1.13,3.72,1.13a13.13,13.13,0,0,0,3.54-.44V90.55h-4.16V85.81Z"/><path class="cls-2" d="M229.88,75v25.17H224V75Z"/><path class="cls-2" d="M245.17,75v16.2c0,2.7.22,4.3,4,4.3,3.58,0,3.91-1.45,3.91-4.3V75H259V91.1c0,2.37-.33,4.59-1.68,6.31s-4.16,3.17-8.36,3.17-6.53-1.2-7.88-2.81c-1.49-1.78-1.78-4.16-1.78-6.49V75Z"/><path class="cls-2" d="M276.69,75l4.59,15.91L286,75h7.81l1.42,25.17h-5.77l-.62-18.6L284,99h-5.4L273.69,81.5,273,100.14h-5.69L268.77,75Z"/><path class="cls-2" d="M90.44,33.22l-63,35.65L81.11,99.25a6.25,6.25,0,0,0,9.33-5.44v-14L71.17,68.87,90.44,58Z"/><path class="cls-3" d="M1.86,54.22,18,63.38,91,22.08V3.67A3.67,3.67,0,0,0,85.48.48L1.86,47.84A3.67,3.67,0,0,0,1.86,54.22Z"/><polyline class="cls-4" points="27.48 68.87 90.44 47.45 90.44 33.22"/></g></g></svg>